<svg width="255" height="119" viewBox="0 0 255 119" fill="none" xmlns="http://www.w3.org/2000/svg">
<path d="M65.2903 99.9608C53.3559 96.2985 50.957 86.001 51.6767 74.6085H68.9285C68.9285 82.4765 69.2684 89.0718 78.7439 89.0718C84.5612 89.0718 87.4199 85.3196 87.4199 79.7353C87.4199 64.9263 52.7162 64.0132 52.7162 39.546C52.7162 26.677 58.8733 16.4233 79.8834 16.4233C96.6755 16.4233 105.012 23.9397 103.872 41.1284H87.08C87.08 34.9786 86.0605 28.7269 79.0838 28.7269C73.5064 28.7269 70.188 31.7978 70.188 37.484C70.188 53.0922 104.892 51.7256 104.892 77.5775C104.892 91.8191 97.8949 97.6552 89.3389 99.9608H65.2903Z" fill="#76777A"/>
<path d="M146.851 43.0684C146.971 35.4361 145.712 28.7269 136.576 28.7269C125.841 28.7269 125.841 43.1843 125.841 59.1281C125.841 84.8561 128.36 89.4175 138.175 89.4175C141.034 89.4175 144.112 88.7322 146.731 87.8171V69.5995H137.375V56.9643H163.983V98.6422C162.144 98.9978 159.265 99.4913 156.007 99.9608H126.501C110.508 95.9849 108.369 83.3397 108.369 58.2211C108.369 37.484 109.409 16.4233 137.595 16.4233C154.507 16.4233 165.002 25.8758 163.983 43.0684H146.851Z" fill="#76777A"/>
<path d="M196.547 16.423C211.62 16.389 219.856 22.2811 220.996 35.5077V41.128H204.204C204.224 35.1341 202.725 28.7266 195.748 28.7266C190.15 28.7266 186.832 31.7974 186.832 37.4837C186.832 51.9111 216.498 51.8352 220.996 72.1546V84.0646C219.157 93.6808 213.12 98.0444 206.003 99.9605H181.954C170.02 96.2982 167.621 86.0006 168.341 74.6081H185.593C185.593 82.4762 185.932 89.0715 195.408 89.0715C201.225 89.0715 204.084 85.3193 204.084 79.735C204.084 64.9259 169.36 64.0129 169.36 39.5456C169.36 26.6766 175.537 16.469 196.547 16.423Z" fill="#76777A"/>
<path d="M0 101.942H255V99.9604H0V101.942Z" fill="#F69138"/>
<path d="M220.996 118.934H222.975V0H220.996V118.934Z" fill="#F69138"/>
</svg>
