<svg width="20" height="18" viewBox="0 0 20 18" fill="none" xmlns="http://www.w3.org/2000/svg">
<path d="M9.88889 4.55556C9.88889 3.61256 9.51429 2.70819 8.84749 2.0414C8.18069 1.3746 7.27632 1 6.33333 1H1V14.3333H7.22222C7.92947 14.3333 8.60774 14.6143 9.10784 15.1144C9.60794 15.6145 9.88889 16.2928 9.88889 17M9.88889 4.55556V17M9.88889 4.55556C9.88889 3.61256 10.2635 2.70819 10.9303 2.0414C11.5971 1.3746 12.5015 1 13.4444 1H18.7778V14.3333H12.5556C11.8483 14.3333 11.17 14.6143 10.6699 15.1144C10.1698 15.6145 9.88889 16.2928 9.88889 17" stroke="#94120A" stroke-width="1.5" stroke-linecap="round" stroke-linejoin="round"/>
</svg>
