<svg width="34" height="36" viewBox="0 0 34 36" fill="none" xmlns="http://www.w3.org/2000/svg">
<path d="M32.8897 13.6103C32.8897 10.1966 32.049 6.63854 30.5799 3.49658C29.8071 1.84069 28.0069 1 26.1812 1C24.5847 1 22.8609 1.19531 21.7824 3.49658C20.3133 6.64703 19.4727 10.1966 19.4727 13.6103C19.4727 15.2832 19.6765 18.0685 20.0671 19.546C20.7889 22.2379 21.1455 25.3035 21.1455 28.921V31.8591C21.1455 33.7103 22.6486 35.2134 24.4998 35.2134H27.854C29.7052 35.2134 31.2083 33.7103 31.2083 31.8591V28.921C31.2083 25.3035 31.5565 22.2295 32.2868 19.5376C32.6944 18.0685 32.8897 15.2832 32.8897 13.6103Z" stroke="white" stroke-width="1.18885" stroke-miterlimit="10" stroke-linecap="round" stroke-linejoin="round"/>
<path d="M26.1895 13.9672C26.9368 13.9672 27.6416 14.2984 28.1087 14.8758C28.5842 15.4533 28.771 16.209 28.6267 16.9393L27.6501 21.8221H24.729L23.7524 16.9393C23.608 16.209 23.7949 15.4533 24.2704 14.8758C24.7374 14.2984 25.4423 13.9672 26.1895 13.9672ZM26.1895 12.8633C23.9307 12.8633 22.2239 14.9353 22.6739 17.1516L23.8288 22.9175H28.5587L29.7136 17.1516C30.1467 14.9438 28.4568 12.8633 26.1895 12.8633Z" fill="white"/>
<path d="M28.7029 26.5342H27.0215V28.2071H28.7029V26.5342Z" fill="white"/>
<path d="M28.7029 4.7373H27.0215V6.41019H28.7029V4.7373Z" fill="white"/>
<path d="M23.668 4.73633L23.6765 6.40921H25.3493V4.73633H23.668Z" fill="white"/>
<path d="M25.3487 8.09082H23.6758V9.7637H25.3487V8.09082Z" fill="white"/>
<path d="M27.0215 8.09082V9.7637H28.7029V8.09082H27.0215Z" fill="white"/>
<path d="M25.3493 26.5352H23.6765L23.668 28.208H25.3493V26.5352Z" fill="white"/>
<path d="M25.3493 29.8799H23.668L23.6765 31.5613H25.3493V29.8799Z" fill="white"/>
<path d="M27.0215 29.8809V31.5622H28.7029V29.8809H27.0215Z" fill="white"/>
<path d="M1.84475 15.5978C0.919144 12.3115 0.766294 8.66003 1.32675 5.22935C1.62396 3.42909 3.12701 2.12985 4.87632 1.63732C6.41333 1.20424 8.12018 0.924014 9.78456 2.85165C12.0519 5.4841 13.8267 8.67701 14.7523 11.9633C15.2108 13.5768 15.7713 16.3111 15.7883 17.8396C15.8222 20.6249 16.3147 23.6735 17.2913 27.1636L18.0895 29.9914C18.5905 31.7747 17.5545 33.6259 15.7713 34.1269L12.5444 35.0355C10.7611 35.5365 8.90991 34.5005 8.40889 32.7172L7.61067 29.8895C6.62562 26.4079 5.46225 23.5461 4.02714 21.1514C3.24589 19.8352 2.29481 17.2113 1.84475 15.5978Z" stroke="white" stroke-width="1.18885" stroke-miterlimit="10" stroke-linecap="round" stroke-linejoin="round"/>
<path d="M9.07137 14.0268C10.3621 14.0268 11.4406 15.0373 11.5425 16.3196L11.9246 21.2873L9.11383 22.077L6.85501 17.6443C6.51534 16.9819 6.48986 16.2092 6.79557 15.5213C7.09278 14.8335 7.67872 14.324 8.40052 14.1287C8.6213 14.0608 8.85058 14.0268 9.07137 14.0268ZM9.07137 12.9229C8.74868 12.9229 8.426 12.9653 8.09482 13.0587C5.91243 13.6786 4.84246 16.1327 5.86997 18.1453L8.54488 23.3847L13.0965 22.1025L12.6464 16.2346C12.502 14.3155 10.8886 12.9229 9.07137 12.9229Z" fill="white"/>
<path d="M10.9963 26.4414L9.38281 26.9L9.83288 28.5134L11.4463 28.0548L10.9963 26.4414Z" fill="white"/>
<path d="M5.08609 5.4668L3.47266 5.91686L3.92272 7.5303L5.53616 7.08024L5.08609 5.4668Z" fill="white"/>
<path d="M8.31461 4.55762L6.70117 5.00768L7.15124 6.62112L8.76467 6.17106L8.31461 4.55762Z" fill="white"/>
<path d="M9.22281 7.78516L7.60938 8.23522L8.05944 9.84866L9.67288 9.39859L9.22281 7.78516Z" fill="white"/>
<path d="M5.99625 8.69336L4.38281 9.14342L4.83288 10.7569L6.44631 10.3068L5.99625 8.69336Z" fill="white"/>
<path d="M14.2248 25.5332L12.6113 25.9918L13.0614 27.6052L14.6748 27.1466L14.2248 25.5332Z" fill="white"/>
<path d="M15.133 28.7598L13.5195 29.2183L13.9696 30.8318L15.583 30.3732L15.133 28.7598Z" fill="white"/>
<path d="M11.9084 29.668L10.2949 30.1265L10.745 31.74L12.3584 31.2814L11.9084 29.668Z" fill="white"/>
</svg>
