<svg width="30" height="40" viewBox="0 0 30 40" fill="none" xmlns="http://www.w3.org/2000/svg">
<path d="M12 39C11.8467 39 9.66075 38.9992 9.5 38.9975C7.50143 38.9759 5.04102 38.7336 5.04102 36.1208V21.6084" stroke="white" stroke-width="1.27377" stroke-miterlimit="10" stroke-linecap="round" stroke-linejoin="round"/>
<path d="M24.6567 21.6084V36.1208C24.6567 39.4775 20.6775 38.9996 18.4108 38.9996H15.1875" stroke="white" stroke-width="1.27377" stroke-miterlimit="10" stroke-linecap="round" stroke-linejoin="round"/>
<path d="M9.39279 13.4149C6.5 13 4.85068 13.7486 4.20347 14.5698C1.5 17.9999 1.01903 21.3774 1.0025 24.9043C0.99358 26.4328 1.01141 27.5452 1.01141 27.5452V32.5214C1.01141 33.4725 1.83172 34.2283 2.83035 34.1943L5.04161 34.1264" stroke="white" stroke-width="1.27377" stroke-miterlimit="10" stroke-linecap="round" stroke-linejoin="round"/>
<path d="M20.6072 13.4149C23.5 13 25.1493 13.7486 25.7965 14.5698C28.5 17.9999 28.981 21.3774 28.9975 24.9043C29.0064 26.4328 28.9886 27.5452 28.9886 27.5452V32.5214C28.9886 33.4725 28.1683 34.2283 27.1696 34.1943L24.9584 34.1264" stroke="white" stroke-width="1.27377" stroke-miterlimit="10" stroke-linecap="round" stroke-linejoin="round"/>
<path d="M14.9101 12.7448C16.609 12.7448 17.9863 11.0758 17.9863 9.01695C17.9863 6.9581 16.609 5.28906 14.9101 5.28906C13.2112 5.28906 11.834 6.9581 11.834 9.01695C11.834 11.0758 13.2112 12.7448 14.9101 12.7448Z" stroke="white" stroke-width="1.27" stroke-miterlimit="10" stroke-linecap="round" stroke-linejoin="round"/>
<path d="M14.9102 13.3379V39" stroke="white" stroke-width="1.27377" stroke-miterlimit="10" stroke-linecap="round" stroke-linejoin="round"/>
<path d="M12.2374 24.4121H5.05078" stroke="white" stroke-width="1.27377" stroke-miterlimit="10" stroke-linecap="round" stroke-linejoin="round"/>
<path d="M24.6564 24.4121H17.4609" stroke="white" stroke-width="1.27377" stroke-miterlimit="10" stroke-linecap="round" stroke-linejoin="round"/>
<path d="M9.43784 13.398C9.07226 12.2771 8.86719 11.0203 8.86719 9.69558C8.86719 4.88923 12.5407 1 14.9214 1C17.3021 1 20.9756 4.89773 20.9756 9.69558C20.9756 11.0203 20.7705 12.2771 20.405 13.398" stroke="white" stroke-width="1.27" stroke-miterlimit="10" stroke-linecap="round" stroke-linejoin="round"/>
</svg>
