<svg width="23" height="26" viewBox="0 0 23 26" fill="none" xmlns="http://www.w3.org/2000/svg">
<path d="M21.8863 16.5404L12.1171 25.251C11.9384 25.411 11.7069 25.4994 11.4669 25.4994C11.227 25.4994 10.9955 25.411 10.8168 25.251L1.04269 16.5404C0.893764 16.4092 0.788532 16.2358 0.741095 16.0432C0.693658 15.8506 0.706282 15.6482 0.777277 15.463C0.848272 15.2778 0.974244 15.1187 1.13832 15.007C1.30239 14.8954 1.49672 14.8364 1.69527 14.8381H4.50527C4.76359 14.8381 5.01133 14.7357 5.19399 14.5532C5.37665 14.3708 5.47927 14.1234 5.47927 13.8654V1.5606C5.47927 1.30262 5.58188 1.05521 5.76454 0.872791C5.9472 0.690372 6.19495 0.587891 6.45327 0.587891H16.4709C16.7292 0.587891 16.9769 0.690372 17.1596 0.872791C17.3422 1.05521 17.4449 1.30262 17.4449 1.5606V13.8654C17.4449 14.1234 17.5475 14.3708 17.7301 14.5532C17.9128 14.7357 18.1605 14.8381 18.4189 14.8381H21.2337C21.4323 14.8364 21.6266 14.8954 21.7907 15.007C21.9548 15.1187 22.0807 15.2778 22.1517 15.463C22.2227 15.6482 22.2353 15.8506 22.1879 16.0432C22.1405 16.2358 22.0352 16.4092 21.8863 16.5404Z" fill="#FF0000"/>
</svg>
