<svg width="37" height="32" viewBox="0 0 37 32" fill="none" xmlns="http://www.w3.org/2000/svg">
<path d="M20.3975 23.3673C20.3527 23.2151 20.2452 23.0807 20.1019 23.0091C19.9586 22.9285 19.7885 22.9195 19.6362 22.9643L11.1815 25.6422C10.3486 25.893 9.32757 26.5737 8.57524 27.3797C7.75127 28.2575 7.39302 29.1352 7.59006 29.78L7.60797 29.8427C7.805 30.4876 8.5842 31.0249 9.75746 31.3026C10.8322 31.5623 12.0592 31.5623 12.8832 31.3205L21.3558 28.6426C21.6693 28.5441 21.8484 28.2037 21.7499 27.8902L20.3975 23.3673Z" fill="white"/>
<path d="M8.40379 9.55786L2.0538 15.6571C0.817838 16.8751 -0.238994 19.9113 0.826798 20.995L0.87158 21.0398C1.93737 22.1145 4.9825 21.0935 6.22742 19.8754L12.5595 13.7942C12.6938 13.6598 12.7744 13.4897 12.7744 13.3016C12.7744 13.1135 12.7028 12.9344 12.5774 12.8L9.38897 9.57577C9.12029 9.29812 8.68143 9.28917 8.40379 9.55786Z" fill="white"/>
<path d="M11.2871 10.7215C12.6395 9.4676 15.6488 8.92126 17.3505 10.6677C17.8072 11.1335 19.2492 12.459 19.2492 12.459C19.4104 12.6112 19.6343 12.7277 19.9209 12.8172C21.0584 13.1486 22.3033 12.5127 22.7511 11.3574C22.8765 11.0439 22.9571 10.7215 23.0019 10.3811C23.1183 9.47655 24.1662 4.9447 24.5155 3.82517C25.1245 1.88167 26.9874 0.699438 28.8413 1.06664C29.0026 1.10247 29.1459 1.13831 29.2623 1.19204C29.316 1.21891 29.3787 1.23681 29.4325 1.26368C29.5041 1.2995 29.5757 1.33534 29.6384 1.37117C30.0504 1.60403 30.8923 2.222 31.5551 2.97433C34.5913 6.46726 37.0811 11.626 34.1166 14.6533C34.027 14.7518 33.9285 14.8413 33.83 14.9309C33.5344 15.2086 33.2299 15.4862 32.9433 15.7459L29.7549 18.5582C29.6922 18.6119 29.6295 18.6746 29.5758 18.7373C28.8413 19.4896 28.4652 20.4748 28.5279 21.5137C28.5906 22.5706 29.119 23.5647 29.9698 24.2364L31.1431 25.1589C31.7342 25.6247 32.0746 26.3501 32.0298 27.0577C31.994 27.6488 31.7342 28.1772 31.2864 28.5981C30.6057 29.234 29.6205 29.4311 28.698 29.0997L28.5995 29.0639C27.471 28.6608 25.9216 27.0756 25.3126 26.4039C25.0081 26.0814 24.7125 25.8217 24.399 25.6157C23.387 24.9619 22.3481 25.0962 21.5689 25.3918" stroke="white" stroke-width="1.24" stroke-miterlimit="10"/>
</svg>
