<svg width="500" height="133" viewBox="0 0 500 133" fill="none" xmlns="http://www.w3.org/2000/svg">
<path d="M1.85974 108.661H16.7376L14.8779 127.524H12.2211L13.8152 110.786H4.25082L2.65677 127.524H0L1.85974 108.661Z" fill="black"/>
<path d="M18.0645 132.838L19.9242 113.975H22.0496V115.569C22.581 114.772 23.1123 114.24 23.9093 113.975C24.4407 113.709 25.2377 113.443 26.3004 113.443C27.3631 113.443 28.4258 113.709 29.2229 114.24C30.0199 114.772 30.5512 115.569 31.0826 116.897C31.3483 117.96 31.614 119.288 31.3483 120.617C31.0826 121.945 30.8169 123.273 30.2856 124.336C29.7542 125.399 28.9572 126.196 27.8945 126.993C26.8318 127.524 25.7691 127.79 24.7064 127.79C23.9093 127.79 23.378 127.524 22.581 127.259C22.0496 126.993 21.5182 126.462 21.2526 125.93L20.4555 132.572H18.0645V132.838ZM21.5182 120.617C21.2526 122.476 21.5182 123.539 22.3153 124.602C22.8466 125.399 23.6437 125.93 24.7064 125.93C25.7691 125.93 26.5661 125.399 27.3631 124.602C28.1602 123.805 28.6915 122.476 28.9572 120.617C29.2229 118.757 28.9572 117.694 28.1602 116.631C27.6288 115.834 26.8318 115.303 25.7691 115.303C24.7064 115.303 23.9093 115.834 23.1123 116.631C22.0496 117.694 21.5182 119.023 21.5182 120.617Z" fill="black"/>
<path d="M33.2107 120.617C33.4764 117.96 34.2734 116.1 35.8675 115.037C37.1959 113.975 38.5242 113.443 40.384 113.443C42.2437 113.443 43.8378 113.975 44.9005 115.303C45.9632 116.631 46.4945 118.226 46.2289 120.351C45.9632 122.211 45.6975 123.539 44.9005 124.602C44.1034 125.664 43.3064 126.462 42.2437 126.993C41.181 127.524 40.1183 127.79 38.7899 127.79C36.9302 127.79 35.3361 127.259 34.2734 125.93C33.4764 124.602 32.945 123.008 33.2107 120.617ZM35.6018 120.617C35.3361 122.476 35.6018 123.805 36.3988 124.602C37.1959 125.399 37.9929 125.93 39.0556 125.93C40.1183 125.93 41.181 125.399 41.978 124.602C42.7751 123.805 43.3064 122.476 43.5721 120.617C43.8378 119.023 43.5721 117.694 42.7751 116.897C41.978 116.1 41.181 115.569 40.1183 115.569C39.0556 115.569 37.9929 116.1 37.1959 116.897C36.3988 117.694 35.8675 119.023 35.6018 120.617Z" fill="black"/>
<path d="M57.9171 108.661H60.3082L59.7768 115.303C60.3082 114.771 60.8395 114.24 61.3709 113.974C61.9022 113.709 62.6992 113.443 63.2306 113.443C64.8247 113.443 66.153 114.24 66.9501 115.568C67.7471 116.897 68.0128 118.491 67.7471 120.616C67.4814 122.742 66.9501 124.601 65.6217 125.664C64.559 126.993 63.2306 127.524 61.6365 127.524C61.1052 127.524 60.5738 127.524 60.0425 127.258C59.5111 126.993 58.9798 126.993 58.4484 126.196L57.9171 132.572H55.526L56.0573 126.196C55.526 126.727 54.9946 126.993 54.4633 127.258C53.9319 127.524 53.1349 127.524 52.6035 127.524C51.2752 127.524 49.9468 126.993 49.1497 125.664C48.087 124.336 47.8214 122.742 48.087 120.351C48.3527 118.491 48.8841 116.631 49.9468 115.303C51.0095 113.974 52.3379 113.177 53.9319 113.177C54.7289 113.177 55.2603 113.443 55.7917 113.709C56.323 113.974 56.8544 114.506 57.12 115.037L57.9171 108.661ZM50.4781 120.351C50.2124 122.21 50.4781 123.539 51.0095 124.601C51.5408 125.664 52.3379 125.93 53.4006 125.93C54.4633 125.93 55.2603 125.399 55.7917 124.601C56.323 123.804 56.8544 122.476 56.8544 120.882C57.12 119.022 56.8544 117.694 56.5887 116.897C56.0573 116.1 55.526 115.568 54.4633 115.568C53.4006 115.568 52.6035 116.1 52.0722 116.897C51.5408 117.694 50.4781 118.757 50.4781 120.351ZM58.9798 120.616C58.7141 122.742 58.9798 124.07 59.5111 124.867C60.0425 125.664 60.5738 125.93 61.6365 125.93C62.6992 125.93 63.4963 125.399 64.2933 124.601C65.0903 123.804 65.6217 122.476 65.6217 120.616C65.8874 118.757 65.6217 117.694 65.0903 116.631C64.559 115.834 63.7619 115.303 62.9649 115.303C61.9022 115.303 61.1052 115.834 60.5738 116.631C59.5111 117.694 59.2454 119.022 58.9798 120.616Z" fill="black"/>
<path d="M79.7041 123.008L82.0952 123.273C81.5638 124.602 80.7668 125.664 79.7041 126.462C78.6414 127.259 77.313 127.524 75.7189 127.524C73.5935 127.524 72.2651 126.993 71.2024 125.664C70.1397 124.336 69.874 122.742 69.874 120.617C70.1397 118.226 70.9367 116.631 72.2651 115.303C73.5935 113.975 75.1876 113.443 77.0473 113.443C78.907 113.443 80.2354 113.975 81.2981 115.303C82.3608 116.631 82.6265 118.226 82.6265 120.617C82.6265 120.882 82.6265 120.882 82.6265 121.148H72.5308C72.5308 122.742 72.7965 123.805 73.5935 124.602C74.3905 125.399 75.1876 125.664 76.2503 125.664C77.0473 125.664 77.8443 125.399 78.3757 124.867C78.907 124.336 79.1727 124.07 79.7041 123.008ZM72.2651 119.288H79.9697C79.9697 118.226 79.7041 117.163 79.4384 116.631C78.907 115.834 77.8443 115.303 76.7816 115.303C75.7189 115.303 74.9219 115.569 74.1248 116.366C73.0621 117.163 72.5308 118.226 72.2651 119.288Z" fill="black"/>
<path d="M94.0518 122.476L96.1772 122.742C95.6458 124.336 95.1145 125.664 93.7861 126.462C92.7234 127.259 91.395 127.79 89.801 127.79C87.9412 127.79 86.6128 127.259 85.5501 125.93C84.4874 124.602 84.2217 123.008 84.4874 120.617C84.7531 119.023 85.0188 117.96 85.5501 116.631C86.0815 115.569 86.8785 114.772 87.9412 114.24C89.0039 113.709 90.0666 113.443 91.395 113.443C92.9891 113.443 94.0518 113.709 94.8488 114.506C95.6458 115.303 96.1772 116.366 96.4429 117.694L94.0518 118.226C94.0518 117.429 93.5204 116.631 93.2547 116.1C92.7234 115.569 92.1921 115.303 91.395 115.303C90.3323 115.303 89.2696 115.834 88.4726 116.631C87.6755 117.429 87.1442 118.757 86.8785 120.617C86.6128 122.476 86.8785 123.805 87.4099 124.602C87.9412 125.399 89.0039 125.93 90.0666 125.93C90.8637 125.93 91.6607 125.664 92.4577 125.133C93.2548 124.602 93.5204 123.539 94.0518 122.476Z" fill="black"/>
<path d="M107.069 122.476L109.195 122.742C108.663 124.336 108.132 125.664 106.804 126.462C105.741 127.259 104.413 127.79 102.819 127.79C100.959 127.79 99.6304 127.259 98.5677 125.93C97.505 124.602 97.2393 123.008 97.505 120.617C97.7707 119.023 98.0364 117.96 98.5677 116.631C99.0991 115.569 99.8961 114.772 100.959 114.24C102.022 113.709 103.084 113.443 104.413 113.443C106.007 113.443 107.069 113.709 107.866 114.506C108.663 115.303 109.195 116.366 109.46 117.694L107.335 118.226C107.335 117.429 106.804 116.631 106.538 116.1C106.007 115.569 105.475 115.303 104.678 115.303C103.616 115.303 102.553 115.834 101.756 116.631C100.959 117.429 100.427 118.757 100.162 120.617C99.8961 122.476 100.162 123.805 100.693 124.602C101.224 125.399 102.287 125.93 103.35 125.93C104.147 125.93 104.944 125.664 105.741 125.133C106.272 124.602 106.804 123.539 107.069 122.476Z" fill="black"/>
<path d="M112.376 113.707H114.767L113.705 124.069L121.144 113.707H123.535L122.206 127.522H119.815L120.878 117.161L113.439 127.522H111.048L112.376 113.707Z" fill="black"/>
<path d="M125.666 120.617C125.932 117.96 126.729 116.1 128.323 115.037C129.651 113.975 130.98 113.443 132.839 113.443C134.699 113.443 136.293 113.975 137.356 115.303C138.419 116.631 138.95 118.226 138.684 120.351C138.419 122.211 138.153 123.539 137.356 124.602C136.559 125.664 135.762 126.462 134.699 126.993C133.636 127.524 132.574 127.79 131.245 127.79C129.386 127.79 127.792 127.259 126.729 125.93C125.666 124.602 125.4 123.008 125.666 120.617ZM128.057 120.617C127.792 122.476 128.057 123.805 128.854 124.602C129.651 125.399 130.448 125.93 131.511 125.93C132.574 125.93 133.636 125.399 134.433 124.602C135.23 123.805 135.762 122.476 136.028 120.617C136.293 119.023 136.028 117.694 135.23 116.897C134.433 116.1 133.636 115.569 132.574 115.569C131.511 115.569 130.448 116.1 129.651 116.897C128.589 117.694 128.057 119.023 128.057 120.617Z" fill="black"/>
<path d="M141.87 113.71H144.261L143.464 119.555H149.841L150.372 113.975H152.763L151.435 127.525H149.044L149.575 121.414H143.464L142.933 127.525H140.542L141.87 113.71Z" fill="black"/>
<path d="M164.186 125.929C163.389 126.726 162.327 127.257 161.53 127.523C160.733 127.789 159.936 128.054 158.873 128.054C157.279 128.054 156.216 127.789 155.419 126.992C154.622 126.195 154.356 125.398 154.622 124.069C154.622 123.272 154.888 122.741 155.153 122.21C155.419 121.678 155.95 121.147 156.482 120.881C157.013 120.616 157.545 120.35 158.342 120.084C158.873 120.084 159.404 119.819 160.467 119.819C162.327 119.553 163.655 119.287 164.718 119.021C164.718 118.756 164.718 118.49 164.718 118.49C164.718 117.427 164.718 116.896 164.186 116.63C163.655 116.099 162.858 115.833 161.53 115.833C160.467 115.833 159.67 116.099 159.139 116.365C158.607 116.63 158.076 117.427 157.81 118.49L155.685 118.224C155.95 117.162 156.482 116.365 157.013 115.833C157.545 115.302 158.342 114.771 159.139 114.505C159.936 114.239 160.998 113.974 162.327 113.974C163.389 113.974 164.452 114.239 165.249 114.505C166.046 114.771 166.578 115.036 166.843 115.568C167.109 116.099 167.375 116.63 167.375 117.162C167.375 117.427 167.375 118.224 167.375 119.287L167.109 122.475C166.843 124.601 166.843 125.929 166.843 126.46C166.843 126.992 167.109 127.523 167.375 128.054H164.983C164.186 126.992 164.186 126.46 164.186 125.929ZM164.452 120.616C163.655 120.881 162.327 121.147 160.467 121.413C159.404 121.678 158.873 121.678 158.342 121.944C157.81 122.21 157.545 122.475 157.279 122.741C157.013 123.007 157.013 123.538 156.748 123.804C156.748 124.335 156.748 124.866 157.279 125.398C157.81 125.929 158.342 125.929 159.139 125.929C159.936 125.929 160.733 125.663 161.53 125.398C162.327 125.132 162.858 124.601 163.124 123.804C163.389 123.272 163.655 122.475 163.655 121.413L164.452 120.616Z" fill="black"/>
<path d="M172.16 113.71H182.787L181.459 127.259H179.068L180.13 115.569H174.02L173.223 122.477C172.957 124.071 172.957 125.134 172.691 125.665C172.426 126.197 172.16 126.728 171.629 126.994C171.097 127.259 170.566 127.525 169.503 127.525C168.972 127.525 168.441 127.525 167.644 127.525L167.909 125.665H168.972C169.503 125.665 169.769 125.665 170.035 125.399C170.3 125.399 170.3 125.134 170.566 124.868C170.566 124.602 170.832 124.071 170.832 122.743L172.16 113.71Z" fill="black"/>
<path d="M186.502 113.707H188.893L188.362 119.021H191.284C193.144 119.021 194.738 119.286 195.535 120.084C196.598 120.881 196.864 121.943 196.864 123.272C196.864 124.334 196.332 125.397 195.27 126.194C194.207 126.991 192.878 127.522 191.019 127.522H185.174L186.502 113.707ZM187.565 125.663H189.956C191.55 125.663 192.613 125.397 193.144 125.131C193.675 124.866 194.207 124.334 194.207 123.537C194.207 123.006 194.207 122.475 193.675 121.943C193.144 121.412 192.347 121.146 190.753 121.146H188.096L187.565 125.663Z" fill="black"/>
<path d="M200.324 113.707H202.716L202.184 119.286H208.56L209.092 113.707H211.483L210.155 127.257H207.763L208.295 121.146H201.919L201.387 127.257H198.996L200.324 113.707Z" fill="black"/>
<path d="M222.636 125.929C221.839 126.726 220.776 127.257 219.979 127.523C219.182 127.789 218.385 128.054 217.322 128.054C215.728 128.054 214.665 127.789 213.868 126.992C213.071 126.195 212.806 125.398 213.071 124.069C213.071 123.272 213.337 122.741 213.603 122.21C213.868 121.678 214.4 121.147 214.931 120.881C215.462 120.616 215.994 120.35 216.791 120.084C217.322 120.084 217.853 119.819 218.916 119.819C220.776 119.553 222.104 119.287 223.167 119.021C223.167 118.756 223.167 118.49 223.167 118.49C223.167 117.427 223.167 116.896 222.636 116.63C222.104 116.099 221.307 115.833 219.979 115.833C218.916 115.833 218.119 116.099 217.588 116.365C217.056 116.63 216.525 117.427 216.259 118.49L214.134 118.224C214.4 117.162 214.931 116.365 215.462 115.833C215.994 115.302 216.791 114.771 217.588 114.505C218.385 114.239 219.448 113.974 220.776 113.974C221.839 113.974 222.901 114.239 223.698 114.505C224.495 114.771 225.027 115.036 225.292 115.568C225.558 116.099 225.824 116.63 225.824 117.162C225.824 117.427 225.824 118.224 225.824 119.287L225.558 122.475C225.292 124.601 225.292 125.929 225.292 126.46C225.292 126.992 225.558 127.523 225.824 128.054H223.433C222.636 126.992 222.636 126.46 222.636 125.929ZM222.901 120.616C222.104 120.881 220.776 121.147 218.916 121.413C217.853 121.678 217.322 121.678 216.791 121.944C216.259 122.21 215.994 122.475 215.728 122.741C215.462 123.007 215.462 123.538 215.197 123.804C215.197 124.335 215.197 124.866 215.728 125.398C216.259 125.929 216.791 125.929 217.588 125.929C218.385 125.929 219.182 125.663 219.979 125.398C220.776 125.132 221.307 124.601 221.573 123.804C221.839 123.272 222.104 122.475 222.104 121.413L222.901 120.616Z" fill="black"/>
<path d="M240.436 113.71L239.108 127.525H236.717L237.248 122.211H235.92C235.123 122.211 234.591 122.211 234.06 122.477C233.529 122.743 232.997 123.274 232.2 124.602L229.809 127.525H226.887L229.809 123.805C230.606 122.743 231.403 121.946 232.2 121.946C230.872 121.68 230.075 121.414 229.278 120.617C228.746 119.82 228.481 119.023 228.481 117.961C228.481 116.898 229.012 115.835 230.075 115.038C230.872 114.241 232.2 113.975 233.794 113.975H240.436V113.71ZM237.779 115.835H234.591C233.263 115.835 232.2 116.101 231.935 116.366C231.403 116.898 231.138 117.164 231.138 117.961C231.138 118.758 231.403 119.289 231.935 119.82C232.466 120.352 233.529 120.352 235.123 120.352H237.779V115.835Z" fill="black"/>
<path d="M253.453 121.413L253.719 119.553C254.781 119.553 255.313 119.553 255.844 119.553C256.11 119.553 256.641 119.287 256.907 119.021C257.172 118.756 257.438 118.224 257.438 117.693C257.438 117.162 257.438 116.63 256.907 116.099C256.375 115.568 256.11 115.568 255.313 115.568C253.984 115.568 252.922 116.365 252.39 117.959L250.265 117.693C251.328 115.036 252.922 113.974 255.578 113.974C256.907 113.974 258.235 114.239 258.767 115.036C259.564 115.833 259.829 116.896 259.829 117.959C259.829 119.021 259.032 120.084 257.97 120.616C258.501 120.881 259.032 121.413 259.298 121.944C259.564 122.475 259.564 123.272 259.564 124.069C259.564 125.398 258.767 126.195 257.97 126.992C256.907 127.789 255.844 128.054 253.984 128.054C250.796 128.054 249.202 126.726 248.937 123.804L251.062 123.272C251.062 124.069 251.593 124.866 252.125 125.398C252.656 125.929 253.453 126.195 254.25 126.195C255.047 126.195 255.578 125.929 256.375 125.663C256.907 125.132 257.173 124.601 257.438 124.069C257.438 123.538 257.438 123.007 257.173 122.741C256.907 122.475 256.641 122.21 256.11 121.944C255.844 121.944 255.047 121.678 254.25 121.678C253.984 121.413 253.719 121.413 253.453 121.413Z" fill="black"/>
<path d="M270.992 125.929C270.195 126.726 269.132 127.257 268.335 127.523C267.538 127.789 266.741 128.054 265.679 128.054C264.085 128.054 263.022 127.789 262.225 126.992C261.428 126.195 261.162 125.398 261.428 124.069C261.428 123.272 261.693 122.741 261.959 122.21C262.225 121.678 262.756 121.147 263.287 120.881C263.819 120.616 264.35 120.35 265.147 120.084C265.679 120.084 266.21 119.819 267.273 119.819C269.132 119.553 270.461 119.287 271.523 119.021C271.523 118.756 271.523 118.49 271.523 118.49C271.523 117.427 271.523 116.896 270.992 116.63C270.461 116.099 269.664 115.833 268.335 115.833C267.273 115.833 266.476 116.099 265.944 116.365C265.413 116.63 264.882 117.427 264.616 118.49L262.49 118.224C262.756 117.162 263.287 116.365 263.819 115.833C264.35 115.302 265.147 114.771 265.944 114.505C266.741 114.239 267.804 113.974 269.132 113.974C270.195 113.974 271.258 114.239 272.055 114.505C272.852 114.771 273.383 115.036 273.649 115.568C273.915 116.099 274.18 116.63 274.18 117.162C274.18 117.427 274.18 118.224 274.18 119.287L273.915 122.475C273.649 124.601 273.649 125.929 273.649 126.46C273.649 126.992 273.915 127.523 274.18 128.054H271.789C271.258 126.992 270.992 126.46 270.992 125.929ZM271.258 120.616C270.461 120.881 269.132 121.147 267.273 121.413C266.21 121.678 265.679 121.678 265.147 121.944C264.616 122.21 264.35 122.475 264.085 122.741C263.819 123.007 263.819 123.538 263.553 123.804C263.553 124.335 263.553 124.866 264.085 125.398C264.616 125.929 265.147 125.929 265.944 125.929C266.741 125.929 267.538 125.663 268.335 125.398C269.132 125.132 269.664 124.601 269.929 123.804C270.195 123.272 270.461 122.475 270.461 121.413L271.258 120.616Z" fill="black"/>
<path d="M278.161 113.707H280.552L279.49 125.397H284.803L285.866 113.707H288.257L287.194 125.397H292.508L293.571 113.707H295.962L294.899 125.397H296.493L295.962 131.242H294.102L294.368 127.257H277.364L278.161 113.707Z" fill="black"/>
<path d="M299.683 113.707H302.074L301.011 124.069L308.45 113.707H310.841L309.513 127.257H307.122L308.185 116.895L300.746 127.257H298.354L299.683 113.707Z" fill="black"/>
<path d="M313.231 113.707H324.389L324.123 115.567H319.607L318.544 127.257H316.153L317.216 115.567H312.699L313.231 113.707Z" fill="black"/>
<path d="M326.782 113.707H329.174L328.642 119.286H335.018L335.55 113.707H337.941L336.613 127.257H334.221L334.753 121.146H328.377L327.845 127.257H325.454L326.782 113.707Z" fill="black"/>
<path d="M349.1 125.929C348.302 126.726 347.24 127.257 346.443 127.523C345.646 127.789 344.849 128.054 343.786 128.054C342.192 128.054 341.129 127.789 340.332 126.992C339.535 126.195 339.269 125.398 339.535 124.069C339.535 123.272 339.801 122.741 340.067 122.21C340.332 121.678 340.864 121.147 341.395 120.881C341.926 120.616 342.458 120.35 343.255 120.084C343.786 120.084 344.317 119.819 345.38 119.819C347.24 119.553 348.568 119.287 349.631 119.021C349.631 118.756 349.631 118.49 349.631 118.49C349.631 117.427 349.631 116.896 349.1 116.63C348.568 116.099 347.771 115.833 346.443 115.833C345.38 115.833 344.583 116.099 344.052 116.365C343.52 116.63 342.989 117.427 342.723 118.49L340.598 118.224C340.864 117.162 341.395 116.365 341.926 115.833C342.458 115.302 343.255 114.771 344.052 114.505C344.849 114.239 345.911 113.974 347.24 113.974C348.302 113.974 349.365 114.239 350.162 114.505C350.959 114.771 351.491 115.036 351.756 115.568C352.022 116.099 352.288 116.63 352.288 117.162C352.288 117.427 352.288 118.224 352.288 119.287L352.022 122.475C351.756 124.601 351.756 125.929 351.756 126.46C351.756 126.992 352.022 127.523 352.288 128.054H349.897C349.1 126.992 349.1 126.46 349.1 125.929ZM349.365 120.616C348.568 120.881 347.24 121.147 345.38 121.413C344.317 121.678 343.786 121.678 343.255 121.944C342.723 122.21 342.458 122.475 342.192 122.741C341.926 123.007 341.926 123.538 341.661 123.804C341.661 124.335 341.661 124.866 342.192 125.398C342.723 125.929 343.255 125.929 344.052 125.929C344.849 125.929 345.646 125.663 346.443 125.398C347.24 125.132 347.771 124.601 348.037 123.804C348.302 123.272 348.568 122.475 348.568 121.413L349.365 120.616Z" fill="black"/>
<path d="M366.634 113.71L365.306 127.259H362.915L363.446 121.946H362.118C361.321 121.946 360.79 121.946 360.258 122.211C359.727 122.477 359.195 123.008 358.398 124.337L356.007 127.259H353.351L356.273 123.54C357.07 122.477 357.867 121.68 358.664 121.68C357.336 121.414 356.539 121.149 355.742 120.352C355.21 119.555 354.945 118.758 354.945 117.695C354.945 116.632 355.476 115.569 356.539 114.772C357.336 113.975 358.664 113.71 360.258 113.71H366.634ZM364.243 115.835H361.055C359.727 115.835 358.664 116.101 358.398 116.366C357.867 116.898 357.601 117.164 357.601 117.961C357.601 118.758 357.867 119.289 358.398 119.82C358.93 120.352 359.993 120.352 361.587 120.352H364.243V115.835Z" fill="black"/>
<path d="M375.931 120.617C376.197 117.96 376.994 116.1 378.588 115.037C379.917 113.975 381.245 113.443 383.105 113.443C384.964 113.443 386.558 113.975 387.621 115.303C388.684 116.631 389.215 118.226 388.95 120.351C388.684 122.211 388.418 123.539 387.621 124.602C387.09 125.664 386.027 126.462 384.964 126.993C383.902 127.524 382.839 127.79 381.511 127.79C379.651 127.79 378.057 127.259 376.994 125.93C376.197 124.602 375.666 123.008 375.931 120.617ZM378.322 120.617C378.057 122.476 378.322 123.805 379.12 124.602C379.917 125.399 380.714 125.93 381.776 125.93C382.839 125.93 383.902 125.399 384.699 124.602C385.496 123.805 386.027 122.476 386.293 120.617C386.558 119.023 386.293 117.694 385.496 116.897C384.699 116.1 383.902 115.569 382.839 115.569C381.776 115.569 380.714 116.1 379.917 116.897C379.12 117.694 378.588 119.023 378.322 120.617Z" fill="black"/>
<path d="M393.466 113.707H403.03L401.967 125.397H403.561L403.03 131.242H401.17L401.436 127.257H390.809L390.543 131.242H388.684L389.215 125.397H390.543C391.872 123.272 392.934 119.552 393.466 113.707ZM395.326 115.833C394.794 120.349 393.731 123.537 392.403 125.663H399.842L400.905 115.833H395.326Z" fill="black"/>
<path d="M415.521 123.008L417.913 123.273C417.381 124.602 416.584 125.664 415.521 126.462C414.459 127.259 413.13 127.524 411.536 127.524C409.411 127.524 408.082 126.993 407.02 125.664C405.957 124.336 405.691 122.742 405.691 120.617C405.957 118.226 406.754 116.631 408.083 115.303C409.411 113.975 411.005 113.443 412.865 113.443C414.724 113.443 416.053 113.975 417.116 115.303C418.178 116.631 418.444 118.226 418.444 120.617C418.444 120.882 418.444 120.882 418.444 121.148H408.348C408.348 122.742 408.614 123.805 409.411 124.602C410.208 125.399 411.005 125.664 412.068 125.664C412.865 125.664 413.662 125.399 414.193 124.867C414.724 124.336 414.99 124.07 415.521 123.008ZM408.348 119.288H416.053C416.053 118.226 415.787 117.163 415.521 116.631C414.99 115.834 413.927 115.303 412.865 115.303C411.802 115.303 411.005 115.569 410.208 116.366C408.88 117.163 408.614 118.226 408.348 119.288Z" fill="black"/>
<path d="M429.867 113.709L429.335 119.554C430.132 119.554 430.664 119.288 430.929 119.023C431.195 118.757 431.726 117.96 432.523 116.631C433.32 115.303 433.852 114.506 434.117 114.24C434.649 113.975 435.18 113.709 436.243 113.709H437.04L436.774 115.569H436.243C435.711 115.569 435.18 115.569 434.914 115.834C434.649 116.1 434.383 116.631 433.852 117.429C433.32 118.226 433.055 119.023 432.789 119.288C432.523 119.554 431.992 119.82 431.461 120.351C432.523 120.617 433.32 121.414 434.117 123.008L436.243 127.259H433.586L431.461 123.008C430.929 122.211 430.664 121.679 430.398 121.414C430.132 121.148 429.601 120.882 429.07 120.882L428.538 127.259H426.147L426.678 120.882C426.147 120.882 425.616 120.882 425.35 121.148C424.819 121.414 424.553 121.945 423.756 122.742L420.834 126.993H418.177L421.099 122.742C422.162 121.148 423.225 120.351 424.287 120.085C423.756 119.82 423.225 119.554 422.959 119.023C422.693 118.757 422.428 117.694 421.896 116.366C421.631 115.834 421.631 115.569 421.365 115.569C421.099 115.569 420.834 115.303 420.302 115.303C420.302 115.303 420.036 115.303 419.505 115.303L419.771 113.443H420.037C420.834 113.443 421.631 113.443 421.896 113.709C422.162 113.709 422.428 113.975 422.693 114.506C422.959 115.037 423.225 115.569 423.49 116.631C424.022 117.96 424.287 118.757 424.553 119.023C424.819 119.288 425.35 119.554 426.147 119.554L426.678 113.709H429.867Z" fill="black"/>
<path d="M441.023 113.71H450.587L449.524 125.399H451.118L450.587 131.244H448.727L448.993 127.259H438.366L438.1 131.244H435.709L436.24 125.399H437.569C439.428 123.274 440.491 119.555 441.023 113.71ZM442.617 115.835C442.085 120.352 441.023 123.54 439.694 125.665H447.133L448.196 115.835H442.617Z" fill="black"/>
<path d="M462.278 125.929C461.481 126.726 460.419 127.257 459.621 127.523C458.824 127.789 458.027 128.054 456.965 128.054C455.371 128.054 454.308 127.789 453.511 126.992C452.714 126.195 452.448 125.398 452.714 124.069C452.714 123.272 452.98 122.741 453.245 122.21C453.511 121.678 454.042 121.147 454.574 120.881C455.105 120.616 455.636 120.35 456.433 120.084C456.965 120.084 457.496 119.819 458.559 119.819C460.419 119.553 461.747 119.287 462.81 119.021C462.81 118.756 462.81 118.49 462.81 118.49C462.81 117.427 462.81 116.896 462.278 116.63C461.747 116.099 460.95 115.833 459.621 115.833C458.559 115.833 457.762 116.099 457.23 116.365C456.699 116.63 456.168 117.427 455.902 118.49L453.777 118.224C454.042 117.162 454.574 116.365 455.105 115.833C455.636 115.302 456.433 114.771 457.23 114.505C458.027 114.239 459.09 113.974 460.419 113.974C461.481 113.974 462.544 114.239 463.341 114.505C464.138 114.771 464.669 115.036 464.935 115.568C465.201 116.099 465.466 116.63 465.466 117.162C465.466 117.427 465.466 118.224 465.466 119.287L465.201 122.475C464.935 124.601 464.935 125.929 464.935 126.46C464.935 126.992 465.201 127.523 465.466 128.054H463.075C462.544 126.992 462.278 126.46 462.278 125.929ZM462.544 120.616C461.747 120.881 460.419 121.147 458.559 121.413C457.496 121.678 456.965 121.678 456.433 121.944C455.902 122.21 455.636 122.475 455.371 122.741C455.105 123.007 455.105 123.538 454.839 123.804C454.839 124.335 454.839 124.866 455.371 125.398C455.902 125.929 456.433 125.929 457.23 125.929C458.027 125.929 458.824 125.663 459.621 125.398C460.419 125.132 460.95 124.601 461.216 123.804C461.481 123.272 461.747 122.475 461.747 121.413L462.544 120.616Z" fill="black"/>
<path fill-rule="evenodd" clip-rule="evenodd" d="M19.661 39.5857L13.8161 100.16C20.458 100.16 27.0999 100.16 33.7418 100.16L39.5867 39.5857H58.7154C59.2468 33.4752 59.7781 27.6303 60.5752 21.5197H2.12634C1.59498 27.3646 1.06363 33.4752 0.266602 39.5857H19.661V39.5857ZM121.946 21.7854C103.615 21.7854 91.128 21.7854 72.7963 21.7854C70.4052 47.8217 67.7484 74.1237 65.0917 100.426C83.1577 100.426 96.7072 100.426 115.039 100.426C115.57 94.5808 116.102 88.4702 116.633 82.6253C104.943 82.6253 98.0356 82.6253 86.6115 82.6253C87.1428 77.8432 87.4085 73.3267 87.9399 68.8102H114.773C115.305 62.9653 115.836 56.8547 116.367 51.0098H90.0653L91.128 39.8514C102.818 39.8514 108.397 39.8514 120.087 39.8514C120.884 33.4752 121.415 27.6303 121.946 21.7854ZM131.776 61.1055C129.385 87.9389 148.248 101.223 168.174 101.223C184.912 101.223 203.243 92.4554 208.557 70.1385C201.649 70.1385 195.539 70.1385 188.897 70.1385C185.974 78.6402 178.801 82.891 170.034 82.891C158.078 82.891 151.437 72.7953 152.499 61.1055C153.828 48.0874 162.329 39.3201 174.019 39.3201C182.521 39.3201 188.1 43.0395 189.96 51.0098C196.867 51.0098 202.978 51.0098 209.62 51.0098C208.557 30.0214 191.819 21.2541 175.613 21.2541C155.953 20.7227 134.433 34.2722 131.776 61.1055Z" fill="#94120A"/>
<path fill-rule="evenodd" clip-rule="evenodd" d="M262.227 21.7859C250.803 21.7859 239.113 21.7859 227.689 21.7859C225.032 48.0879 222.641 74.1242 219.984 100.426C226.361 100.426 233.268 100.426 240.176 100.426L242.301 77.3123H252.663L263.821 100.426H286.138L286.404 97.5037L273.385 72.5301C294.905 58.9806 293.045 21.7859 262.227 21.7859ZM258.507 59.2463H244.161C244.692 52.87 245.489 45.9625 246.021 39.5862C250.803 39.5862 255.585 39.5862 260.367 39.5862C271.791 39.8519 269.4 59.2463 258.507 59.2463Z" fill="black"/>
<path fill-rule="evenodd" clip-rule="evenodd" d="M486.184 1.06271C493.358 1.06271 499.202 6.90759 499.202 14.0809C499.202 21.2541 493.358 27.099 486.184 27.099C479.011 27.099 473.166 21.2541 473.166 14.0809C473.432 6.90759 479.011 1.06271 486.184 1.06271ZM486.184 0C478.48 0 472.369 6.11056 472.369 13.8152C472.369 21.5198 478.48 27.6304 486.184 27.6304C493.889 27.6304 499.999 21.5198 499.999 13.8152C499.999 6.37624 493.889 0 486.184 0Z" fill="black"/>
<path fill-rule="evenodd" clip-rule="evenodd" d="M479.546 22.0497V5.04639H487.251C488.845 5.04639 489.907 5.31206 490.704 5.57774C491.501 5.84342 492.033 6.37477 492.564 7.1718C493.095 7.96883 493.361 8.76586 493.361 9.82856C493.361 11.1569 493.095 11.954 492.298 13.0167C491.501 13.8137 490.439 14.3451 488.579 14.6107C489.11 14.8764 489.642 15.1421 489.907 15.4078C490.439 15.9391 491.236 16.7362 491.767 17.7989L494.689 22.581H491.767L489.376 19.1272C488.845 18.0645 488.048 17.2675 487.782 16.7362C487.251 16.2048 486.985 15.9391 486.719 15.6734C486.453 15.4078 485.922 15.4078 485.656 15.1421C485.391 15.1421 484.859 15.1421 484.328 15.1421H481.671V22.8467H479.546V22.0497ZM481.671 12.4853H486.454C487.516 12.4853 488.313 12.4853 488.845 12.2197C489.376 11.954 489.907 11.6883 490.173 11.1569C490.439 10.6256 490.704 10.0942 490.704 9.56289C490.704 8.76586 490.439 7.96883 489.907 7.43748C489.376 6.90612 488.313 6.64045 487.251 6.64045H481.937V12.4853H481.671Z" fill="black"/>
<path fill-rule="evenodd" clip-rule="evenodd" d="M343.787 20.4565L341.661 40.1166C350.96 40.9136 358.93 47.8212 357.602 61.3707C356.274 74.9202 346.444 82.0935 337.145 82.6249L335.02 102.019C354.945 101.488 375.668 87.9384 378.059 61.1051C380.716 34.8031 363.181 21.2536 343.787 20.4565Z" fill="black"/>
<path fill-rule="evenodd" clip-rule="evenodd" d="M334.224 82.3585C324.926 81.5615 316.955 74.6539 318.018 61.1044C319.347 47.5549 329.177 40.3816 338.741 39.8502L340.866 20.1902C320.941 20.4559 300.218 34.0054 297.561 60.8387C294.904 87.4063 312.705 100.956 332.099 101.487L334.224 82.3585Z" fill="black"/>
<path fill-rule="evenodd" clip-rule="evenodd" d="M444.209 21.7859L440.49 60.309L430.66 49.6819L427.737 76.5153L449.788 100.426H456.962L464.666 21.7859C457.759 21.7859 451.117 21.7859 444.209 21.7859Z" fill="black"/>
<path fill-rule="evenodd" clip-rule="evenodd" d="M428.002 46.7606L404.356 21.2556H397.183L389.479 100.162C396.386 100.162 403.294 100.162 410.201 100.162L413.921 61.6385L425.079 73.5939L428.002 46.7606Z" fill="black"/>
</svg>
