<svg width="58" height="67" viewBox="0 0 58 67" fill="none" xmlns="http://www.w3.org/2000/svg">
<path d="M44.6605 0.424805H11.0574C10.1533 0.424805 9.28622 0.783492 8.64691 1.42196C8.0076 2.06043 7.64844 2.92637 7.64844 3.8293V62.8535C7.64844 63.7565 8.0076 64.6224 8.64691 65.2609C9.28622 65.8994 10.1533 66.258 11.0574 66.258H18.4258C18.6841 66.258 18.9318 66.1556 19.1145 65.9731C19.2971 65.7907 19.3998 65.5433 19.3998 65.2853V63.8263C19.3998 63.5683 19.2971 63.3209 19.1145 63.1384C18.9318 62.956 18.6841 62.8535 18.4258 62.8535H11.0428V3.8293H41.2953V14.821C41.2953 15.7239 41.6545 16.5898 42.2938 17.2283C42.9331 17.8668 43.8002 18.2255 44.7043 18.2255H54.5758V62.8438H46.5111C46.2528 62.8438 46.005 62.9463 45.8224 63.1287C45.6397 63.3111 45.5371 63.5585 45.5371 63.8165V65.2756C45.5371 65.5336 45.6397 65.781 45.8224 65.9634C46.005 66.1458 46.2528 66.2483 46.5111 66.2483H54.5758C55.0235 66.2483 55.4668 66.1603 55.8804 65.9892C56.294 65.8181 56.6698 65.5673 56.9863 65.2512C57.3029 64.935 57.554 64.5597 57.7253 64.1467C57.8966 63.7336 57.9848 63.2909 57.9848 62.8438V15.1274C57.9862 14.2988 57.6849 13.4982 57.1374 12.8755L47.2318 1.59206C46.9117 1.22529 46.5165 0.931315 46.0729 0.729962C45.6294 0.528609 45.1477 0.424552 44.6605 0.424805ZM44.7141 14.821V3.90712L54.2885 14.821H44.7141Z" fill="#7B7B7B"/>
<path d="M28.2572 12.375H6.96547C3.4044 12.375 0.517578 15.258 0.517578 18.8144V21.8298C0.517578 25.3861 3.4044 28.2691 6.96547 28.2691H28.2572C31.8182 28.2691 34.705 25.3861 34.705 21.8298V18.8144C34.705 15.258 31.8182 12.375 28.2572 12.375Z" fill="#FF0000"/>
<path d="M6.09375 24.7037V16.1925H9.81932C10.6075 16.1503 11.3828 16.4055 11.9913 16.9074C12.2447 17.1457 12.4466 17.4332 12.5847 17.7523C12.7227 18.0714 12.7939 18.4153 12.7939 18.7629C12.7939 19.1105 12.7227 19.4544 12.5847 19.7735C12.4466 20.0926 12.2447 20.3801 11.9913 20.6183C11.3835 21.1221 10.6081 21.379 9.81932 21.3382H7.84696V24.7086L6.09375 24.7037ZM7.84696 19.8402H9.69757C10.5401 19.8402 11.0417 19.4608 11.0417 18.7799C11.0417 18.099 10.5547 17.7245 9.69757 17.7245H7.84696V19.8402Z" fill="white"/>
<path d="M14.1191 24.7039V16.1926H17.309C18.5441 16.1413 19.7514 16.5682 20.679 17.3842C21.1066 17.7694 21.4449 18.2431 21.6703 18.7723C21.8957 19.3015 22.0029 19.8735 21.9842 20.4482C22.0023 21.0244 21.895 21.5976 21.6697 22.1283C21.4443 22.659 21.1063 23.1345 20.679 23.522C19.7502 24.335 18.5429 24.7583 17.309 24.7039H14.1191ZM15.8723 23.1329H17.1629C19.0622 23.1329 20.1823 22.1602 20.1823 20.4482C20.1823 18.7363 19.0622 17.7587 17.1629 17.7587H15.8723V23.1329Z" fill="white"/>
<path d="M23.5625 24.7036V16.1924H29.8107V17.7585H25.3157V19.485H28.788V21.0316H25.3157V24.7036H23.5625Z" fill="white"/>
<path d="M46.5909 36.8421H19.0218C18.5581 36.8421 18.1134 36.6582 17.7855 36.3307C17.4576 36.0033 17.2734 35.5592 17.2734 35.0961C17.2728 34.8664 17.3176 34.6388 17.4051 34.4264C17.4927 34.214 17.6214 34.021 17.7838 33.8583C17.9462 33.6957 18.1392 33.5666 18.3516 33.4786C18.564 33.3905 18.7918 33.3452 19.0218 33.3452H46.5909C47.055 33.3465 47.4997 33.5315 47.8274 33.8598C48.1552 34.188 48.3392 34.6326 48.3392 35.0961C48.3392 35.5592 48.155 36.0033 47.8271 36.3307C47.4993 36.6582 47.0546 36.8421 46.5909 36.8421Z" fill="#7B7B7B"/>
<path d="M46.5909 44.2845H19.0218C18.7918 44.2845 18.564 44.2392 18.3516 44.1512C18.1392 44.0631 17.9462 43.9341 17.7838 43.7714C17.6214 43.6088 17.4927 43.4157 17.4051 43.2033C17.3176 42.9909 17.2728 42.7633 17.2734 42.5336C17.2747 42.0714 17.4595 41.6286 17.7872 41.3022C18.115 40.9758 18.5589 40.7925 19.0218 40.7925H46.5909C47.0546 40.7925 47.4993 40.9764 47.8271 41.3039C48.155 41.6313 48.3392 42.0754 48.3392 42.5385C48.3379 43.0012 48.1533 43.4446 47.8257 43.7717C47.4981 44.0989 47.0542 44.2833 46.5909 44.2845Z" fill="#7B7B7B"/>
</svg>
