<svg width="31" height="36" viewBox="0 0 31 36" fill="none" xmlns="http://www.w3.org/2000/svg">
<path d="M11.1777 11.3727V2.48182C11.1777 2.08882 11.3339 1.71191 11.6117 1.43401C11.8896 1.15612 12.2665 1 12.6596 1C13.0526 1 13.4295 1.15612 13.7074 1.43401C13.9853 1.71191 14.1414 2.08882 14.1414 2.48182V3.96364" stroke="white" stroke-width="1.27" stroke-linecap="round" stroke-linejoin="round"/>
<path d="M14.1426 10.6327V3.96448C14.1426 3.57148 14.2987 3.19458 14.5766 2.91668C14.8545 2.63879 15.2314 2.48267 15.6244 2.48267C16.0174 2.48267 16.3943 2.63879 16.6722 2.91668C16.9501 3.19458 17.1062 3.57148 17.1062 3.96448V6.18721" stroke="white" stroke-width="1.27" stroke-linecap="round" stroke-linejoin="round"/>
<path d="M11.177 4.70423C11.177 4.31123 11.0209 3.93432 10.743 3.65643C10.4651 3.37853 10.0882 3.22241 9.69515 3.22241C9.30215 3.22241 8.92524 3.37853 8.64735 3.65643C8.36945 3.93432 8.21333 4.31123 8.21333 4.70423V15.077C6.60556 15.077 6.1462 12.6394 3.76788 12.1133C3.4021 12.013 3.01577 12.0152 2.65117 12.1197C2.28657 12.2243 1.95776 12.4271 1.70074 12.706C1.47106 13.0839 1.44142 13.6989 2.10824 14.3657C3.69997 15.9303 8.21333 21.0024 8.21333 23.227V23.9679C8.05741 25.9354 7.17037 27.9561 6.73151 29.8951H20.0679C20.0679 26.5728 20.0679 23.5457 20.0679 20.2633V6.18605C20.0679 5.79305 19.9118 5.41614 19.6339 5.13824C19.356 4.86035 18.9791 4.70423 18.5861 4.70423C18.1931 4.70423 17.8162 4.86035 17.5383 5.13824C17.2604 5.41614 17.1042 5.79305 17.1042 6.18605V12.1133" stroke="white" stroke-width="1.27" stroke-linecap="round" stroke-linejoin="round"/>
<path d="M21.8291 5.54861C22.07 5.3859 22.3534 5.29761 22.644 5.29475C22.9347 5.29189 23.2198 5.37457 23.4638 5.53251C23.7078 5.69045 23.9 5.91668 24.0164 6.18302C24.1328 6.44936 24.1683 6.74406 24.1185 7.03043L23.8962 8.51225" stroke="white" stroke-width="1.27" stroke-linecap="round" stroke-linejoin="round"/>
<path d="M23.3633 11.9431L23.8967 8.46824C23.9193 8.26996 23.9817 8.07828 24.0802 7.9047C24.1786 7.73112 24.3112 7.57922 24.4698 7.45811C24.6284 7.337 24.8098 7.24918 25.0032 7.19991C25.1966 7.15065 25.398 7.14095 25.5952 7.17141C25.7924 7.20187 25.9815 7.27185 26.151 7.37716C26.3205 7.48247 26.467 7.62094 26.5817 7.78425C26.6964 7.94757 26.7769 8.13237 26.8184 8.32757C26.86 8.52277 26.8616 8.72434 26.8233 8.9202L26.4899 11.1429" stroke="white" stroke-width="1.27" stroke-linecap="round" stroke-linejoin="round"/>
<path d="M12.8128 31.7107L12.6572 32.9702L25.838 35.0003C26.3049 31.6913 26.7189 28.7638 27.268 25.5019L29.4166 11.595C29.4549 11.3991 29.4532 11.1976 29.4117 11.0024C29.3702 10.8072 29.2897 10.6224 29.175 10.4591C29.0603 10.2957 28.9138 10.1573 28.7443 10.052C28.5747 9.94666 28.3857 9.87668 28.1885 9.84622C27.9912 9.81576 27.7899 9.82545 27.5965 9.87472C27.4031 9.92399 27.2217 10.0118 27.0631 10.1329C26.9044 10.254 26.7719 10.4059 26.6734 10.5795C26.575 10.7531 26.5126 10.9448 26.49 11.143L25.5861 16.9962" stroke="white" stroke-width="1.27" stroke-linecap="round" stroke-linejoin="round"/>
</svg>
