<svg width="440" height="72" viewBox="0 0 440 72" fill="none" xmlns="http://www.w3.org/2000/svg">
<path d="M227.832 2H287.46V30.2097C287.46 50.1224 275.224 63.2648 257.524 70.4112C240.687 64.6144 228.12 51.6048 227.987 28.9928L227.832 2Z" stroke="#2C2D2F" stroke-width="2.03552" stroke-miterlimit="2.61"/>
<path d="M261.816 24.7888C268.454 31.0503 271.839 38.3074 269.317 41.0066C266.794 43.7059 259.316 40.8518 252.634 34.6124C245.952 28.3731 242.612 21.1161 245.134 18.3947C247.656 15.6733 255.134 18.5495 261.816 24.7888ZM252.634 24.7888C245.997 31.0503 242.612 38.3074 245.134 41.0066C247.656 43.7059 255.134 40.8518 261.816 34.6124C268.498 28.3731 271.839 21.1161 269.317 18.3947C266.794 15.6733 259.316 18.5495 252.634 24.7888Z" stroke="#2C2D2F" stroke-width="1.77002" stroke-miterlimit="2.61"/>
<path fill-rule="evenodd" clip-rule="evenodd" d="M252.146 10.3418C252.584 10.3418 253.011 10.4716 253.375 10.7147C253.739 10.9578 254.023 11.3033 254.19 11.7076C254.358 12.1119 254.402 12.5568 254.316 12.986C254.231 13.4151 254.02 13.8094 253.711 14.1188C253.401 14.4282 253.007 14.639 252.578 14.7243C252.149 14.8097 251.704 14.7659 251.299 14.5984C250.895 14.431 250.55 14.1474 250.306 13.7835C250.063 13.4197 249.934 12.9919 249.934 12.5543C249.934 11.9675 250.167 11.4048 250.582 10.9898C250.997 10.5749 251.559 10.3418 252.146 10.3418Z" fill="#2C2D2F" stroke="#2C2D2F" stroke-width="0.50888" stroke-miterlimit="2.61"/>
<path fill-rule="evenodd" clip-rule="evenodd" d="M269.804 8.17285C270.279 8.17285 270.735 8.36167 271.071 8.69776C271.407 9.03385 271.596 9.48969 271.596 9.965C271.596 10.4403 271.407 10.8961 271.071 11.2322C270.735 11.5683 270.279 11.7571 269.804 11.7571C269.329 11.7571 268.873 11.5683 268.537 11.2322C268.201 10.8961 268.012 10.4403 268.012 9.965C268.012 9.48969 268.201 9.03385 268.537 8.69776C268.873 8.36167 269.329 8.17285 269.804 8.17285Z" fill="#2C2D2F" stroke="#2C2D2F" stroke-width="0.50888" stroke-miterlimit="2.61"/>
<path fill-rule="evenodd" clip-rule="evenodd" d="M275.934 12.4873C276.219 12.4873 276.497 12.5717 276.733 12.7297C276.97 12.8877 277.154 13.1123 277.263 13.3751C277.372 13.6379 277.4 13.927 277.345 14.206C277.289 14.485 277.152 14.7412 276.951 14.9424C276.75 15.1435 276.494 15.2805 276.215 15.336C275.936 15.3914 275.647 15.363 275.384 15.2541C275.121 15.1453 274.896 14.9609 274.738 14.7244C274.58 14.4879 274.496 14.2099 274.496 13.9254C274.496 13.544 274.648 13.1782 274.917 12.9085C275.187 12.6388 275.553 12.4873 275.934 12.4873Z" fill="#2C2D2F" stroke="#2C2D2F" stroke-width="0.50888" stroke-miterlimit="2.61"/>
<path fill-rule="evenodd" clip-rule="evenodd" d="M277.726 17.5324C278.087 17.528 278.44 17.6312 278.742 17.8289C279.044 18.0265 279.28 18.3097 279.42 18.6421C279.56 18.9745 279.598 19.3411 279.528 19.695C279.459 20.049 279.286 20.3743 279.031 20.6294C278.776 20.8844 278.45 21.0577 278.096 21.127C277.742 21.1963 277.376 21.1585 277.043 21.0184C276.711 20.8784 276.428 20.6424 276.23 20.3407C276.033 20.039 275.929 19.6852 275.934 19.3245C275.934 18.8492 276.123 18.3934 276.459 18.0573C276.795 17.7212 277.251 17.5324 277.726 17.5324Z" fill="#2C2D2F" stroke="#2C2D2F" stroke-width="0.50888" stroke-miterlimit="2.61"/>
<path fill-rule="evenodd" clip-rule="evenodd" d="M273.122 18.9702C273.316 18.9702 273.502 19.0471 273.639 19.1841C273.776 19.321 273.853 19.5067 273.853 19.7003C273.853 19.7952 273.834 19.8891 273.797 19.9765C273.76 20.0639 273.706 20.1429 273.637 20.209C273.569 20.275 273.489 20.3267 273.4 20.3609C273.312 20.3952 273.217 20.4113 273.122 20.4084C272.935 20.4084 272.755 20.3338 272.622 20.201C272.489 20.0682 272.414 19.8881 272.414 19.7003C272.411 19.6055 272.428 19.5111 272.462 19.4226C272.496 19.3341 272.548 19.2535 272.614 19.1853C272.68 19.1172 272.759 19.0631 272.846 19.0261C272.934 18.9892 273.028 18.9702 273.122 18.9702Z" fill="#2C2D2F" stroke="#2C2D2F" stroke-width="0.50888" stroke-miterlimit="2.61"/>
<path fill-rule="evenodd" clip-rule="evenodd" d="M273.41 23.3069C273.551 23.3039 273.691 23.3292 273.823 23.3813C273.954 23.4333 274.074 23.5111 274.175 23.61C274.276 23.7089 274.356 23.827 274.411 23.9573C274.466 24.0876 274.494 24.2275 274.494 24.3689C274.494 24.6623 274.377 24.9437 274.17 25.1511C273.962 25.3586 273.681 25.4751 273.388 25.4751C273.094 25.4751 272.813 25.3586 272.605 25.1511C272.398 24.9437 272.281 24.6623 272.281 24.3689C272.281 24.2275 272.309 24.0876 272.364 23.9573C272.419 23.827 272.499 23.7089 272.6 23.61C272.701 23.5111 272.821 23.4333 272.952 23.3813C273.084 23.3292 273.224 23.3039 273.365 23.3069H273.41Z" fill="#2C2D2F" stroke="#2C2D2F" stroke-width="0.50888" stroke-miterlimit="2.61"/>
<path fill-rule="evenodd" clip-rule="evenodd" d="M278.079 23.307C278.174 23.304 278.269 23.3201 278.357 23.3544C278.446 23.3886 278.526 23.4403 278.594 23.5064C278.663 23.5724 278.717 23.6515 278.754 23.7388C278.791 23.8262 278.81 23.9201 278.81 24.015C278.81 24.2086 278.733 24.3943 278.596 24.5313C278.459 24.6682 278.273 24.7451 278.079 24.7451C277.985 24.7452 277.891 24.7262 277.803 24.6892C277.716 24.6522 277.637 24.5981 277.571 24.53C277.505 24.4619 277.453 24.3812 277.419 24.2927C277.385 24.2043 277.368 24.1098 277.371 24.015C277.371 23.8272 277.446 23.6471 277.579 23.5144C277.712 23.3816 277.892 23.307 278.079 23.307Z" fill="#2C2D2F" stroke="#2C2D2F" stroke-width="0.50888" stroke-miterlimit="2.61"/>
<path fill-rule="evenodd" clip-rule="evenodd" d="M277.726 30.4967C278.087 30.4923 278.44 30.5956 278.742 30.7932C279.044 30.9909 279.28 31.274 279.42 31.6064C279.56 31.9388 279.598 32.3054 279.528 32.6594C279.459 33.0134 279.286 33.3387 279.031 33.5937C278.776 33.8488 278.45 34.022 278.096 34.0913C277.742 34.1606 277.376 34.1228 277.043 33.9828C276.711 33.8427 276.428 33.6068 276.23 33.305C276.033 33.0033 275.929 32.6495 275.934 32.2889C275.934 31.8136 276.123 31.3577 276.459 31.0216C276.795 30.6855 277.251 30.4967 277.726 30.4967Z" fill="#2C2D2F" stroke="#2C2D2F" stroke-width="0.50888" stroke-miterlimit="2.61"/>
<path fill-rule="evenodd" clip-rule="evenodd" d="M273.766 30.4966C274.051 30.4966 274.329 30.5809 274.565 30.739C274.802 30.897 274.986 31.1216 275.095 31.3844C275.204 31.6472 275.232 31.9363 275.177 32.2153C275.121 32.4943 274.984 32.7505 274.783 32.9516C274.582 33.1528 274.326 33.2897 274.047 33.3452C273.768 33.4007 273.479 33.3722 273.216 33.2634C272.953 33.1545 272.729 32.9702 272.57 32.7337C272.412 32.4972 272.328 32.2192 272.328 31.9347C272.328 31.5533 272.48 31.1875 272.749 30.9178C273.019 30.6481 273.385 30.4966 273.766 30.4966Z" fill="#2C2D2F" stroke="#2C2D2F" stroke-width="0.50888" stroke-miterlimit="2.61"/>
<path fill-rule="evenodd" clip-rule="evenodd" d="M272.682 34.8115C272.896 34.8115 273.106 34.8751 273.284 34.9942C273.462 35.1134 273.601 35.2827 273.683 35.4808C273.765 35.6789 273.787 35.8969 273.745 36.1072C273.703 36.3175 273.6 36.5106 273.448 36.6623C273.297 36.8139 273.104 36.9171 272.893 36.959C272.683 37.0008 272.465 36.9793 272.267 36.8973C272.069 36.8152 271.899 36.6763 271.78 36.498C271.661 36.3197 271.598 36.1101 271.598 35.8957C271.598 35.6081 271.712 35.3324 271.915 35.1291C272.119 34.9257 272.394 34.8115 272.682 34.8115Z" fill="#2C2D2F" stroke="#2C2D2F" stroke-width="0.50888" stroke-miterlimit="2.61"/>
<path fill-rule="evenodd" clip-rule="evenodd" d="M275.933 37.71C275.74 37.71 275.554 37.633 275.417 37.4961C275.28 37.3592 275.203 37.1735 275.203 36.9798C275.203 36.885 275.222 36.7911 275.259 36.7037C275.296 36.6163 275.35 36.5373 275.418 36.4712C275.486 36.4052 275.567 36.3535 275.656 36.3192C275.744 36.285 275.838 36.2689 275.933 36.2718C276.121 36.2718 276.301 36.3464 276.434 36.4792C276.567 36.612 276.641 36.7921 276.641 36.9798C276.644 37.0747 276.628 37.1691 276.594 37.2576C276.56 37.3461 276.508 37.4267 276.442 37.4948C276.376 37.5629 276.297 37.6171 276.209 37.654C276.122 37.691 276.028 37.71 275.933 37.71Z" fill="#2C2D2F" stroke="#2C2D2F" stroke-width="0.50888" stroke-miterlimit="2.61"/>
<path fill-rule="evenodd" clip-rule="evenodd" d="M276.641 40.5864C276.926 40.5864 277.204 40.6708 277.44 40.8288C277.677 40.9868 277.861 41.2114 277.97 41.4742C278.079 41.737 278.107 42.0262 278.052 42.3051C277.996 42.5841 277.859 42.8404 277.658 43.0415C277.457 43.2426 277.201 43.3796 276.922 43.4351C276.643 43.4906 276.354 43.4621 276.091 43.3532C275.828 43.2444 275.604 43.0601 275.445 42.8236C275.287 42.5871 275.203 42.309 275.203 42.0246C275.203 41.6431 275.355 41.2773 275.624 41.0076C275.894 40.7379 276.26 40.5864 276.641 40.5864Z" fill="#2C2D2F" stroke="#2C2D2F" stroke-width="0.50888" stroke-miterlimit="2.61"/>
<path fill-rule="evenodd" clip-rule="evenodd" d="M273.412 44.9009C273.627 44.9009 273.836 44.9645 274.015 45.0836C274.193 45.2027 274.332 45.372 274.414 45.5701C274.496 45.7682 274.517 45.9862 274.476 46.1965C274.434 46.4068 274.33 46.6 274.179 46.7516C274.027 46.9032 273.834 47.0065 273.624 47.0483C273.413 47.0902 273.195 47.0687 272.997 46.9866C272.799 46.9046 272.63 46.7656 272.511 46.5873C272.392 46.409 272.328 46.1994 272.328 45.985C272.328 45.6975 272.442 45.4217 272.646 45.2184C272.849 45.0151 273.125 44.9009 273.412 44.9009Z" fill="#2C2D2F" stroke="#2C2D2F" stroke-width="0.50888" stroke-miterlimit="2.61"/>
<path fill-rule="evenodd" clip-rule="evenodd" d="M267.636 47.7773C268.134 47.7773 268.622 47.9253 269.037 48.2024C269.452 48.4796 269.775 48.8735 269.966 49.3344C270.157 49.7953 270.207 50.3024 270.109 50.7917C270.012 51.281 269.772 51.7304 269.419 52.0831C269.066 52.4359 268.617 52.6761 268.128 52.7734C267.638 52.8708 267.131 52.8208 266.67 52.6299C266.209 52.439 265.816 52.1157 265.538 51.7009C265.261 51.2861 265.113 50.7985 265.113 50.2996C265.113 49.6307 265.379 48.9891 265.852 48.5161C266.325 48.0431 266.967 47.7773 267.636 47.7773Z" fill="#2C2D2F" stroke="#2C2D2F" stroke-width="0.50888" stroke-miterlimit="2.61"/>
<path fill-rule="evenodd" clip-rule="evenodd" d="M266.928 44.1924C267.142 44.1924 267.352 44.256 267.53 44.3751C267.708 44.4942 267.847 44.6635 267.93 44.8616C268.012 45.0597 268.033 45.2777 267.991 45.488C267.949 45.6983 267.846 45.8915 267.694 46.0431C267.543 46.1947 267.35 46.298 267.139 46.3398C266.929 46.3817 266.711 46.3602 266.513 46.2781C266.315 46.1961 266.146 46.0571 266.026 45.8788C265.907 45.7005 265.844 45.4909 265.844 45.2765C265.844 44.989 265.958 44.7132 266.161 44.5099C266.365 44.3066 266.64 44.1924 266.928 44.1924Z" fill="#2C2D2F" stroke="#2C2D2F" stroke-width="0.50888" stroke-miterlimit="2.61"/>
<path fill-rule="evenodd" clip-rule="evenodd" d="M261.885 50.6753C262.099 50.6753 262.309 50.7389 262.487 50.858C262.666 50.9771 262.804 51.1465 262.887 51.3446C262.969 51.5427 262.99 51.7606 262.948 51.9709C262.906 52.1812 262.803 52.3744 262.652 52.526C262.5 52.6776 262.307 52.7809 262.096 52.8227C261.886 52.8646 261.668 52.8431 261.47 52.761C261.272 52.679 261.103 52.54 260.983 52.3617C260.864 52.1835 260.801 51.9739 260.801 51.7594C260.801 51.4719 260.915 51.1961 261.118 50.9928C261.322 50.7895 261.597 50.6753 261.885 50.6753Z" fill="#2C2D2F" stroke="#2C2D2F" stroke-width="0.50888" stroke-miterlimit="2.61"/>
<path fill-rule="evenodd" clip-rule="evenodd" d="M257.192 47.0693C257.476 47.0693 257.755 47.1537 257.991 47.3117C258.228 47.4697 258.412 47.6943 258.521 47.9571C258.63 48.2199 258.658 48.5091 258.603 48.788C258.547 49.067 258.41 49.3233 258.209 49.5244C258.008 49.7255 257.752 49.8625 257.473 49.918C257.194 49.9735 256.904 49.945 256.642 49.8361C256.379 49.7273 256.154 49.543 255.996 49.3065C255.838 49.07 255.754 48.7919 255.754 48.5075C255.754 48.1261 255.905 47.7603 256.175 47.4906C256.445 47.2209 256.811 47.0693 257.192 47.0693Z" fill="#2C2D2F" stroke="#2C2D2F" stroke-width="0.50888" stroke-miterlimit="2.61"/>
<path fill-rule="evenodd" clip-rule="evenodd" d="M261.154 43.4629C261.369 43.4629 261.578 43.5265 261.757 43.6456C261.935 43.7647 262.074 43.934 262.156 44.1321C262.238 44.3302 262.26 44.5482 262.218 44.7585C262.176 44.9688 262.073 45.162 261.921 45.3136C261.769 45.4652 261.576 45.5685 261.366 45.6103C261.156 45.6522 260.938 45.6307 260.74 45.5486C260.541 45.4666 260.372 45.3276 260.253 45.1493C260.134 44.9711 260.07 44.7614 260.07 44.547C260.07 44.2595 260.185 43.9837 260.388 43.7804C260.591 43.5771 260.867 43.4629 261.154 43.4629Z" fill="#2C2D2F" stroke="#2C2D2F" stroke-width="0.50888" stroke-miterlimit="2.61"/>
<path fill-rule="evenodd" clip-rule="evenodd" d="M257.193 42.7547C257.288 42.7518 257.382 42.7679 257.47 42.8021C257.559 42.8364 257.64 42.8881 257.708 42.9541C257.776 43.0202 257.83 43.0992 257.867 43.1866C257.904 43.274 257.923 43.3679 257.923 43.4628C257.923 43.6564 257.846 43.8421 257.709 43.979C257.572 44.116 257.386 44.1929 257.193 44.1929C257.098 44.1929 257.004 44.1739 256.917 44.137C256.829 44.1 256.75 44.0459 256.684 43.9777C256.618 43.9096 256.566 43.829 256.532 43.7405C256.498 43.652 256.482 43.5576 256.485 43.4628C256.485 43.275 256.559 43.0949 256.692 42.9621C256.825 42.8293 257.005 42.7547 257.193 42.7547Z" fill="#2C2D2F" stroke="#2C2D2F" stroke-width="0.50888" stroke-miterlimit="2.61"/>
<path fill-rule="evenodd" clip-rule="evenodd" d="M252.879 43.4629C252.973 43.4628 253.067 43.4819 253.155 43.5188C253.242 43.5558 253.321 43.6099 253.387 43.678C253.453 43.7461 253.505 43.8268 253.539 43.9153C253.573 44.0037 253.59 44.0982 253.587 44.193C253.587 44.3808 253.512 44.5609 253.379 44.6937C253.246 44.8264 253.066 44.901 252.879 44.901C252.784 44.904 252.689 44.8879 252.601 44.8536C252.512 44.8194 252.432 44.7677 252.364 44.7016C252.295 44.6356 252.241 44.5565 252.204 44.4692C252.167 44.3818 252.148 44.2879 252.148 44.193C252.148 43.9994 252.225 43.8137 252.362 43.6767C252.499 43.5398 252.685 43.4629 252.879 43.4629Z" fill="#2C2D2F" stroke="#2C2D2F" stroke-width="0.50888" stroke-miterlimit="2.61"/>
<path fill-rule="evenodd" clip-rule="evenodd" d="M251.792 47.0693C252.267 47.0693 252.723 47.2582 253.059 47.5942C253.395 47.9303 253.584 48.3862 253.584 48.8615C253.584 49.3368 253.395 49.7926 253.059 50.1287C252.723 50.4648 252.267 50.6536 251.792 50.6536C251.317 50.6536 250.861 50.4648 250.525 50.1287C250.189 49.7926 250 49.3368 250 48.8615C250 48.3862 250.189 47.9303 250.525 47.5942C250.861 47.2582 251.317 47.0693 251.792 47.0693Z" fill="#2C2D2F" stroke="#2C2D2F" stroke-width="0.50888" stroke-miterlimit="2.61"/>
<path fill-rule="evenodd" clip-rule="evenodd" d="M257.192 53.5513C257.476 53.5513 257.755 53.6356 257.991 53.7936C258.228 53.9517 258.412 54.1763 258.521 54.4391C258.63 54.7018 258.658 54.991 258.603 55.27C258.547 55.5489 258.41 55.8052 258.209 56.0063C258.008 56.2075 257.752 56.3444 257.473 56.3999C257.194 56.4554 256.904 56.4269 256.642 56.3181C256.379 56.2092 256.154 56.0249 255.996 55.7884C255.838 55.5519 255.754 55.2738 255.754 54.9894C255.754 54.608 255.905 54.2422 256.175 53.9725C256.445 53.7028 256.811 53.5513 257.192 53.5513Z" fill="#2C2D2F" stroke="#2C2D2F" stroke-width="0.50888" stroke-miterlimit="2.61"/>
<path fill-rule="evenodd" clip-rule="evenodd" d="M252.88 52.8218C253.261 52.8218 253.627 52.9733 253.896 53.243C254.166 53.5127 254.318 53.8785 254.318 54.2599C254.318 54.6413 254.166 55.0071 253.896 55.2768C253.627 55.5465 253.261 55.6981 252.88 55.6981C252.498 55.6981 252.132 55.5465 251.863 55.2768C251.593 55.0071 251.441 54.6413 251.441 54.2599C251.441 54.0711 251.479 53.884 251.551 53.7096C251.623 53.5351 251.729 53.3765 251.863 53.243C251.996 53.1095 252.155 53.0035 252.329 52.9312C252.504 52.859 252.691 52.8218 252.88 52.8218Z" fill="#2C2D2F" stroke="#2C2D2F" stroke-width="0.50888" stroke-miterlimit="2.61"/>
<path fill-rule="evenodd" clip-rule="evenodd" d="M247.478 51.3833C247.956 51.3891 248.411 51.5828 248.747 51.9224C249.082 52.2621 249.271 52.7202 249.27 53.1976C249.27 53.6729 249.082 54.1287 248.746 54.4648C248.409 54.8009 247.954 54.9897 247.478 54.9897C247.001 54.9897 246.543 54.8016 246.203 54.4662C245.864 54.1307 245.67 53.6749 245.664 53.1976C245.664 52.7164 245.855 52.2549 246.195 51.9147C246.536 51.5744 246.997 51.3833 247.478 51.3833Z" fill="#2C2D2F" stroke="#2C2D2F" stroke-width="0.50888" stroke-miterlimit="2.61"/>
<path fill-rule="evenodd" clip-rule="evenodd" d="M245.311 48.5073C245.525 48.5073 245.735 48.5709 245.913 48.69C246.091 48.8092 246.23 48.9785 246.312 49.1766C246.394 49.3747 246.416 49.5927 246.374 49.803C246.332 50.0133 246.229 50.2064 246.077 50.3581C245.926 50.5097 245.733 50.6129 245.522 50.6548C245.312 50.6966 245.094 50.6751 244.896 50.5931C244.698 50.511 244.528 50.3721 244.409 50.1938C244.29 50.0155 244.227 49.8059 244.227 49.5915C244.227 49.3039 244.341 49.0282 244.544 48.8249C244.747 48.6215 245.023 48.5073 245.311 48.5073Z" fill="#2C2D2F" stroke="#2C2D2F" stroke-width="0.50888" stroke-miterlimit="2.61"/>
<path fill-rule="evenodd" clip-rule="evenodd" d="M241.706 44.1924C242.182 44.1924 242.637 44.3812 242.973 44.7173C243.31 45.0534 243.498 45.5092 243.498 45.9845C243.498 46.4598 243.31 46.9157 242.973 47.2518C242.637 47.5879 242.182 47.7767 241.706 47.7767C241.231 47.7767 240.775 47.5879 240.439 47.2518C240.103 46.9157 239.914 46.4598 239.914 45.9845C239.914 45.5092 240.103 45.0534 240.439 44.7173C240.775 44.3812 241.231 44.1924 241.706 44.1924Z" fill="#2C2D2F" stroke="#2C2D2F" stroke-width="0.50888" stroke-miterlimit="2.61"/>
<path fill-rule="evenodd" clip-rule="evenodd" d="M242.149 35.5425C242.434 35.5425 242.712 35.6268 242.948 35.7849C243.185 35.9429 243.369 36.1675 243.478 36.4303C243.587 36.6931 243.615 36.9822 243.56 37.2612C243.504 37.5402 243.367 37.7964 243.166 37.9975C242.965 38.1987 242.709 38.3356 242.43 38.3911C242.151 38.4466 241.862 38.4181 241.599 38.3093C241.336 38.2004 241.111 38.0161 240.953 37.7796C240.795 37.5431 240.711 37.2651 240.711 36.9806C240.717 36.601 240.87 36.2385 241.138 35.97C241.407 35.7015 241.769 35.5482 242.149 35.5425Z" fill="#2C2D2F" stroke="#2C2D2F" stroke-width="0.50888" stroke-miterlimit="2.61"/>
<path fill-rule="evenodd" clip-rule="evenodd" d="M238.097 31.2271C238.572 31.2271 239.028 31.4159 239.364 31.752C239.7 32.088 239.889 32.5439 239.889 33.0192C239.889 33.4945 239.7 33.9503 239.364 34.2864C239.028 34.6225 238.572 34.8113 238.097 34.8113C237.622 34.8113 237.166 34.6225 236.83 34.2864C236.494 33.9503 236.305 33.4945 236.305 33.0192C236.305 32.5439 236.494 32.088 236.83 31.752C237.166 31.4159 237.622 31.2271 238.097 31.2271Z" fill="#2C2D2F" stroke="#2C2D2F" stroke-width="0.50888" stroke-miterlimit="2.61"/>
<path fill-rule="evenodd" clip-rule="evenodd" d="M243.144 28.3291C243.625 28.3291 244.086 28.5202 244.427 28.8605C244.767 29.2007 244.958 29.6622 244.958 30.1434C244.952 30.6207 244.758 31.0765 244.419 31.412C244.079 31.7474 243.621 31.9355 243.144 31.9355C242.668 31.9355 242.213 31.7467 241.876 31.4106C241.54 31.0745 241.352 30.6187 241.352 30.1434C241.352 29.666 241.54 29.2079 241.875 28.8682C242.211 28.5286 242.666 28.3349 243.144 28.3291Z" fill="#2C2D2F" stroke="#2C2D2F" stroke-width="0.50888" stroke-miterlimit="2.61"/>
<path fill-rule="evenodd" clip-rule="evenodd" d="M239.559 22.5763C240.034 22.5763 240.49 22.7651 240.826 23.1012C241.162 23.4373 241.351 23.8931 241.351 24.3684C241.355 24.7291 241.252 25.0829 241.055 25.3846C240.857 25.6864 240.574 25.9223 240.241 26.0624C239.909 26.2024 239.542 26.2402 239.188 26.1709C238.834 26.1016 238.509 25.9284 238.254 25.6733C237.999 25.4183 237.826 25.093 237.756 24.739C237.687 24.385 237.725 24.0184 237.865 23.686C238.005 23.3536 238.241 23.0705 238.543 22.8728C238.844 22.6752 239.198 22.5719 239.559 22.5763Z" fill="#2C2D2F" stroke="#2C2D2F" stroke-width="0.50888" stroke-miterlimit="2.61"/>
<path fill-rule="evenodd" clip-rule="evenodd" d="M234.868 18.2622C235.152 18.2622 235.43 18.3466 235.667 18.5046C235.903 18.6626 236.088 18.8872 236.197 19.15C236.305 19.4128 236.334 19.7019 236.278 19.9809C236.223 20.2599 236.086 20.5161 235.885 20.7173C235.684 20.9184 235.427 21.0554 235.148 21.1109C234.869 21.1663 234.58 21.1379 234.317 21.029C234.055 20.9202 233.83 20.7358 233.672 20.4993C233.514 20.2628 233.43 19.9848 233.43 19.7003C233.43 19.5115 233.467 19.3245 233.539 19.15C233.611 18.9755 233.717 18.817 233.851 18.6834C233.984 18.5499 234.143 18.444 234.317 18.3717C234.492 18.2994 234.679 18.2622 234.868 18.2622Z" fill="#2C2D2F" stroke="#2C2D2F" stroke-width="0.50888" stroke-miterlimit="2.61"/>
<path fill-rule="evenodd" clip-rule="evenodd" d="M235.222 13.2168C235.699 13.2168 236.157 13.4049 236.497 13.7403C236.837 14.0758 237.03 14.5316 237.036 15.0089C237.036 15.2472 236.989 15.4831 236.898 15.7032C236.807 15.9233 236.673 16.1234 236.505 16.2918C236.336 16.4603 236.136 16.5939 235.916 16.6851C235.696 16.7763 235.46 16.8232 235.222 16.8232C234.745 16.8174 234.289 16.6237 233.953 16.2841C233.618 15.9444 233.43 15.4863 233.43 15.0089C233.43 14.5336 233.619 14.0778 233.955 13.7417C234.291 13.4056 234.747 13.2168 235.222 13.2168Z" fill="#2C2D2F" stroke="#2C2D2F" stroke-width="0.50888" stroke-miterlimit="2.61"/>
<path fill-rule="evenodd" clip-rule="evenodd" d="M239.934 11.7788C240.219 11.7788 240.497 11.8632 240.733 12.0212C240.97 12.1792 241.154 12.4038 241.263 12.6666C241.372 12.9294 241.4 13.2185 241.345 13.4975C241.289 13.7765 241.152 14.0327 240.951 14.2339C240.75 14.435 240.494 14.572 240.215 14.6275C239.936 14.6829 239.647 14.6545 239.384 14.5456C239.121 14.4368 238.896 14.2524 238.738 14.0159C238.58 13.7794 238.496 13.5014 238.496 13.2169C238.496 12.8355 238.648 12.4697 238.917 12.2C239.187 11.9303 239.553 11.7788 239.934 11.7788Z" fill="#2C2D2F" stroke="#2C2D2F" stroke-width="0.50888" stroke-miterlimit="2.61"/>
<path fill-rule="evenodd" clip-rule="evenodd" d="M245.312 11.049C245.672 11.0446 246.026 11.1478 246.328 11.3455C246.63 11.5431 246.866 11.8263 247.006 12.1587C247.146 12.4911 247.184 12.8577 247.114 13.2116C247.045 13.5656 246.872 13.8909 246.617 14.146C246.362 14.401 246.036 14.5743 245.682 14.6436C245.328 14.7129 244.962 14.6751 244.629 14.535C244.297 14.395 244.014 14.159 243.816 13.8573C243.619 13.5556 243.515 13.2018 243.52 12.8411C243.52 12.3658 243.708 11.91 244.045 11.5739C244.381 11.2378 244.836 11.049 245.312 11.049Z" fill="#2C2D2F" stroke="#2C2D2F" stroke-width="0.50888" stroke-miterlimit="2.61"/>
<path fill-rule="evenodd" clip-rule="evenodd" d="M265.843 21.8467C266.037 21.8467 266.223 21.9236 266.36 22.0605C266.497 22.1975 266.574 22.3832 266.574 22.5768C266.574 22.7705 266.497 22.9562 266.36 23.0931C266.223 23.23 266.037 23.3069 265.843 23.3069C265.65 23.3069 265.464 23.23 265.327 23.0931C265.19 22.9562 265.113 22.7705 265.113 22.5768C265.113 22.3832 265.19 22.1975 265.327 22.0605C265.464 21.9236 265.65 21.8467 265.843 21.8467Z" fill="#2C2D2F" stroke="#2C2D2F" stroke-width="0.50888" stroke-miterlimit="2.61"/>
<path fill-rule="evenodd" clip-rule="evenodd" d="M261.154 27.9751C261.369 27.9751 261.578 28.0387 261.757 28.1578C261.935 28.2769 262.074 28.4463 262.156 28.6444C262.238 28.8425 262.26 29.0604 262.218 29.2707C262.176 29.481 262.073 29.6742 261.921 29.8258C261.769 29.9775 261.576 30.0807 261.366 30.1225C261.156 30.1644 260.938 30.1429 260.74 30.0608C260.541 29.9788 260.372 29.8398 260.253 29.6615C260.134 29.4833 260.07 29.2737 260.07 29.0592C260.07 28.7717 260.185 28.4959 260.388 28.2926C260.591 28.0893 260.867 27.9751 261.154 27.9751Z" fill="#2C2D2F" stroke="#2C2D2F" stroke-width="0.50888" stroke-miterlimit="2.61"/>
<path fill-rule="evenodd" clip-rule="evenodd" d="M249.339 35.7627C249.627 35.7627 249.903 35.8769 250.106 36.0802C250.309 36.2835 250.423 36.5593 250.423 36.8468C250.423 37.1402 250.307 37.4216 250.099 37.6291C249.892 37.8365 249.611 37.9531 249.317 37.9531C249.024 37.9531 248.742 37.8365 248.535 37.6291C248.327 37.4216 248.211 37.1402 248.211 36.8468C248.211 36.5593 248.325 36.2835 248.528 36.0802C248.732 35.8769 249.008 35.7627 249.295 35.7627H249.339Z" fill="#2C2D2F" stroke="#2C2D2F" stroke-width="0.50888" stroke-miterlimit="2.61"/>
<path fill-rule="evenodd" clip-rule="evenodd" d="M252.678 26.6919C252.892 26.6919 253.102 26.7555 253.28 26.8746C253.458 26.9937 253.597 27.1631 253.68 27.3612C253.762 27.5593 253.783 27.7772 253.741 27.9875C253.699 28.1978 253.596 28.391 253.444 28.5426C253.293 28.6942 253.1 28.7975 252.889 28.8393C252.679 28.8812 252.461 28.8597 252.263 28.7776C252.065 28.6956 251.896 28.5566 251.776 28.3783C251.657 28.2001 251.594 27.9905 251.594 27.776C251.594 27.4885 251.708 27.2127 251.911 27.0094C252.115 26.8061 252.39 26.6919 252.678 26.6919Z" fill="#2C2D2F" stroke="#2C2D2F" stroke-width="0.50888" stroke-miterlimit="2.61"/>
<path fill-rule="evenodd" clip-rule="evenodd" d="M263.673 35.5415C263.578 35.5416 263.484 35.5225 263.397 35.4856C263.31 35.4486 263.231 35.3945 263.165 35.3264C263.099 35.2583 263.047 35.1776 263.013 35.0891C262.978 35.0007 262.962 34.9062 262.965 34.8114C262.965 34.6236 263.04 34.4435 263.173 34.3107C263.305 34.178 263.485 34.1034 263.673 34.1034C263.768 34.1004 263.862 34.1165 263.951 34.1508C264.039 34.185 264.12 34.2367 264.188 34.3028C264.256 34.3688 264.31 34.4479 264.347 34.5352C264.384 34.6226 264.403 34.7165 264.403 34.8114C264.403 35.005 264.326 35.1907 264.189 35.3277C264.053 35.4646 263.867 35.5415 263.673 35.5415Z" fill="#2C2D2F" stroke="#2C2D2F" stroke-width="0.50888" stroke-miterlimit="2.61"/>
<path fill-rule="evenodd" clip-rule="evenodd" d="M256.484 34.8115C256.678 34.8115 256.863 34.8884 257 35.0254C257.137 35.1623 257.214 35.348 257.214 35.5417C257.214 35.7353 257.137 35.921 257 36.0579C256.863 36.1949 256.678 36.2718 256.484 36.2718C256.29 36.2718 256.105 36.1949 255.968 36.0579C255.831 35.921 255.754 35.7353 255.754 35.5417C255.754 35.348 255.831 35.1623 255.968 35.0254C256.105 34.8884 256.29 34.8115 256.484 34.8115Z" fill="#2C2D2F" stroke="#2C2D2F" stroke-width="0.50888" stroke-miterlimit="2.61"/>
<path fill-rule="evenodd" clip-rule="evenodd" d="M250 21.1385C250.187 21.1385 250.368 21.2131 250.5 21.3459C250.633 21.4787 250.708 21.6588 250.708 21.8465C250.711 21.9414 250.695 22.0358 250.66 22.1243C250.626 22.2127 250.574 22.2934 250.508 22.3615C250.442 22.4296 250.363 22.4838 250.276 22.5207C250.188 22.5577 250.095 22.5767 250 22.5767C249.806 22.5767 249.62 22.4997 249.483 22.3628C249.346 22.2259 249.27 22.0402 249.27 21.8465C249.269 21.7517 249.288 21.6578 249.325 21.5704C249.362 21.483 249.417 21.404 249.485 21.3379C249.553 21.2719 249.633 21.2202 249.722 21.1859C249.81 21.1517 249.905 21.1356 250 21.1385Z" fill="#2C2D2F" stroke="#2C2D2F" stroke-width="0.50888" stroke-miterlimit="2.61"/>
<path fill-rule="evenodd" clip-rule="evenodd" d="M257.922 17.5322C258.016 17.5322 258.11 17.5512 258.198 17.5882C258.285 17.6251 258.364 17.6793 258.43 17.7474C258.496 17.8155 258.548 17.8961 258.582 17.9846C258.616 18.0731 258.632 18.1675 258.63 18.2624C258.63 18.4501 258.555 18.6302 258.422 18.763C258.289 18.8958 258.109 18.9704 257.922 18.9704C257.827 18.9733 257.732 18.9572 257.644 18.923C257.555 18.8887 257.475 18.837 257.407 18.771C257.338 18.7049 257.284 18.6259 257.247 18.5385C257.21 18.4511 257.191 18.3572 257.191 18.2624C257.191 18.0687 257.268 17.883 257.405 17.7461C257.542 17.6092 257.728 17.5322 257.922 17.5322Z" fill="#2C2D2F" stroke="#2C2D2F" stroke-width="0.50888" stroke-miterlimit="2.61"/>
<path d="M378.395 2H438V30.2097C438 50.1224 425.787 63.2648 408.087 70.4112C391.249 64.6144 378.66 51.6048 378.549 28.9928L378.395 2Z" stroke="#2C2D2F" stroke-width="2.03552" stroke-miterlimit="2.61"/>
<path d="M392.645 55.1226H422.89" stroke="#2C2D2F" stroke-width="3.54004" stroke-miterlimit="2.61"/>
<path d="M409.768 13.9258L401.117 34.812L419.127 26.1832L406.715 55.123" stroke="#2C2D2F" stroke-width="2.5444" stroke-miterlimit="2.61"/>
<path fill-rule="evenodd" clip-rule="evenodd" d="M409.038 9.41211C409.914 9.41211 410.769 9.67163 411.497 10.1579C412.224 10.6441 412.792 11.3352 413.127 12.1438C413.461 12.9523 413.549 13.8421 413.378 14.7004C413.208 15.5588 412.786 16.3473 412.167 16.9661C411.548 17.585 410.76 18.0064 409.902 18.1772C409.043 18.3479 408.154 18.2603 407.345 17.9254C406.536 17.5904 405.845 17.0233 405.359 16.2956C404.873 15.5679 404.613 14.7123 404.613 13.8372C404.613 12.6636 405.08 11.538 405.909 10.7082C406.739 9.87832 407.865 9.41211 409.038 9.41211Z" fill="#2C2D2F"/>
<path d="M152.562 2H212.168V30.2097C212.168 50.1224 199.955 63.2648 182.255 70.4112C165.417 64.6144 152.828 51.6048 152.717 28.9928L152.562 2Z" stroke="#2C2D2F" stroke-width="2.03552" stroke-miterlimit="2.61"/>
<path d="M155.949 46.7593H208.718" stroke="#2C2D2F" stroke-width="3.05328" stroke-miterlimit="2.61"/>
<path fill-rule="evenodd" clip-rule="evenodd" d="M182.92 23.6162C183.357 23.6162 183.785 23.746 184.149 23.9891C184.513 24.2322 184.796 24.5778 184.964 24.982C185.131 25.3863 185.175 25.8312 185.09 26.2604C185.004 26.6896 184.793 27.0838 184.484 27.3932C184.175 27.7027 183.78 27.9134 183.351 27.9987C182.922 28.0841 182.477 28.0403 182.073 27.8728C181.669 27.7054 181.323 27.4218 181.08 27.0579C180.837 26.6941 180.707 26.2663 180.707 25.8287C180.707 25.2419 180.94 24.6792 181.355 24.2642C181.77 23.8493 182.333 23.6162 182.92 23.6162Z" fill="#2C2D2F" stroke="#2C2D2F" stroke-width="0.50888" stroke-miterlimit="2.61"/>
<path fill-rule="evenodd" clip-rule="evenodd" d="M182.92 32.3564C183.357 32.3564 183.785 32.4862 184.149 32.7293C184.513 32.9724 184.796 33.318 184.964 33.7223C185.131 34.1266 185.175 34.5714 185.09 35.0006C185.004 35.4298 184.793 35.824 184.484 36.1335C184.175 36.4429 183.78 36.6536 183.351 36.739C182.922 36.8243 182.477 36.7805 182.073 36.6131C181.669 36.4456 181.323 36.162 181.08 35.7982C180.837 35.4343 180.707 35.0066 180.707 34.569C180.707 33.9822 180.94 33.4194 181.355 33.0045C181.77 32.5895 182.333 32.3564 182.92 32.3564Z" fill="#2C2D2F" stroke="#2C2D2F" stroke-width="0.50888" stroke-miterlimit="2.61"/>
<path fill-rule="evenodd" clip-rule="evenodd" d="M184.997 43.4632C188.154 41.3979 191.54 39.7051 195.086 38.4186C198.272 37.4673 201.304 37.0911 201.569 39.1488C201.901 41.7153 200.131 42.0251 197.144 40.5869C193.449 38.7284 188.98 41.8702 184.887 43.4632H184.997Z" fill="#2C2D2F"/>
<path fill-rule="evenodd" clip-rule="evenodd" d="M180.549 43.4632C177.392 41.3979 174.006 39.7051 170.46 38.4186C167.274 37.4673 164.243 37.0911 163.977 39.1488C163.645 41.7153 165.415 42.0251 168.402 40.5869C172.119 38.7284 176.589 41.8702 180.66 43.4632H180.549Z" fill="#2C2D2F"/>
<path fill-rule="evenodd" clip-rule="evenodd" d="M184.996 42.0242C186.515 39.6962 188.297 37.5507 190.306 35.63C192.165 34.037 194.112 32.8865 194.908 34.1697C195.882 35.8291 194.775 36.5593 192.408 36.3823C189.355 36.2495 187.275 39.6789 184.996 41.98V42.0242Z" fill="#2C2D2F"/>
<path fill-rule="evenodd" clip-rule="evenodd" d="M180.662 42.0242C179.158 39.6915 177.383 37.5452 175.374 35.63C173.493 34.037 171.568 32.8865 170.772 34.1697C169.776 35.8291 170.882 36.5593 173.272 36.3823C176.303 36.2495 178.405 39.6789 180.662 41.98V42.0242Z" fill="#2C2D2F"/>
<path d="M186.457 6.73486C186.125 9.30139 187.895 10.1643 192.939 9.61114L205.905 8.173C211.171 7.61987 208.958 13.7486 206.613 18.9701" stroke="#2C2D2F" stroke-width="1.52664" stroke-miterlimit="2.61"/>
<path fill-rule="evenodd" clip-rule="evenodd" d="M182.123 19.6995C182.105 19.1609 182.197 18.6242 182.396 18.123C182.594 17.6219 182.894 17.167 183.276 16.7869C183.658 16.4069 184.114 16.1098 184.617 15.9143C185.119 15.7187 185.656 15.629 186.194 15.6506H208.32L204.138 27.9522C202.501 32.7534 199.492 31.1383 196.549 28.262L185.995 18.018C184.823 17.1994 183.23 18.4605 182.123 19.6995Z" fill="#2C2D2F" stroke="#2C2D2F" stroke-width="0.50888" stroke-miterlimit="2.61"/>
<path d="M2 2H61.7381V30.2097C61.7381 50.1224 49.5029 63.2648 31.8027 70.4112C14.8769 64.6144 2.28763 51.6048 2.15488 28.9928L2 2Z" stroke="#2C2D2F" stroke-width="2.03552" stroke-miterlimit="2.61"/>
<path d="M21.8477 26.1162C23.6738 27.1041 25.2019 28.5633 26.2727 30.3421V41.5817L21.1175 54.702C20.8115 55.2974 20.6259 55.9474 20.5715 56.6147C20.5171 57.282 20.5949 57.9534 20.8004 58.5906C21.006 59.2277 21.3352 59.8181 21.7693 60.3277C22.2034 60.8374 22.7338 61.2565 23.3301 61.5608H38.3531C41.2515 60.5873 42.3577 57.9987 40.9417 54.4808L35.9193 41.803V30.3864C37.0233 28.8499 38.4223 27.5487 40.0346 26.5587" stroke="#2C2D2F" stroke-width="1.52664" stroke-miterlimit="2.61"/>
<path fill-rule="evenodd" clip-rule="evenodd" d="M35.8754 40.3428H26.2731L20.8967 55.1667C20.445 56.3014 20.4204 57.5613 20.8273 58.7128C21.2342 59.8643 22.0449 60.8291 23.1092 61.4281L38.3092 61.5609C39.4332 61.2457 40.3871 60.4991 40.9631 59.4838C41.5391 58.4685 41.6906 57.2667 41.3846 56.1402L35.8754 40.3428Z" fill="#2C2D2F" stroke="#2C2D2F" stroke-width="0.50888" stroke-miterlimit="2.61"/>
<path d="M57.048 26.1607C56.0222 26.8011 54.8266 27.1164 53.6184 27.065C52.4101 27.0137 51.2456 26.5982 50.2777 25.8731C49.0182 24.8578 47.4421 24.3171 45.8246 24.3454C44.2071 24.3737 42.6508 24.9692 41.4276 26.028M41.5604 8.52691C42.7836 7.46814 44.3398 6.87263 45.9573 6.84432C47.5749 6.81601 49.151 7.35671 50.4105 8.37203C51.3783 9.09716 52.5428 9.51266 53.7511 9.56399C54.9594 9.61532 56.1549 9.30008 57.1808 8.65966L41.5604 8.52691ZM57.1808 14.5228C56.1501 15.1811 54.9429 15.5084 53.7209 15.4609C52.4989 15.4135 51.3206 14.9935 50.3441 14.2573C49.0872 13.239 47.5125 12.6944 45.895 12.7187C44.2775 12.7429 42.7198 13.3345 41.494 14.3901C38.3522 16.6026 34.1484 14.3901 34.1484 14.3901L57.1808 14.5228ZM57.1144 20.6073C56.0886 21.2477 54.893 21.5629 53.6847 21.5116C52.4765 21.4603 51.312 21.0448 50.3441 20.3197C49.0846 19.3043 47.5085 18.7636 45.891 18.7919C44.2734 18.8202 42.7172 19.4158 41.494 20.4745C40.3547 21.0484 39.0969 21.3473 37.8212 21.3473C36.5456 21.3473 35.2877 21.0484 34.1484 20.4745L57.1144 20.6073Z" stroke="#2C2D2F" stroke-width="1.72577" stroke-miterlimit="2.61"/>
<path d="M77.293 2H136.898V30.2097C136.898 50.1224 124.663 63.2648 106.985 70.4112C90.1477 64.6144 77.5585 51.6048 77.4257 28.9928L77.293 2Z" stroke="#2C2D2F" stroke-width="2.03552" stroke-miterlimit="2.61"/>
<path d="M83.5985 7.44311C83.9799 7.44311 84.3457 7.59463 84.6154 7.86433C84.8851 8.13404 85.0366 8.49983 85.0366 8.88125C85.0366 9.07011 84.9994 9.25712 84.9271 9.4316C84.8549 9.60609 84.7489 9.76463 84.6154 9.89817C84.4818 10.0317 84.3233 10.1376 84.1488 10.2099C83.9743 10.2822 83.7873 10.3194 83.5985 10.3194C83.4096 10.3194 83.2226 10.2822 83.0481 10.2099C82.8736 10.1376 82.7151 10.0317 82.5816 9.89817C82.448 9.76463 82.3421 9.60609 82.2698 9.4316C82.1975 9.25712 82.1603 9.07011 82.1603 8.88125C82.1603 8.49983 82.3119 8.13404 82.5816 7.86433C82.8513 7.59463 83.2171 7.44311 83.5985 7.44311V7.44311ZM89.351 6.00497C89.6355 6.00497 89.9135 6.08932 90.15 6.24734C90.3865 6.40537 90.5709 6.62997 90.6797 6.89276C90.7886 7.15555 90.817 7.44471 90.7615 7.72368C90.7061 8.00265 90.5691 8.2589 90.368 8.46003C90.1668 8.66116 89.9106 8.79813 89.6316 8.85362C89.3526 8.90911 89.0635 8.88063 88.8007 8.77178C88.5379 8.66293 88.3133 8.4786 88.1553 8.2421C87.9972 8.0056 87.9129 7.72755 87.9129 7.44311C87.9129 7.06169 88.0644 6.6959 88.3341 6.42619C88.6038 6.15649 88.9696 6.00497 89.351 6.00497V6.00497ZM96.4754 7.42099C96.7598 7.42099 97.0378 7.50533 97.2743 7.66336C97.5109 7.82138 97.6952 8.04599 97.804 8.30877C97.9129 8.57156 97.9414 8.86072 97.8859 9.13969C97.8304 9.41867 97.6934 9.67492 97.4923 9.87605C97.2912 10.0772 97.0349 10.2141 96.7559 10.2696C96.477 10.3251 96.1878 10.2966 95.925 10.1878C95.6622 10.0789 95.4376 9.89462 95.2796 9.65811C95.1216 9.42161 95.0372 9.14356 95.0372 8.85913C95.0372 8.47771 95.1887 8.11191 95.4584 7.84221C95.7281 7.5725 96.0939 7.42099 96.4754 7.42099ZM116.72 16.0941C117.004 16.0941 117.282 16.1784 117.519 16.3364C117.755 16.4945 117.94 16.7191 118.049 16.9819C118.157 17.2446 118.186 17.5338 118.13 17.8128C118.075 18.0918 117.938 18.348 117.737 18.5491C117.536 18.7503 117.279 18.8872 117.001 18.9427C116.722 18.9982 116.432 18.9697 116.17 18.8609C115.907 18.752 115.682 18.5677 115.524 18.3312C115.366 18.0947 115.282 17.8167 115.282 17.5322C115.282 17.1508 115.433 16.785 115.703 16.5153C115.973 16.2456 116.339 16.0941 116.72 16.0941V16.0941ZM118.247 12.4877C118.628 12.4877 118.994 12.6392 119.263 12.9089C119.533 13.1786 119.685 13.5444 119.685 13.9258C119.685 14.3072 119.533 14.673 119.263 14.9427C118.994 15.2124 118.628 15.3639 118.247 15.3639C117.865 15.3639 117.499 15.2124 117.23 14.9427C116.96 14.673 116.808 14.3072 116.808 13.9258C116.808 13.5444 116.96 13.1786 117.23 12.9089C117.499 12.6392 117.865 12.4877 118.247 12.4877V12.4877ZM118.247 7.44311C118.63 7.44307 118.998 7.59388 119.271 7.86296C119.545 8.13205 119.701 8.49781 119.707 8.88125C119.701 9.26676 119.545 9.63487 119.273 9.9075C119 10.1801 118.632 10.3358 118.247 10.3415C117.863 10.3357 117.497 10.1793 117.228 9.90607C116.959 9.63285 116.808 9.26473 116.808 8.88125C116.808 8.49983 116.96 8.13404 117.23 7.86433C117.499 7.59463 117.865 7.44311 118.247 7.44311ZM104.971 4.1907C105.256 4.1907 105.534 4.27505 105.77 4.43307C106.007 4.5911 106.191 4.81571 106.3 5.07849C106.409 5.34128 106.437 5.63044 106.382 5.90941C106.326 6.18838 106.189 6.44463 105.988 6.64576C105.787 6.84689 105.531 6.98386 105.252 7.03935C104.973 7.09484 104.684 7.06636 104.421 6.95751C104.158 6.84866 103.934 6.66433 103.776 6.42783C103.618 6.19133 103.533 5.91328 103.533 5.62884C103.533 5.24742 103.685 4.88163 103.955 4.61193C104.224 4.34222 104.59 4.1907 104.971 4.1907ZM101.365 8.61575C101.649 8.61575 101.928 8.70009 102.164 8.85812C102.401 9.01614 102.585 9.24075 102.694 9.50354C102.803 9.76632 102.831 10.0555 102.776 10.3345C102.72 10.6134 102.583 10.8697 102.382 11.0708C102.181 11.2719 101.925 11.4089 101.646 11.4644C101.367 11.5199 101.077 11.4914 100.815 11.3826C100.552 11.2737 100.327 11.0894 100.169 10.8529C100.011 10.6164 99.9269 10.3383 99.9269 10.0539C99.9269 9.67247 100.078 9.30667 100.348 9.03697C100.618 8.76727 100.984 8.61575 101.365 8.61575V8.61575ZM98.4888 13.0408C98.7732 13.0408 99.0512 13.1251 99.2877 13.2832C99.5242 13.4412 99.7086 13.6658 99.8174 13.9286C99.9263 14.1914 99.9548 14.4805 99.8993 14.7595C99.8438 15.0385 99.7068 15.2947 99.5057 15.4959C99.3045 15.697 99.0483 15.8339 98.7693 15.8894C98.4903 15.9449 98.2012 15.9165 97.9384 15.8076C97.6756 15.6988 97.451 15.5144 97.293 15.2779C97.135 15.0414 97.0506 14.7634 97.0506 14.4789C97.0506 14.0975 97.2021 13.7317 97.4718 13.462C97.7415 13.1923 98.1073 13.0408 98.4888 13.0408V13.0408ZM103.755 15.3639C104.044 15.3596 104.329 15.4415 104.572 15.5992C104.815 15.757 105.005 15.9835 105.119 16.2499C105.233 16.5163 105.265 16.8106 105.212 17.0953C105.158 17.38 105.02 17.6423 104.817 17.8487C104.614 18.0551 104.354 18.1964 104.07 18.2546C103.786 18.3127 103.491 18.2851 103.223 18.1753C102.955 18.0655 102.726 17.8783 102.564 17.6377C102.403 17.3971 102.316 17.114 102.316 16.8242C102.316 16.4407 102.467 16.0726 102.736 15.7994C103.005 15.5262 103.371 15.3698 103.755 15.3639V15.3639ZM92.9574 11.7797C93.2419 11.7797 93.5199 11.864 93.7564 12.022C93.9929 12.1801 94.1773 12.4047 94.2861 12.6674C94.395 12.9302 94.4234 13.2194 94.368 13.4984C94.3125 13.7773 94.1755 14.0336 93.9744 14.2347C93.7732 14.4358 93.517 14.5728 93.238 14.6283C92.959 14.6838 92.6699 14.6553 92.4071 14.5465C92.1443 14.4376 91.9197 14.2533 91.7617 14.0168C91.6037 13.7803 91.5193 13.5022 91.5193 13.2178C91.5193 12.8364 91.6708 12.4706 91.9405 12.2009C92.2102 11.9312 92.576 11.7797 92.9574 11.7797V11.7797ZM88.3775 11.3814C88.6672 11.377 88.9517 11.4589 89.1947 11.6167C89.4378 11.7744 89.6284 12.0009 89.7423 12.2673C89.8562 12.5338 89.8883 12.828 89.8345 13.1127C89.7807 13.3975 89.6434 13.6597 89.4401 13.8662C89.2368 14.0726 88.9766 14.2139 88.6928 14.272C88.4089 14.3302 88.1142 14.3026 87.8461 14.1928C87.5779 14.0829 87.3486 13.8958 87.1871 13.6552C87.0257 13.4146 86.9394 13.1314 86.9394 12.8417C86.9393 12.4582 87.0902 12.0901 87.3592 11.8168C87.6283 11.5436 87.9941 11.3872 88.3775 11.3814ZM83.5985 13.9258C83.7892 13.9229 83.9786 13.9579 84.1556 14.0289C84.3327 14.0998 84.4938 14.2053 84.6297 14.3391C84.7656 14.473 84.8735 14.6325 84.9472 14.8084C85.0208 14.9844 85.0588 15.1732 85.0587 15.3639C85.0587 15.5528 85.0215 15.7398 84.9493 15.9143C84.877 16.0888 84.7711 16.2473 84.6375 16.3809C84.504 16.5144 84.3454 16.6203 84.171 16.6926C83.9965 16.7649 83.8095 16.8021 83.6206 16.8021C83.4317 16.8021 83.2447 16.7649 83.0703 16.6926C82.8958 16.6203 82.7372 16.5144 82.6037 16.3809C82.4701 16.2473 82.3642 16.0888 82.2919 15.9143C82.2197 15.7398 82.1825 15.5528 82.1825 15.3639C82.1825 14.9825 82.334 14.6167 82.6037 14.347C82.8734 14.0773 83.2392 13.9258 83.6206 13.9258H83.5985ZM81.386 18.3508C81.6704 18.3508 81.9484 18.4352 82.1849 18.5932C82.4214 18.7512 82.6058 18.9759 82.7146 19.2386C82.8235 19.5014 82.8519 19.7906 82.7965 20.0696C82.741 20.3485 82.604 20.6048 82.4029 20.8059C82.2017 21.007 81.9455 21.144 81.6665 21.1995C81.3875 21.255 81.0984 21.2265 80.8356 21.1177C80.5728 21.0088 80.3482 20.8245 80.1902 20.588C80.0322 20.3515 79.9478 20.0734 79.9478 19.789C79.9478 19.4076 80.0993 19.0418 80.369 18.7721C80.6387 18.5024 81.0045 18.3508 81.386 18.3508V18.3508ZM83.5985 24.1034C83.8829 24.1034 84.161 24.1878 84.3975 24.3458C84.634 24.5038 84.8183 24.7284 84.9271 24.9912C85.036 25.254 85.0645 25.5431 85.009 25.8221C84.9535 26.1011 84.8165 26.3573 84.6154 26.5585C84.4143 26.7596 84.158 26.8966 83.879 26.9521C83.6001 27.0075 83.3109 26.9791 83.0481 26.8702C82.7853 26.7614 82.5607 26.577 82.4027 26.3405C82.2447 26.104 82.1603 25.826 82.1603 25.5415C82.1603 25.1601 82.3119 24.7943 82.5816 24.5246C82.8513 24.2549 83.2171 24.1034 83.5985 24.1034V24.1034ZM90.0812 17.6207C90.3656 17.6207 90.6437 17.7051 90.8802 17.8631C91.1167 18.0211 91.301 18.2457 91.4098 18.5085C91.5187 18.7713 91.5472 19.0605 91.4917 19.3394C91.4362 19.6184 91.2992 19.8746 91.0981 20.0758C90.897 20.2769 90.6407 20.4139 90.3617 20.4694C90.0828 20.5249 89.7936 20.4964 89.5308 20.3875C89.268 20.2787 89.0434 20.0943 88.8854 19.8578C88.7274 19.6213 88.643 19.3433 88.643 19.0589C88.643 18.6774 88.7945 18.3116 89.0642 18.0419C89.334 17.7722 89.6998 17.6207 90.0812 17.6207V17.6207ZM95.5903 17.9526C95.8801 17.9482 96.1645 18.0301 96.4076 18.1879C96.6506 18.3456 96.8412 18.5721 96.9551 18.8385C97.0691 19.105 97.1011 19.3992 97.0473 19.6839C96.9935 19.9686 96.8562 20.2309 96.6529 20.4373C96.4496 20.6438 96.1894 20.7851 95.9056 20.8432C95.6217 20.9014 95.327 20.8738 95.0589 20.764C94.7908 20.6541 94.5614 20.467 94.3999 20.2264C94.2385 19.9858 94.1522 19.7026 94.1522 19.4129C94.1522 19.0294 94.303 18.6613 94.5721 18.388C94.8411 18.1148 95.2069 17.9584 95.5903 17.9526ZM99.4401 23.3954C99.7246 23.3954 100.003 23.4797 100.239 23.6378C100.476 23.7958 100.66 24.0204 100.769 24.2832C100.878 24.546 100.906 24.8351 100.851 25.1141C100.795 25.3931 100.658 25.6493 100.457 25.8505C100.256 26.0516 99.9997 26.1886 99.7207 26.244C99.4417 26.2995 99.1526 26.2711 98.8898 26.1622C98.627 26.0534 98.4024 25.869 98.2444 25.6325C98.0863 25.396 98.002 25.118 98.002 24.8335C98.002 24.4521 98.1535 24.0863 98.4232 23.8166C98.6929 23.5469 99.0587 23.3954 99.4401 23.3954ZM98.002 29.148C98.2864 29.148 98.5645 29.2323 98.801 29.3903C99.0375 29.5484 99.2218 29.773 99.3307 30.0357C99.4395 30.2985 99.468 30.5877 99.4125 30.8667C99.357 31.1456 99.22 31.4019 99.0189 31.603C98.8178 31.8041 98.5615 31.9411 98.2826 31.9966C98.0036 32.0521 97.7144 32.0236 97.4517 31.9148C97.1889 31.8059 96.9643 31.6216 96.8062 31.3851C96.6482 31.1486 96.5639 30.8705 96.5639 30.5861C96.5639 30.2047 96.7154 29.8389 96.9851 29.5692C97.2548 29.2995 97.6206 29.148 98.002 29.148ZM94.8602 26.6036C95.1447 26.6036 95.4227 26.6879 95.6592 26.8459C95.8957 27.004 96.08 27.2286 96.1889 27.4913C96.2977 27.7541 96.3262 28.0433 96.2707 28.3223C96.2152 28.6012 96.0783 28.8575 95.8771 29.0586C95.676 29.2597 95.4198 29.3967 95.1408 29.4522C94.8618 29.5077 94.5727 29.4792 94.3099 29.3704C94.0471 29.2615 93.8225 29.0772 93.6644 28.8407C93.5064 28.6042 93.4221 28.3261 93.4221 28.0417C93.4221 27.6603 93.5736 27.2945 93.8433 27.0248C94.113 26.7551 94.4788 26.6036 94.8602 26.6036ZM87.9129 28.4178C88.2963 28.4236 88.6621 28.58 88.9312 28.8533C89.2003 29.1265 89.3511 29.4946 89.351 29.8781C89.351 30.2595 89.1995 30.6253 88.9298 30.895C88.6601 31.1647 88.2943 31.3162 87.9129 31.3162C87.5315 31.3162 87.1657 31.1647 86.896 30.895C86.6263 30.6253 86.4748 30.2595 86.4748 29.8781C86.4747 29.4946 86.6255 29.1265 86.8946 28.8533C87.1637 28.58 87.5295 28.4236 87.9129 28.4178ZM83.5985 29.7453C83.8829 29.7453 84.161 29.8297 84.3975 29.9877C84.634 30.1457 84.8183 30.3703 84.9271 30.6331C85.036 30.8959 85.0645 31.1851 85.009 31.464C84.9535 31.743 84.8165 31.9993 84.6154 32.2004C84.4143 32.4015 84.158 32.5385 83.879 32.594C83.6001 32.6495 83.3109 32.621 83.0481 32.5121C82.7853 32.4033 82.5607 32.219 82.4027 31.9825C82.2447 31.746 82.1603 31.4679 82.1603 31.1835C82.1603 30.8021 82.3119 30.4363 82.5816 30.1666C82.8513 29.8969 83.2171 29.7453 83.5985 29.7453ZM81.1868 34.3916C81.4703 34.396 81.7461 34.484 81.9797 34.6447C82.2133 34.8053 82.3942 35.0314 82.4996 35.2946C82.6051 35.5577 82.6304 35.8462 82.5725 36.1237C82.5145 36.4012 82.3758 36.6553 82.1738 36.8543C81.9718 37.0532 81.7156 37.188 81.4372 37.2417C81.1589 37.2954 80.8709 37.2657 80.6094 37.1562C80.3479 37.0467 80.1245 36.8624 79.9675 36.6264C79.8104 36.3904 79.7266 36.1133 79.7266 35.8298C79.7324 35.4463 79.8888 35.0806 80.162 34.8115C80.4352 34.5424 80.8033 34.3916 81.1868 34.3916V34.3916ZM82.8462 39.8566C83.2276 39.8566 83.5934 40.0081 83.8631 40.2778C84.1328 40.5475 84.2844 40.9133 84.2844 41.2947C84.2844 41.4836 84.2472 41.6706 84.1749 41.8451C84.1026 42.0195 83.9967 42.1781 83.8631 42.3116C83.7296 42.4452 83.5711 42.5511 83.3966 42.6234C83.2221 42.6957 83.0351 42.7329 82.8462 42.7329C82.6574 42.7329 82.4703 42.6957 82.2959 42.6234C82.1214 42.5511 81.9628 42.4452 81.8293 42.3116C81.6958 42.1781 81.5898 42.0195 81.5176 41.8451C81.4453 41.6706 81.4081 41.4836 81.4081 41.2947C81.4081 40.9133 81.5596 40.5475 81.8293 40.2778C82.099 40.0081 82.4648 39.8566 82.8462 39.8566ZM89.0855 41.6487C89.37 41.6487 89.648 41.7331 89.8845 41.8911C90.121 42.0491 90.3053 42.2737 90.4142 42.5365C90.523 42.7993 90.5515 43.0884 90.496 43.3674C90.4406 43.6464 90.3036 43.9026 90.1025 44.1038C89.9013 44.3049 89.6451 44.4419 89.3661 44.4974C89.0871 44.5529 88.798 44.5244 88.5352 44.4155C88.2724 44.3067 88.0478 44.1223 87.8898 43.8858C87.7317 43.6493 87.6474 43.3713 87.6474 43.0869C87.6474 42.7054 87.7989 42.3396 88.0686 42.0699C88.3383 41.8002 88.7041 41.6487 89.0855 41.6487V41.6487ZM89.0855 38.0423C89.37 38.0423 89.648 38.1266 89.8845 38.2847C90.121 38.4427 90.3053 38.6673 90.4142 38.9301C90.523 39.1929 90.5515 39.482 90.496 39.761C90.4406 40.04 90.3036 40.2962 90.1025 40.4974C89.9013 40.6985 89.6451 40.8355 89.3661 40.8909C89.0871 40.9464 88.798 40.918 88.5352 40.8091C88.2724 40.7003 88.0478 40.5159 87.8898 40.2794C87.7317 40.0429 87.6474 39.7649 87.6474 39.4804C87.6474 39.099 87.7989 38.7332 88.0686 38.4635C88.3383 38.1938 88.7041 38.0423 89.0855 38.0423ZM94.3735 35.5422C94.6579 35.5422 94.936 35.6265 95.1725 35.7845C95.409 35.9425 95.5933 36.1672 95.7021 36.4299C95.811 36.6927 95.8395 36.9819 95.784 37.2609C95.7285 37.5398 95.5915 37.7961 95.3904 37.9972C95.1893 38.1983 94.933 38.3353 94.654 38.3908C94.3751 38.4463 94.0859 38.4178 93.8231 38.309C93.5603 38.2001 93.3357 38.0158 93.1777 37.7793C93.0197 37.5428 92.9353 37.2647 92.9353 36.9803C92.9353 36.5989 93.0868 36.2331 93.3565 35.9634C93.6262 35.6937 93.992 35.5422 94.3735 35.5422V35.5422ZM99.1525 37.3122C99.3579 37.2867 99.5663 37.3053 99.7639 37.3665C99.9616 37.4277 100.144 37.5302 100.299 37.6672C100.454 37.8042 100.578 37.9727 100.663 38.1613C100.748 38.3499 100.792 38.5545 100.792 38.7614C100.792 38.9683 100.748 39.1728 100.663 39.3615C100.578 39.5501 100.454 39.7185 100.299 39.8555C100.144 39.9926 99.9616 40.0951 99.7639 40.1563C99.5663 40.2175 99.3579 40.236 99.1525 40.2106C98.799 40.1668 98.4737 39.9953 98.2378 39.7284C98.0019 39.4615 97.8717 39.1176 97.8717 38.7614C97.8717 38.4052 98.0019 38.0612 98.2378 37.7943C98.4737 37.5274 98.799 37.3559 99.1525 37.3122V37.3122ZM95.5682 40.9186C95.8527 40.9186 96.1307 41.0029 96.3672 41.161C96.6037 41.319 96.788 41.5436 96.8969 41.8064C97.0057 42.0692 97.0342 42.3583 96.9787 42.6373C96.9232 42.9163 96.7863 43.1725 96.5851 43.3736C96.384 43.5748 96.1278 43.7117 95.8488 43.7672C95.5698 43.8227 95.2807 43.7942 95.0179 43.6854C94.7551 43.5765 94.5305 43.3922 94.3725 43.1557C94.2144 42.9192 94.1301 42.6412 94.1301 42.3567C94.1301 41.9753 94.2816 41.6095 94.5513 41.3398C94.821 41.0701 95.1868 40.9186 95.5682 40.9186ZM104.971 40.2106C105.256 40.2106 105.534 40.2949 105.77 40.4529C106.007 40.611 106.191 40.8356 106.3 41.0984C106.409 41.3611 106.437 41.6503 106.382 41.9293C106.326 42.2083 106.189 42.4645 105.988 42.6656C105.787 42.8668 105.531 43.0037 105.252 43.0592C104.973 43.1147 104.684 43.0862 104.421 42.9774C104.158 42.8685 103.934 42.6842 103.776 42.4477C103.618 42.2112 103.533 41.9331 103.533 41.6487C103.533 41.2673 103.685 40.9015 103.955 40.6318C104.224 40.3621 104.59 40.2106 104.971 40.2106ZM106.144 35.7855C106.525 35.7855 106.891 35.937 107.161 36.2068C107.431 36.4765 107.582 36.8422 107.582 37.2237C107.582 37.6051 107.431 37.9709 107.161 38.2406C106.891 38.5103 106.525 38.6618 106.144 38.6618C105.763 38.6618 105.397 38.5103 105.127 38.2406C104.857 37.9709 104.706 37.6051 104.706 37.2237C104.706 36.8422 104.857 36.4765 105.127 36.2068C105.397 35.937 105.763 35.7855 106.144 35.7855V35.7855ZM110.259 32.6216C110.544 32.6216 110.822 32.706 111.058 32.864C111.295 33.022 111.479 33.2466 111.588 33.5094C111.697 33.7722 111.725 34.0614 111.67 34.3403C111.614 34.6193 111.477 34.8756 111.276 35.0767C111.075 35.2778 110.819 35.4148 110.54 35.4703C110.261 35.5258 109.972 35.4973 109.709 35.3884C109.446 35.2796 109.222 35.0953 109.064 34.8587C108.906 34.6222 108.821 34.3442 108.821 34.0598C108.821 33.6783 108.973 33.3125 109.242 33.0428C109.512 32.7731 109.878 32.6216 110.259 32.6216ZM106.41 28.6391C106.694 28.6391 106.972 28.7234 107.209 28.8815C107.445 29.0395 107.629 29.2641 107.738 29.5269C107.847 29.7897 107.876 30.0788 107.82 30.3578C107.765 30.6368 107.628 30.893 107.427 31.0941C107.225 31.2953 106.969 31.4322 106.69 31.4877C106.411 31.5432 106.122 31.5147 105.859 31.4059C105.596 31.297 105.372 31.1127 105.214 30.8762C105.056 30.6397 104.971 30.3617 104.971 30.0772C104.971 29.6958 105.123 29.33 105.393 29.0603C105.662 28.7906 106.028 28.6391 106.41 28.6391V28.6391ZM110.99 26.1389C111.274 26.1389 111.552 26.2233 111.788 26.3813C112.025 26.5393 112.209 26.7639 112.318 27.0267C112.427 27.2895 112.456 27.5787 112.4 27.8576C112.345 28.1366 112.208 28.3929 112.006 28.594C111.805 28.7951 111.549 28.9321 111.27 28.9876C110.991 29.0431 110.702 29.0146 110.439 28.9057C110.176 28.7969 109.952 28.6126 109.794 28.3761C109.636 28.1396 109.551 27.8615 109.551 27.5771C109.551 27.3882 109.589 27.2012 109.661 27.0267C109.733 26.8522 109.839 26.6937 109.973 26.5602C110.106 26.4266 110.265 26.3207 110.439 26.2484C110.614 26.1761 110.801 26.1389 110.99 26.1389ZM117.937 37.2015C118.227 37.1972 118.511 37.279 118.754 37.4368C118.997 37.5946 119.188 37.8211 119.302 38.0875C119.416 38.3539 119.448 38.6482 119.394 38.9329C119.34 39.2176 119.203 39.4798 118.999 39.6863C118.796 39.8927 118.536 40.034 118.252 40.0922C117.968 40.1503 117.673 40.1227 117.405 40.0129C117.137 39.9031 116.908 39.7159 116.746 39.4753C116.585 39.2347 116.499 38.9516 116.499 38.6618C116.499 38.2783 116.649 37.9102 116.919 37.637C117.188 37.3638 117.553 37.2074 117.937 37.2015V37.2015ZM113.822 40.5867C114.106 40.5867 114.384 40.671 114.621 40.8291C114.857 40.9871 115.041 41.2117 115.15 41.4745C115.259 41.7373 115.288 42.0264 115.232 42.3054C115.177 42.5844 115.04 42.8406 114.838 43.0418C114.637 43.2429 114.381 43.3799 114.102 43.4353C113.823 43.4908 113.534 43.4624 113.271 43.3535C113.008 43.2447 112.784 43.0603 112.626 42.8238C112.468 42.5873 112.383 42.3093 112.383 42.0248C112.383 41.6434 112.535 41.2776 112.805 41.0079C113.074 40.7382 113.44 40.5867 113.822 40.5867V40.5867ZM123.645 40.2106C123.93 40.2106 124.208 40.2949 124.444 40.4529C124.681 40.611 124.865 40.8356 124.974 41.0984C125.083 41.3611 125.111 41.6503 125.056 41.9293C125 42.2083 124.863 42.4645 124.662 42.6656C124.461 42.8668 124.205 43.0037 123.926 43.0592C123.647 43.1147 123.358 43.0862 123.095 42.9774C122.832 42.8685 122.607 42.6842 122.449 42.4477C122.291 42.2112 122.207 41.9331 122.207 41.6487C122.207 41.2673 122.359 40.9015 122.628 40.6318C122.898 40.3621 123.264 40.2106 123.645 40.2106ZM127.252 37.9981C127.536 37.9981 127.814 38.0824 128.051 38.2404C128.287 38.3984 128.471 38.6231 128.58 38.8858C128.689 39.1486 128.718 39.4378 128.662 39.7168C128.607 39.9957 128.47 40.252 128.268 40.4531C128.067 40.6542 127.811 40.7912 127.532 40.8467C127.253 40.9022 126.964 40.8737 126.701 40.7649C126.438 40.656 126.214 40.4717 126.056 40.2352C125.898 39.9987 125.813 39.7206 125.813 39.4362C125.813 39.0548 125.965 38.689 126.235 38.4193C126.504 38.1496 126.87 37.9981 127.252 37.9981ZM131.677 36.5599C132.058 36.5599 132.424 36.7114 132.694 36.9811C132.963 37.2508 133.115 37.6166 133.115 37.9981C133.115 38.3795 132.963 38.7453 132.694 39.015C132.424 39.2847 132.058 39.4362 131.677 39.4362C131.295 39.4362 130.929 39.2847 130.66 39.015C130.39 38.7453 130.238 38.3795 130.238 37.9981C130.238 37.6166 130.39 37.2508 130.66 36.9811C130.929 36.7114 131.295 36.5599 131.677 36.5599V36.5599ZM132.407 30.7852C132.696 30.7808 132.981 30.8627 133.224 31.0205C133.467 31.1783 133.658 31.4048 133.772 31.6712C133.885 31.9376 133.918 32.2319 133.864 32.5166C133.81 32.8013 133.673 33.0635 133.469 33.27C133.266 33.4764 133.006 33.6177 132.722 33.6759C132.438 33.734 132.143 33.7064 131.875 33.5966C131.607 33.4867 131.378 33.2996 131.216 33.059C131.055 32.8184 130.969 32.5352 130.969 32.2455C130.969 31.862 131.119 31.4939 131.388 31.2207C131.658 30.9474 132.023 30.791 132.407 30.7852V30.7852ZM134.619 25.0327C134.904 25.0327 135.182 25.117 135.418 25.275C135.655 25.4331 135.839 25.6577 135.948 25.9205C136.057 26.1832 136.085 26.4724 136.03 26.7514C135.974 27.0303 135.837 27.2866 135.636 27.4877C135.435 27.6889 135.179 27.8258 134.9 27.8813C134.621 27.9368 134.332 27.9083 134.069 27.7995C133.806 27.6906 133.582 27.5063 133.423 27.2698C133.265 27.0333 133.181 26.7552 133.181 26.4708C133.181 26.0894 133.333 25.7236 133.602 25.4539C133.872 25.1842 134.238 25.0327 134.619 25.0327V25.0327ZM129.11 23.9707C129.395 23.9707 129.673 24.055 129.909 24.213C130.146 24.3711 130.33 24.5957 130.439 24.8584C130.548 25.1212 130.576 25.4104 130.521 25.6894C130.465 25.9683 130.328 26.2246 130.127 26.4257C129.926 26.6268 129.67 26.7638 129.391 26.8193C129.112 26.8748 128.823 26.8463 128.56 26.7375C128.297 26.6286 128.072 26.4443 127.914 26.2078C127.756 25.9713 127.672 25.6932 127.672 25.4088C127.672 25.0274 127.823 24.6616 128.093 24.3919C128.363 24.1222 128.729 23.9707 129.11 23.9707V23.9707ZM126.101 34.1704C126.482 34.1704 126.848 34.3219 127.118 34.5916C127.388 34.8613 127.539 35.2271 127.539 35.6085C127.539 35.9899 127.388 36.3557 127.118 36.6254C126.848 36.8951 126.482 37.0467 126.101 37.0467C125.72 37.0467 125.354 36.8951 125.084 36.6254C124.814 36.3557 124.663 35.9899 124.663 35.6085C124.663 35.2271 124.814 34.8613 125.084 34.5916C125.354 34.3219 125.72 34.1704 126.101 34.1704V34.1704ZM126.101 29.1258C126.482 29.1258 126.848 29.2774 127.118 29.5471C127.388 29.8168 127.539 30.1826 127.539 30.564C127.539 30.9454 127.388 31.3112 127.118 31.5809C126.848 31.8506 126.482 32.0021 126.101 32.0021C125.72 32.0021 125.354 31.8506 125.084 31.5809C124.814 31.3112 124.663 30.9454 124.663 30.564C124.663 30.1826 124.814 29.8168 125.084 29.5471C125.354 29.2774 125.72 29.1258 126.101 29.1258ZM120.791 30.1878C121.075 30.1878 121.353 30.2722 121.59 30.4302C121.826 30.5882 122.011 30.8128 122.12 31.0756C122.229 31.3384 122.257 31.6276 122.201 31.9066C122.146 32.1855 122.009 32.4418 121.808 32.6429C121.607 32.844 121.351 32.981 121.072 33.0365C120.793 33.092 120.503 33.0635 120.241 32.9547C119.978 32.8458 119.753 32.6615 119.595 32.425C119.437 32.1885 119.353 31.9104 119.353 31.626C119.353 31.2446 119.504 30.8788 119.774 30.6091C120.044 30.3394 120.41 30.1878 120.791 30.1878V30.1878ZM118.247 26.1832C118.628 26.1832 118.994 26.3347 119.263 26.6044C119.533 26.8741 119.685 27.2399 119.685 27.6213C119.685 28.0027 119.533 28.3685 119.263 28.6382C118.994 28.9079 118.628 29.0595 118.247 29.0595C117.865 29.0595 117.499 28.9079 117.23 28.6382C116.96 28.3685 116.808 28.0027 116.808 27.6213C116.808 27.2399 116.96 26.8741 117.23 26.6044C117.499 26.3347 117.865 26.1832 118.247 26.1832ZM116.034 21.7581C116.324 21.7537 116.608 21.8356 116.851 21.9934C117.094 22.1512 117.285 22.3777 117.399 22.6441C117.513 22.9105 117.545 23.2048 117.491 23.4895C117.437 23.7742 117.3 24.0364 117.097 24.2429C116.893 24.4493 116.633 24.5906 116.349 24.6488C116.065 24.7069 115.771 24.6793 115.503 24.5695C115.234 24.4597 115.005 24.2725 114.844 24.0319C114.682 23.7913 114.596 23.5081 114.596 23.2184C114.618 22.8504 114.779 22.5045 115.046 22.2501C115.312 21.9957 115.665 21.8515 116.034 21.8466V21.7581ZM111.432 18.6827C111.716 18.6827 111.994 18.7671 112.231 18.9251C112.468 19.0831 112.652 19.3077 112.761 19.5705C112.87 19.8333 112.898 20.1225 112.843 20.4014C112.787 20.6804 112.65 20.9367 112.449 21.1378C112.248 21.3389 111.992 21.4759 111.713 21.5314C111.434 21.5869 111.144 21.5584 110.882 21.4495C110.619 21.3407 110.394 21.1564 110.236 20.9199C110.078 20.6834 109.994 20.4053 109.994 20.1209C109.994 19.7394 110.145 19.3737 110.415 19.104C110.685 18.8342 111.051 18.6827 111.432 18.6827ZM111.609 13.2178C111.99 13.2178 112.356 13.3693 112.626 13.639C112.896 13.9087 113.047 14.2745 113.047 14.6559C113.047 15.0374 112.896 15.4032 112.626 15.6729C112.356 15.9426 111.99 16.0941 111.609 16.0941C111.228 16.0941 110.862 15.9426 110.592 15.6729C110.322 15.4032 110.171 15.0374 110.171 14.6559C110.171 14.2745 110.322 13.9087 110.592 13.639C110.862 13.3693 111.228 13.2178 111.609 13.2178V13.2178ZM108.733 8.79275C109.022 8.78836 109.307 8.87026 109.55 9.02802C109.793 9.18579 109.984 9.41228 110.098 9.6787C110.211 9.94511 110.244 10.2394 110.19 10.5241C110.136 10.8088 109.999 11.0711 109.795 11.2775C109.592 11.4839 109.332 11.6252 109.048 11.6834C108.764 11.7416 108.469 11.714 108.201 11.6041C107.933 11.4943 107.704 11.3071 107.542 11.0665C107.381 10.826 107.295 10.5428 107.295 10.253C107.295 9.86953 107.445 9.50142 107.714 9.2282C107.984 8.95497 108.349 8.79856 108.733 8.79275V8.79275ZM115.68 3.37207C116.061 3.37207 116.427 3.52359 116.697 3.79329C116.967 4.063 117.118 4.42879 117.118 4.81021C117.118 5.19163 116.967 5.55742 116.697 5.82713C116.427 6.09683 116.061 6.24835 115.68 6.24835C115.299 6.24835 114.933 6.09683 114.663 5.82713C114.393 5.55742 114.242 5.19163 114.242 4.81021C114.242 4.42879 114.393 4.063 114.663 3.79329C114.933 3.52359 115.299 3.37207 115.68 3.37207V3.37207ZM127.207 6.97848C127.492 6.97848 127.77 7.06283 128.006 7.22085C128.243 7.37888 128.427 7.60348 128.536 7.86627C128.645 8.12906 128.673 8.41822 128.618 8.69719C128.562 8.97616 128.425 9.23241 128.224 9.43354C128.023 9.63467 127.767 9.77164 127.488 9.82713C127.209 9.88262 126.92 9.85414 126.657 9.74529C126.394 9.63644 126.17 9.45211 126.012 9.21561C125.854 8.97911 125.769 8.70106 125.769 8.41662C125.769 8.0352 125.921 7.66941 126.19 7.3997C126.46 7.13 126.826 6.97848 127.207 6.97848V6.97848ZM125.305 10.253C125.589 10.253 125.867 10.3374 126.104 10.4954C126.34 10.6534 126.524 10.878 126.633 11.1408C126.742 11.4036 126.771 11.6928 126.715 11.9717C126.66 12.2507 126.523 12.5069 126.321 12.7081C126.12 12.9092 125.864 13.0462 125.585 13.1017C125.306 13.1572 125.017 13.1287 124.754 13.0198C124.491 12.911 124.267 12.7266 124.109 12.4901C123.951 12.2536 123.866 11.9756 123.866 11.6912C123.866 11.5023 123.904 11.3153 123.976 11.1408C124.048 10.9663 124.154 10.8078 124.288 10.6742C124.421 10.5407 124.58 10.4348 124.754 10.3625C124.929 10.2902 125.116 10.253 125.305 10.253V10.253ZM133.225 8.04049C133.51 8.04049 133.788 8.12484 134.024 8.28286C134.261 8.44089 134.445 8.6655 134.554 8.92828C134.663 9.19107 134.691 9.48023 134.636 9.7592C134.58 10.0382 134.443 10.2944 134.242 10.4956C134.041 10.6967 133.785 10.8336 133.506 10.8891C133.227 10.9446 132.938 10.9162 132.675 10.8073C132.412 10.6985 132.188 10.5141 132.03 10.2776C131.872 10.0411 131.787 9.76307 131.787 9.47863C131.787 9.09721 131.939 8.73142 132.208 8.46171C132.478 8.19201 132.844 8.04049 133.225 8.04049V8.04049ZM129.619 12.4655C129.903 12.4655 130.181 12.5499 130.418 12.7079C130.654 12.8659 130.839 13.0905 130.948 13.3533C131.056 13.6161 131.085 13.9053 131.029 14.1842C130.974 14.4632 130.837 14.7195 130.636 14.9206C130.435 15.1217 130.178 15.2587 129.9 15.3142C129.621 15.3697 129.331 15.3412 129.069 15.2323C128.806 15.1235 128.581 14.9392 128.423 14.7027C128.265 14.4662 128.181 14.1881 128.181 13.9037C128.181 13.5223 128.332 13.1565 128.602 12.8868C128.872 12.6171 129.238 12.4655 129.619 12.4655V12.4655ZM131.057 16.8906C131.342 16.8906 131.62 16.9749 131.856 17.133C132.093 17.291 132.277 17.5156 132.386 17.7784C132.495 18.0412 132.523 18.3303 132.468 18.6093C132.412 18.8883 132.275 19.1445 132.074 19.3456C131.873 19.5468 131.617 19.6837 131.338 19.7392C131.059 19.7947 130.77 19.7662 130.507 19.6574C130.244 19.5485 130.019 19.3642 129.861 19.1277C129.703 18.8912 129.619 18.6132 129.619 18.3287C129.625 17.9491 129.778 17.5866 130.046 17.3181C130.315 17.0496 130.677 16.8963 131.057 16.8906V16.8906ZM126.566 19.3244C126.947 19.3244 127.313 19.4759 127.583 19.7456C127.852 20.0153 128.004 20.3811 128.004 20.7625C128.004 21.1439 127.852 21.5097 127.583 21.7794C127.313 22.0491 126.947 22.2006 126.566 22.2006C126.184 22.2006 125.818 22.0491 125.549 21.7794C125.279 21.5097 125.128 21.1439 125.128 20.7625C125.128 20.3811 125.279 20.0153 125.549 19.7456C125.818 19.4759 126.184 19.3244 126.566 19.3244ZM122.141 17.8641C122.43 17.8597 122.715 17.9416 122.958 18.0994C123.201 18.2571 123.391 18.4836 123.505 18.75C123.619 19.0165 123.651 19.3107 123.598 19.5954C123.544 19.8801 123.406 20.1424 123.203 20.3488C123 20.5553 122.74 20.6966 122.456 20.7547C122.172 20.8129 121.877 20.7853 121.609 20.6755C121.341 20.5656 121.112 20.3785 120.95 20.1379C120.789 19.8973 120.703 19.6141 120.702 19.3244C120.702 18.9409 120.853 18.5728 121.122 18.2995C121.391 18.0263 121.757 17.8699 122.141 17.8641V17.8641ZM122.406 21.8466C122.696 21.8422 122.98 21.9241 123.223 22.0819C123.466 22.2397 123.657 22.4662 123.771 22.7326C123.885 22.999 123.917 23.2933 123.863 23.578C123.809 23.8627 123.672 24.1249 123.469 24.3314C123.265 24.5378 123.005 24.6791 122.721 24.7373C122.438 24.7954 122.143 24.7678 121.875 24.658C121.607 24.5482 121.377 24.361 121.216 24.1204C121.054 23.8798 120.968 23.5966 120.968 23.3069C120.968 22.9234 121.119 22.5553 121.388 22.2821C121.657 22.0089 122.023 21.8524 122.406 21.8466V21.8466Z" stroke="#2C2D2F" stroke-width="1.52664" stroke-miterlimit="2.61"/>
<path d="M80.4336 46.3608C80.4336 46.3608 133.711 46.3608 133.866 46.3608" stroke="#2C2D2F" stroke-width="2.5444" stroke-miterlimit="2.61"/>
<path d="M333.061 32.7539H332.773L332.928 32.9973L333.061 32.7539Z" fill="#2C2D2F"/>
<path d="M316.554 31.7585C318.536 30.6157 320.872 30.25 323.108 30.7325C325.345 31.2149 327.322 32.511 328.657 34.3693L329.829 33.6834C329.739 33.382 329.694 33.0688 329.697 32.7541C329.695 32.0312 329.937 31.3286 330.382 30.759C330.827 30.1894 331.451 29.7857 332.152 29.6124V28.3512C330.306 28.2372 328.537 27.5696 327.076 26.4355C325.615 25.3013 324.529 23.7532 323.961 21.9931C323.393 20.2329 323.368 18.3423 323.89 16.5678C324.411 14.7933 325.456 13.2172 326.887 12.0449C325.117 13.0483 323.645 14.502 322.619 16.2584C321.593 18.0148 321.05 20.0115 321.046 22.0455C321.049 23.7679 321.435 25.468 322.174 27.0237C320.612 27.1908 319.104 27.6886 317.749 28.484C315.988 29.5006 314.528 30.9658 313.517 32.7302C312.507 34.4947 311.982 36.4955 311.996 38.5288C312.176 37.1232 312.682 35.7791 313.473 34.6036C314.264 33.4281 315.319 32.4539 316.554 31.7585Z" fill="#2C2D2F"/>
<path d="M340.072 47.2909C338.101 46.1573 336.621 44.3329 335.918 42.1707C335.215 40.0086 335.339 37.6625 336.266 35.5866L335.226 34.9893C334.94 35.2896 334.597 35.5302 334.217 35.6973C333.838 35.8644 333.429 35.9546 333.014 35.9628C332.581 35.9669 332.151 35.8827 331.752 35.7153C331.353 35.548 330.991 35.3009 330.691 34.9893L329.518 35.6751C330.542 37.7704 330.732 40.1761 330.05 42.4062C329.368 44.6362 327.865 46.5244 325.845 47.6891C324.643 48.3917 323.296 48.809 321.908 48.9087C320.519 49.0085 319.126 48.788 317.836 48.2644C319.591 49.291 321.588 49.832 323.622 49.832C325.655 49.832 327.652 49.291 329.407 48.2644C330.901 47.4149 332.18 46.2341 333.147 44.8129C334.844 47.0717 337.314 48.6269 340.084 49.1818C342.855 49.7368 345.733 49.2527 348.17 47.8219C346.871 48.3665 345.463 48.602 344.058 48.5098C342.653 48.4177 341.288 48.0004 340.072 47.2909Z" fill="#2C2D2F"/>
<path d="M341.711 19.1692C341.711 21.4188 340.887 23.5905 339.395 25.2741C337.903 26.9577 335.847 28.0366 333.613 28.307V29.6124C334.315 29.7857 334.939 30.1894 335.384 30.759C335.829 31.3286 336.07 32.0312 336.069 32.7541C336.072 33.0688 336.027 33.382 335.936 33.6834L336.932 34.2586C337.96 32.7002 339.438 31.4914 341.17 30.7927C342.901 30.0939 344.804 29.9382 346.626 30.3463C348.448 30.7544 350.103 31.7069 351.371 33.0775C352.639 34.448 353.46 36.1718 353.725 38.0199C353.745 35.106 352.661 32.2925 350.691 30.1456C348.72 27.9987 346.01 26.6777 343.105 26.4484C343.703 25.0498 344.012 23.5445 344.012 22.0234C344.015 20.0013 343.484 18.0143 342.474 16.2625C341.465 14.5107 340.011 13.056 338.26 12.0449C339.331 12.8987 340.197 13.982 340.795 15.215C341.392 16.4479 341.705 17.7992 341.711 19.1692Z" fill="#2C2D2F"/>
<path d="M328.193 25.7846C329.509 24.8856 331.06 24.3937 332.654 24.3701C334.247 24.3465 335.812 24.7922 337.154 25.6518C337.86 25.1591 338.481 24.5537 338.99 23.8597C337.139 22.522 334.906 21.8168 332.622 21.8487C330.338 21.8806 328.126 22.6479 326.312 24.0367C326.828 24.7291 327.465 25.3214 328.193 25.7846Z" fill="#2C2D2F"/>
<path d="M336.734 39.5467C336.772 40.4345 336.959 41.3097 337.288 42.1354C339.126 41.2789 340.682 39.917 341.775 38.2088C342.868 36.5007 343.453 34.5167 343.46 32.4888C343.46 32.1569 343.46 31.825 343.46 31.4932C342.586 31.6434 341.741 31.9348 340.96 32.356V32.4888C340.953 33.936 340.557 35.3546 339.813 36.5962C339.07 37.8378 338.007 38.8569 336.734 39.5467Z" fill="#2C2D2F"/>
<path d="M329.1 39.7021C327.787 39.0315 326.681 38.0161 325.902 36.7649C325.122 35.5137 324.698 34.0739 324.675 32.5999C323.879 32.2166 323.028 31.9626 322.152 31.8477C322.152 32.0468 322.152 32.268 322.152 32.4893C322.164 34.5966 322.801 36.6531 323.983 38.398C325.164 40.143 326.837 41.4978 328.79 42.2908C329.026 41.4491 329.131 40.5758 329.1 39.7021Z" fill="#2C2D2F"/>
<path d="M303.102 2H362.729V30.2097C362.729 50.1224 350.494 63.2648 332.794 70.4112C315.978 64.6144 303.389 51.6048 303.256 28.9928L303.102 2Z" stroke="#2C2D2F" stroke-width="2.03552" stroke-miterlimit="2.61"/>
</svg>
