<svg width="214" height="72" viewBox="0 0 214 72" fill="none" xmlns="http://www.w3.org/2000/svg">
<path d="M152.562 2H212.168V30.2097C212.168 50.1224 199.955 63.2648 182.255 70.4112C165.417 64.6144 152.828 51.6048 152.717 28.9928L152.562 2Z" stroke="#2C2D2F" stroke-width="2.03552" stroke-miterlimit="2.61"/>
<path d="M155.949 46.7593H208.718" stroke="#2C2D2F" stroke-width="3.05328" stroke-miterlimit="2.61"/>
<path fill-rule="evenodd" clip-rule="evenodd" d="M182.92 23.6162C183.357 23.6162 183.785 23.746 184.149 23.9891C184.513 24.2322 184.796 24.5778 184.964 24.982C185.131 25.3863 185.175 25.8312 185.09 26.2604C185.004 26.6896 184.793 27.0838 184.484 27.3932C184.175 27.7027 183.78 27.9134 183.351 27.9987C182.922 28.0841 182.477 28.0403 182.073 27.8728C181.669 27.7054 181.323 27.4218 181.08 27.0579C180.837 26.6941 180.707 26.2663 180.707 25.8287C180.707 25.2419 180.94 24.6792 181.355 24.2642C181.77 23.8493 182.333 23.6162 182.92 23.6162Z" fill="#2C2D2F" stroke="#2C2D2F" stroke-width="0.50888" stroke-miterlimit="2.61"/>
<path fill-rule="evenodd" clip-rule="evenodd" d="M182.92 32.3564C183.357 32.3564 183.785 32.4862 184.149 32.7293C184.513 32.9724 184.796 33.318 184.964 33.7223C185.131 34.1266 185.175 34.5714 185.09 35.0006C185.004 35.4298 184.793 35.824 184.484 36.1335C184.175 36.4429 183.78 36.6536 183.351 36.739C182.922 36.8243 182.477 36.7805 182.073 36.6131C181.669 36.4456 181.323 36.162 181.08 35.7982C180.837 35.4343 180.707 35.0066 180.707 34.569C180.707 33.9822 180.94 33.4194 181.355 33.0045C181.77 32.5895 182.333 32.3564 182.92 32.3564Z" fill="#2C2D2F" stroke="#2C2D2F" stroke-width="0.50888" stroke-miterlimit="2.61"/>
<path fill-rule="evenodd" clip-rule="evenodd" d="M184.997 43.4632C188.154 41.3979 191.54 39.7051 195.086 38.4186C198.272 37.4673 201.304 37.0911 201.569 39.1488C201.901 41.7153 200.131 42.0251 197.144 40.5869C193.449 38.7284 188.98 41.8702 184.887 43.4632H184.997Z" fill="#2C2D2F"/>
<path fill-rule="evenodd" clip-rule="evenodd" d="M180.549 43.4632C177.392 41.3979 174.006 39.7051 170.46 38.4186C167.274 37.4673 164.243 37.0911 163.977 39.1488C163.645 41.7153 165.415 42.0251 168.402 40.5869C172.119 38.7284 176.589 41.8702 180.66 43.4632H180.549Z" fill="#2C2D2F"/>
<path fill-rule="evenodd" clip-rule="evenodd" d="M184.996 42.0242C186.515 39.6962 188.297 37.5507 190.306 35.63C192.165 34.037 194.112 32.8865 194.908 34.1697C195.882 35.8291 194.775 36.5593 192.408 36.3823C189.355 36.2495 187.275 39.6789 184.996 41.98V42.0242Z" fill="#2C2D2F"/>
<path fill-rule="evenodd" clip-rule="evenodd" d="M180.662 42.0242C179.158 39.6915 177.383 37.5452 175.374 35.63C173.493 34.037 171.568 32.8865 170.772 34.1697C169.776 35.8291 170.882 36.5593 173.272 36.3823C176.303 36.2495 178.405 39.6789 180.662 41.98V42.0242Z" fill="#2C2D2F"/>
<path d="M186.457 6.73486C186.125 9.30139 187.895 10.1643 192.939 9.61114L205.905 8.173C211.171 7.61987 208.958 13.7486 206.613 18.9701" stroke="#2C2D2F" stroke-width="1.52664" stroke-miterlimit="2.61"/>
<path fill-rule="evenodd" clip-rule="evenodd" d="M182.123 19.6995C182.105 19.1609 182.197 18.6242 182.396 18.123C182.594 17.6219 182.894 17.167 183.276 16.7869C183.658 16.4069 184.114 16.1098 184.617 15.9143C185.119 15.7187 185.656 15.629 186.194 15.6506H208.32L204.138 27.9522C202.501 32.7534 199.492 31.1383 196.549 28.262L185.995 18.018C184.823 17.1994 183.23 18.4605 182.123 19.6995Z" fill="#2C2D2F" stroke="#2C2D2F" stroke-width="0.50888" stroke-miterlimit="2.61"/>
<path d="M2 2H61.7381V30.2097C61.7381 50.1224 49.5029 63.2648 31.8027 70.4112C14.8769 64.6144 2.28763 51.6048 2.15488 28.9928L2 2Z" stroke="#2C2D2F" stroke-width="2.03552" stroke-miterlimit="2.61"/>
<path d="M21.8477 26.1162C23.6738 27.1041 25.2019 28.5633 26.2727 30.3421V41.5817L21.1175 54.702C20.8115 55.2974 20.6259 55.9474 20.5715 56.6147C20.5171 57.282 20.5949 57.9534 20.8004 58.5906C21.006 59.2277 21.3352 59.8181 21.7693 60.3277C22.2034 60.8374 22.7338 61.2565 23.3301 61.5608H38.3531C41.2515 60.5873 42.3577 57.9987 40.9417 54.4808L35.9193 41.803V30.3864C37.0233 28.8499 38.4223 27.5487 40.0346 26.5587" stroke="#2C2D2F" stroke-width="1.52664" stroke-miterlimit="2.61"/>
<path fill-rule="evenodd" clip-rule="evenodd" d="M35.8754 40.3428H26.2731L20.8967 55.1667C20.445 56.3014 20.4204 57.5613 20.8273 58.7128C21.2342 59.8643 22.0449 60.8291 23.1092 61.4281L38.3092 61.5609C39.4332 61.2457 40.3871 60.4991 40.9631 59.4838C41.5391 58.4685 41.6906 57.2667 41.3846 56.1402L35.8754 40.3428Z" fill="#2C2D2F" stroke="#2C2D2F" stroke-width="0.50888" stroke-miterlimit="2.61"/>
<path d="M57.048 26.1607C56.0222 26.8011 54.8266 27.1164 53.6184 27.065C52.4101 27.0137 51.2456 26.5982 50.2777 25.8731C49.0182 24.8578 47.4421 24.3171 45.8246 24.3454C44.2071 24.3737 42.6508 24.9692 41.4276 26.028M41.5604 8.52691C42.7836 7.46814 44.3398 6.87263 45.9573 6.84432C47.5749 6.81601 49.151 7.35671 50.4105 8.37203C51.3783 9.09716 52.5428 9.51266 53.7511 9.56399C54.9594 9.61532 56.1549 9.30008 57.1808 8.65966L41.5604 8.52691ZM57.1808 14.5228C56.1501 15.1811 54.9429 15.5084 53.7209 15.4609C52.4989 15.4135 51.3206 14.9935 50.3441 14.2573C49.0872 13.239 47.5125 12.6944 45.895 12.7187C44.2775 12.7429 42.7198 13.3345 41.494 14.3901C38.3522 16.6026 34.1484 14.3901 34.1484 14.3901L57.1808 14.5228ZM57.1144 20.6073C56.0886 21.2477 54.893 21.5629 53.6847 21.5116C52.4765 21.4603 51.312 21.0448 50.3441 20.3197C49.0846 19.3043 47.5085 18.7636 45.891 18.7919C44.2734 18.8202 42.7172 19.4158 41.494 20.4745C40.3547 21.0484 39.0969 21.3473 37.8212 21.3473C36.5456 21.3473 35.2877 21.0484 34.1484 20.4745L57.1144 20.6073Z" stroke="#2C2D2F" stroke-width="1.72577" stroke-miterlimit="2.61"/>
<path d="M77.293 2H136.898V30.2097C136.898 50.1224 124.663 63.2648 106.985 70.4112C90.1477 64.6144 77.5585 51.6048 77.4257 28.9928L77.293 2Z" stroke="#2C2D2F" stroke-width="2.03552" stroke-miterlimit="2.61"/>
<path d="M83.5985 7.44311C83.9799 7.44311 84.3457 7.59463 84.6154 7.86433C84.8851 8.13404 85.0366 8.49983 85.0366 8.88125C85.0366 9.07011 84.9994 9.25712 84.9271 9.4316C84.8549 9.60609 84.7489 9.76463 84.6154 9.89817C84.4818 10.0317 84.3233 10.1376 84.1488 10.2099C83.9743 10.2822 83.7873 10.3194 83.5985 10.3194C83.4096 10.3194 83.2226 10.2822 83.0481 10.2099C82.8736 10.1376 82.7151 10.0317 82.5816 9.89817C82.448 9.76463 82.3421 9.60609 82.2698 9.4316C82.1975 9.25712 82.1603 9.07011 82.1603 8.88125C82.1603 8.49983 82.3119 8.13404 82.5816 7.86433C82.8513 7.59463 83.2171 7.44311 83.5985 7.44311V7.44311ZM89.351 6.00497C89.6355 6.00497 89.9135 6.08932 90.15 6.24734C90.3865 6.40537 90.5709 6.62997 90.6797 6.89276C90.7886 7.15555 90.817 7.44471 90.7615 7.72368C90.7061 8.00265 90.5691 8.2589 90.368 8.46003C90.1668 8.66116 89.9106 8.79813 89.6316 8.85362C89.3526 8.90911 89.0635 8.88063 88.8007 8.77178C88.5379 8.66293 88.3133 8.4786 88.1553 8.2421C87.9972 8.0056 87.9129 7.72755 87.9129 7.44311C87.9129 7.06169 88.0644 6.6959 88.3341 6.42619C88.6038 6.15649 88.9696 6.00497 89.351 6.00497V6.00497ZM96.4754 7.42099C96.7598 7.42099 97.0378 7.50533 97.2743 7.66336C97.5109 7.82138 97.6952 8.04599 97.804 8.30877C97.9129 8.57156 97.9414 8.86072 97.8859 9.13969C97.8304 9.41867 97.6934 9.67492 97.4923 9.87605C97.2912 10.0772 97.0349 10.2141 96.7559 10.2696C96.477 10.3251 96.1878 10.2966 95.925 10.1878C95.6622 10.0789 95.4376 9.89462 95.2796 9.65811C95.1216 9.42161 95.0372 9.14356 95.0372 8.85913C95.0372 8.47771 95.1887 8.11191 95.4584 7.84221C95.7281 7.5725 96.0939 7.42099 96.4754 7.42099ZM116.72 16.0941C117.004 16.0941 117.282 16.1784 117.519 16.3364C117.755 16.4945 117.94 16.7191 118.049 16.9819C118.157 17.2446 118.186 17.5338 118.13 17.8128C118.075 18.0918 117.938 18.348 117.737 18.5491C117.536 18.7503 117.279 18.8872 117.001 18.9427C116.722 18.9982 116.432 18.9697 116.17 18.8609C115.907 18.752 115.682 18.5677 115.524 18.3312C115.366 18.0947 115.282 17.8167 115.282 17.5322C115.282 17.1508 115.433 16.785 115.703 16.5153C115.973 16.2456 116.339 16.0941 116.72 16.0941V16.0941ZM118.247 12.4877C118.628 12.4877 118.994 12.6392 119.263 12.9089C119.533 13.1786 119.685 13.5444 119.685 13.9258C119.685 14.3072 119.533 14.673 119.263 14.9427C118.994 15.2124 118.628 15.3639 118.247 15.3639C117.865 15.3639 117.499 15.2124 117.23 14.9427C116.96 14.673 116.808 14.3072 116.808 13.9258C116.808 13.5444 116.96 13.1786 117.23 12.9089C117.499 12.6392 117.865 12.4877 118.247 12.4877V12.4877ZM118.247 7.44311C118.63 7.44307 118.998 7.59388 119.271 7.86296C119.545 8.13205 119.701 8.49781 119.707 8.88125C119.701 9.26676 119.545 9.63487 119.273 9.9075C119 10.1801 118.632 10.3358 118.247 10.3415C117.863 10.3357 117.497 10.1793 117.228 9.90607C116.959 9.63285 116.808 9.26473 116.808 8.88125C116.808 8.49983 116.96 8.13404 117.23 7.86433C117.499 7.59463 117.865 7.44311 118.247 7.44311ZM104.971 4.1907C105.256 4.1907 105.534 4.27505 105.77 4.43307C106.007 4.5911 106.191 4.81571 106.3 5.07849C106.409 5.34128 106.437 5.63044 106.382 5.90941C106.326 6.18838 106.189 6.44463 105.988 6.64576C105.787 6.84689 105.531 6.98386 105.252 7.03935C104.973 7.09484 104.684 7.06636 104.421 6.95751C104.158 6.84866 103.934 6.66433 103.776 6.42783C103.618 6.19133 103.533 5.91328 103.533 5.62884C103.533 5.24742 103.685 4.88163 103.955 4.61193C104.224 4.34222 104.59 4.1907 104.971 4.1907ZM101.365 8.61575C101.649 8.61575 101.928 8.70009 102.164 8.85812C102.401 9.01614 102.585 9.24075 102.694 9.50354C102.803 9.76632 102.831 10.0555 102.776 10.3345C102.72 10.6134 102.583 10.8697 102.382 11.0708C102.181 11.2719 101.925 11.4089 101.646 11.4644C101.367 11.5199 101.077 11.4914 100.815 11.3826C100.552 11.2737 100.327 11.0894 100.169 10.8529C100.011 10.6164 99.9269 10.3383 99.9269 10.0539C99.9269 9.67247 100.078 9.30667 100.348 9.03697C100.618 8.76727 100.984 8.61575 101.365 8.61575V8.61575ZM98.4888 13.0408C98.7732 13.0408 99.0512 13.1251 99.2877 13.2832C99.5242 13.4412 99.7086 13.6658 99.8174 13.9286C99.9263 14.1914 99.9548 14.4805 99.8993 14.7595C99.8438 15.0385 99.7068 15.2947 99.5057 15.4959C99.3045 15.697 99.0483 15.8339 98.7693 15.8894C98.4903 15.9449 98.2012 15.9165 97.9384 15.8076C97.6756 15.6988 97.451 15.5144 97.293 15.2779C97.135 15.0414 97.0506 14.7634 97.0506 14.4789C97.0506 14.0975 97.2021 13.7317 97.4718 13.462C97.7415 13.1923 98.1073 13.0408 98.4888 13.0408V13.0408ZM103.755 15.3639C104.044 15.3596 104.329 15.4415 104.572 15.5992C104.815 15.757 105.005 15.9835 105.119 16.2499C105.233 16.5163 105.265 16.8106 105.212 17.0953C105.158 17.38 105.02 17.6423 104.817 17.8487C104.614 18.0551 104.354 18.1964 104.07 18.2546C103.786 18.3127 103.491 18.2851 103.223 18.1753C102.955 18.0655 102.726 17.8783 102.564 17.6377C102.403 17.3971 102.316 17.114 102.316 16.8242C102.316 16.4407 102.467 16.0726 102.736 15.7994C103.005 15.5262 103.371 15.3698 103.755 15.3639V15.3639ZM92.9574 11.7797C93.2419 11.7797 93.5199 11.864 93.7564 12.022C93.9929 12.1801 94.1773 12.4047 94.2861 12.6674C94.395 12.9302 94.4234 13.2194 94.368 13.4984C94.3125 13.7773 94.1755 14.0336 93.9744 14.2347C93.7732 14.4358 93.517 14.5728 93.238 14.6283C92.959 14.6838 92.6699 14.6553 92.4071 14.5465C92.1443 14.4376 91.9197 14.2533 91.7617 14.0168C91.6037 13.7803 91.5193 13.5022 91.5193 13.2178C91.5193 12.8364 91.6708 12.4706 91.9405 12.2009C92.2102 11.9312 92.576 11.7797 92.9574 11.7797V11.7797ZM88.3775 11.3814C88.6672 11.377 88.9517 11.4589 89.1947 11.6167C89.4378 11.7744 89.6284 12.0009 89.7423 12.2673C89.8562 12.5338 89.8883 12.828 89.8345 13.1127C89.7807 13.3975 89.6434 13.6597 89.4401 13.8662C89.2368 14.0726 88.9766 14.2139 88.6928 14.272C88.4089 14.3302 88.1142 14.3026 87.8461 14.1928C87.5779 14.0829 87.3486 13.8958 87.1871 13.6552C87.0257 13.4146 86.9394 13.1314 86.9394 12.8417C86.9393 12.4582 87.0902 12.0901 87.3592 11.8168C87.6283 11.5436 87.9941 11.3872 88.3775 11.3814ZM83.5985 13.9258C83.7892 13.9229 83.9786 13.9579 84.1556 14.0289C84.3327 14.0998 84.4938 14.2053 84.6297 14.3391C84.7656 14.473 84.8735 14.6325 84.9472 14.8084C85.0208 14.9844 85.0588 15.1732 85.0587 15.3639C85.0587 15.5528 85.0215 15.7398 84.9493 15.9143C84.877 16.0888 84.7711 16.2473 84.6375 16.3809C84.504 16.5144 84.3454 16.6203 84.171 16.6926C83.9965 16.7649 83.8095 16.8021 83.6206 16.8021C83.4317 16.8021 83.2447 16.7649 83.0703 16.6926C82.8958 16.6203 82.7372 16.5144 82.6037 16.3809C82.4701 16.2473 82.3642 16.0888 82.2919 15.9143C82.2197 15.7398 82.1825 15.5528 82.1825 15.3639C82.1825 14.9825 82.334 14.6167 82.6037 14.347C82.8734 14.0773 83.2392 13.9258 83.6206 13.9258H83.5985ZM81.386 18.3508C81.6704 18.3508 81.9484 18.4352 82.1849 18.5932C82.4214 18.7512 82.6058 18.9759 82.7146 19.2386C82.8235 19.5014 82.8519 19.7906 82.7965 20.0696C82.741 20.3485 82.604 20.6048 82.4029 20.8059C82.2017 21.007 81.9455 21.144 81.6665 21.1995C81.3875 21.255 81.0984 21.2265 80.8356 21.1177C80.5728 21.0088 80.3482 20.8245 80.1902 20.588C80.0322 20.3515 79.9478 20.0734 79.9478 19.789C79.9478 19.4076 80.0993 19.0418 80.369 18.7721C80.6387 18.5024 81.0045 18.3508 81.386 18.3508V18.3508ZM83.5985 24.1034C83.8829 24.1034 84.161 24.1878 84.3975 24.3458C84.634 24.5038 84.8183 24.7284 84.9271 24.9912C85.036 25.254 85.0645 25.5431 85.009 25.8221C84.9535 26.1011 84.8165 26.3573 84.6154 26.5585C84.4143 26.7596 84.158 26.8966 83.879 26.9521C83.6001 27.0075 83.3109 26.9791 83.0481 26.8702C82.7853 26.7614 82.5607 26.577 82.4027 26.3405C82.2447 26.104 82.1603 25.826 82.1603 25.5415C82.1603 25.1601 82.3119 24.7943 82.5816 24.5246C82.8513 24.2549 83.2171 24.1034 83.5985 24.1034V24.1034ZM90.0812 17.6207C90.3656 17.6207 90.6437 17.7051 90.8802 17.8631C91.1167 18.0211 91.301 18.2457 91.4098 18.5085C91.5187 18.7713 91.5472 19.0605 91.4917 19.3394C91.4362 19.6184 91.2992 19.8746 91.0981 20.0758C90.897 20.2769 90.6407 20.4139 90.3617 20.4694C90.0828 20.5249 89.7936 20.4964 89.5308 20.3875C89.268 20.2787 89.0434 20.0943 88.8854 19.8578C88.7274 19.6213 88.643 19.3433 88.643 19.0589C88.643 18.6774 88.7945 18.3116 89.0642 18.0419C89.334 17.7722 89.6998 17.6207 90.0812 17.6207V17.6207ZM95.5903 17.9526C95.8801 17.9482 96.1645 18.0301 96.4076 18.1879C96.6506 18.3456 96.8412 18.5721 96.9551 18.8385C97.0691 19.105 97.1011 19.3992 97.0473 19.6839C96.9935 19.9686 96.8562 20.2309 96.6529 20.4373C96.4496 20.6438 96.1894 20.7851 95.9056 20.8432C95.6217 20.9014 95.327 20.8738 95.0589 20.764C94.7908 20.6541 94.5614 20.467 94.3999 20.2264C94.2385 19.9858 94.1522 19.7026 94.1522 19.4129C94.1522 19.0294 94.303 18.6613 94.5721 18.388C94.8411 18.1148 95.2069 17.9584 95.5903 17.9526ZM99.4401 23.3954C99.7246 23.3954 100.003 23.4797 100.239 23.6378C100.476 23.7958 100.66 24.0204 100.769 24.2832C100.878 24.546 100.906 24.8351 100.851 25.1141C100.795 25.3931 100.658 25.6493 100.457 25.8505C100.256 26.0516 99.9997 26.1886 99.7207 26.244C99.4417 26.2995 99.1526 26.2711 98.8898 26.1622C98.627 26.0534 98.4024 25.869 98.2444 25.6325C98.0863 25.396 98.002 25.118 98.002 24.8335C98.002 24.4521 98.1535 24.0863 98.4232 23.8166C98.6929 23.5469 99.0587 23.3954 99.4401 23.3954ZM98.002 29.148C98.2864 29.148 98.5645 29.2323 98.801 29.3903C99.0375 29.5484 99.2218 29.773 99.3307 30.0357C99.4395 30.2985 99.468 30.5877 99.4125 30.8667C99.357 31.1456 99.22 31.4019 99.0189 31.603C98.8178 31.8041 98.5615 31.9411 98.2826 31.9966C98.0036 32.0521 97.7144 32.0236 97.4517 31.9148C97.1889 31.8059 96.9643 31.6216 96.8062 31.3851C96.6482 31.1486 96.5639 30.8705 96.5639 30.5861C96.5639 30.2047 96.7154 29.8389 96.9851 29.5692C97.2548 29.2995 97.6206 29.148 98.002 29.148ZM94.8602 26.6036C95.1447 26.6036 95.4227 26.6879 95.6592 26.8459C95.8957 27.004 96.08 27.2286 96.1889 27.4913C96.2977 27.7541 96.3262 28.0433 96.2707 28.3223C96.2152 28.6012 96.0783 28.8575 95.8771 29.0586C95.676 29.2597 95.4198 29.3967 95.1408 29.4522C94.8618 29.5077 94.5727 29.4792 94.3099 29.3704C94.0471 29.2615 93.8225 29.0772 93.6644 28.8407C93.5064 28.6042 93.4221 28.3261 93.4221 28.0417C93.4221 27.6603 93.5736 27.2945 93.8433 27.0248C94.113 26.7551 94.4788 26.6036 94.8602 26.6036ZM87.9129 28.4178C88.2963 28.4236 88.6621 28.58 88.9312 28.8533C89.2003 29.1265 89.3511 29.4946 89.351 29.8781C89.351 30.2595 89.1995 30.6253 88.9298 30.895C88.6601 31.1647 88.2943 31.3162 87.9129 31.3162C87.5315 31.3162 87.1657 31.1647 86.896 30.895C86.6263 30.6253 86.4748 30.2595 86.4748 29.8781C86.4747 29.4946 86.6255 29.1265 86.8946 28.8533C87.1637 28.58 87.5295 28.4236 87.9129 28.4178ZM83.5985 29.7453C83.8829 29.7453 84.161 29.8297 84.3975 29.9877C84.634 30.1457 84.8183 30.3703 84.9271 30.6331C85.036 30.8959 85.0645 31.1851 85.009 31.464C84.9535 31.743 84.8165 31.9993 84.6154 32.2004C84.4143 32.4015 84.158 32.5385 83.879 32.594C83.6001 32.6495 83.3109 32.621 83.0481 32.5121C82.7853 32.4033 82.5607 32.219 82.4027 31.9825C82.2447 31.746 82.1603 31.4679 82.1603 31.1835C82.1603 30.8021 82.3119 30.4363 82.5816 30.1666C82.8513 29.8969 83.2171 29.7453 83.5985 29.7453ZM81.1868 34.3916C81.4703 34.396 81.7461 34.484 81.9797 34.6447C82.2133 34.8053 82.3942 35.0314 82.4996 35.2946C82.6051 35.5577 82.6304 35.8462 82.5725 36.1237C82.5145 36.4012 82.3758 36.6553 82.1738 36.8543C81.9718 37.0532 81.7156 37.188 81.4372 37.2417C81.1589 37.2954 80.8709 37.2657 80.6094 37.1562C80.3479 37.0467 80.1245 36.8624 79.9675 36.6264C79.8104 36.3904 79.7266 36.1133 79.7266 35.8298C79.7324 35.4463 79.8888 35.0806 80.162 34.8115C80.4352 34.5424 80.8033 34.3916 81.1868 34.3916V34.3916ZM82.8462 39.8566C83.2276 39.8566 83.5934 40.0081 83.8631 40.2778C84.1328 40.5475 84.2844 40.9133 84.2844 41.2947C84.2844 41.4836 84.2472 41.6706 84.1749 41.8451C84.1026 42.0195 83.9967 42.1781 83.8631 42.3116C83.7296 42.4452 83.5711 42.5511 83.3966 42.6234C83.2221 42.6957 83.0351 42.7329 82.8462 42.7329C82.6574 42.7329 82.4703 42.6957 82.2959 42.6234C82.1214 42.5511 81.9628 42.4452 81.8293 42.3116C81.6958 42.1781 81.5898 42.0195 81.5176 41.8451C81.4453 41.6706 81.4081 41.4836 81.4081 41.2947C81.4081 40.9133 81.5596 40.5475 81.8293 40.2778C82.099 40.0081 82.4648 39.8566 82.8462 39.8566ZM89.0855 41.6487C89.37 41.6487 89.648 41.7331 89.8845 41.8911C90.121 42.0491 90.3053 42.2737 90.4142 42.5365C90.523 42.7993 90.5515 43.0884 90.496 43.3674C90.4406 43.6464 90.3036 43.9026 90.1025 44.1038C89.9013 44.3049 89.6451 44.4419 89.3661 44.4974C89.0871 44.5529 88.798 44.5244 88.5352 44.4155C88.2724 44.3067 88.0478 44.1223 87.8898 43.8858C87.7317 43.6493 87.6474 43.3713 87.6474 43.0869C87.6474 42.7054 87.7989 42.3396 88.0686 42.0699C88.3383 41.8002 88.7041 41.6487 89.0855 41.6487V41.6487ZM89.0855 38.0423C89.37 38.0423 89.648 38.1266 89.8845 38.2847C90.121 38.4427 90.3053 38.6673 90.4142 38.9301C90.523 39.1929 90.5515 39.482 90.496 39.761C90.4406 40.04 90.3036 40.2962 90.1025 40.4974C89.9013 40.6985 89.6451 40.8355 89.3661 40.8909C89.0871 40.9464 88.798 40.918 88.5352 40.8091C88.2724 40.7003 88.0478 40.5159 87.8898 40.2794C87.7317 40.0429 87.6474 39.7649 87.6474 39.4804C87.6474 39.099 87.7989 38.7332 88.0686 38.4635C88.3383 38.1938 88.7041 38.0423 89.0855 38.0423ZM94.3735 35.5422C94.6579 35.5422 94.936 35.6265 95.1725 35.7845C95.409 35.9425 95.5933 36.1672 95.7021 36.4299C95.811 36.6927 95.8395 36.9819 95.784 37.2609C95.7285 37.5398 95.5915 37.7961 95.3904 37.9972C95.1893 38.1983 94.933 38.3353 94.654 38.3908C94.3751 38.4463 94.0859 38.4178 93.8231 38.309C93.5603 38.2001 93.3357 38.0158 93.1777 37.7793C93.0197 37.5428 92.9353 37.2647 92.9353 36.9803C92.9353 36.5989 93.0868 36.2331 93.3565 35.9634C93.6262 35.6937 93.992 35.5422 94.3735 35.5422V35.5422ZM99.1525 37.3122C99.3579 37.2867 99.5663 37.3053 99.7639 37.3665C99.9616 37.4277 100.144 37.5302 100.299 37.6672C100.454 37.8042 100.578 37.9727 100.663 38.1613C100.748 38.3499 100.792 38.5545 100.792 38.7614C100.792 38.9683 100.748 39.1728 100.663 39.3615C100.578 39.5501 100.454 39.7185 100.299 39.8555C100.144 39.9926 99.9616 40.0951 99.7639 40.1563C99.5663 40.2175 99.3579 40.236 99.1525 40.2106C98.799 40.1668 98.4737 39.9953 98.2378 39.7284C98.0019 39.4615 97.8717 39.1176 97.8717 38.7614C97.8717 38.4052 98.0019 38.0612 98.2378 37.7943C98.4737 37.5274 98.799 37.3559 99.1525 37.3122V37.3122ZM95.5682 40.9186C95.8527 40.9186 96.1307 41.0029 96.3672 41.161C96.6037 41.319 96.788 41.5436 96.8969 41.8064C97.0057 42.0692 97.0342 42.3583 96.9787 42.6373C96.9232 42.9163 96.7863 43.1725 96.5851 43.3736C96.384 43.5748 96.1278 43.7117 95.8488 43.7672C95.5698 43.8227 95.2807 43.7942 95.0179 43.6854C94.7551 43.5765 94.5305 43.3922 94.3725 43.1557C94.2144 42.9192 94.1301 42.6412 94.1301 42.3567C94.1301 41.9753 94.2816 41.6095 94.5513 41.3398C94.821 41.0701 95.1868 40.9186 95.5682 40.9186ZM104.971 40.2106C105.256 40.2106 105.534 40.2949 105.77 40.4529C106.007 40.611 106.191 40.8356 106.3 41.0984C106.409 41.3611 106.437 41.6503 106.382 41.9293C106.326 42.2083 106.189 42.4645 105.988 42.6656C105.787 42.8668 105.531 43.0037 105.252 43.0592C104.973 43.1147 104.684 43.0862 104.421 42.9774C104.158 42.8685 103.934 42.6842 103.776 42.4477C103.618 42.2112 103.533 41.9331 103.533 41.6487C103.533 41.2673 103.685 40.9015 103.955 40.6318C104.224 40.3621 104.59 40.2106 104.971 40.2106ZM106.144 35.7855C106.525 35.7855 106.891 35.937 107.161 36.2068C107.431 36.4765 107.582 36.8422 107.582 37.2237C107.582 37.6051 107.431 37.9709 107.161 38.2406C106.891 38.5103 106.525 38.6618 106.144 38.6618C105.763 38.6618 105.397 38.5103 105.127 38.2406C104.857 37.9709 104.706 37.6051 104.706 37.2237C104.706 36.8422 104.857 36.4765 105.127 36.2068C105.397 35.937 105.763 35.7855 106.144 35.7855V35.7855ZM110.259 32.6216C110.544 32.6216 110.822 32.706 111.058 32.864C111.295 33.022 111.479 33.2466 111.588 33.5094C111.697 33.7722 111.725 34.0614 111.67 34.3403C111.614 34.6193 111.477 34.8756 111.276 35.0767C111.075 35.2778 110.819 35.4148 110.54 35.4703C110.261 35.5258 109.972 35.4973 109.709 35.3884C109.446 35.2796 109.222 35.0953 109.064 34.8587C108.906 34.6222 108.821 34.3442 108.821 34.0598C108.821 33.6783 108.973 33.3125 109.242 33.0428C109.512 32.7731 109.878 32.6216 110.259 32.6216ZM106.41 28.6391C106.694 28.6391 106.972 28.7234 107.209 28.8815C107.445 29.0395 107.629 29.2641 107.738 29.5269C107.847 29.7897 107.876 30.0788 107.82 30.3578C107.765 30.6368 107.628 30.893 107.427 31.0941C107.225 31.2953 106.969 31.4322 106.69 31.4877C106.411 31.5432 106.122 31.5147 105.859 31.4059C105.596 31.297 105.372 31.1127 105.214 30.8762C105.056 30.6397 104.971 30.3617 104.971 30.0772C104.971 29.6958 105.123 29.33 105.393 29.0603C105.662 28.7906 106.028 28.6391 106.41 28.6391V28.6391ZM110.99 26.1389C111.274 26.1389 111.552 26.2233 111.788 26.3813C112.025 26.5393 112.209 26.7639 112.318 27.0267C112.427 27.2895 112.456 27.5787 112.4 27.8576C112.345 28.1366 112.208 28.3929 112.006 28.594C111.805 28.7951 111.549 28.9321 111.27 28.9876C110.991 29.0431 110.702 29.0146 110.439 28.9057C110.176 28.7969 109.952 28.6126 109.794 28.3761C109.636 28.1396 109.551 27.8615 109.551 27.5771C109.551 27.3882 109.589 27.2012 109.661 27.0267C109.733 26.8522 109.839 26.6937 109.973 26.5602C110.106 26.4266 110.265 26.3207 110.439 26.2484C110.614 26.1761 110.801 26.1389 110.99 26.1389ZM117.937 37.2015C118.227 37.1972 118.511 37.279 118.754 37.4368C118.997 37.5946 119.188 37.8211 119.302 38.0875C119.416 38.3539 119.448 38.6482 119.394 38.9329C119.34 39.2176 119.203 39.4798 118.999 39.6863C118.796 39.8927 118.536 40.034 118.252 40.0922C117.968 40.1503 117.673 40.1227 117.405 40.0129C117.137 39.9031 116.908 39.7159 116.746 39.4753C116.585 39.2347 116.499 38.9516 116.499 38.6618C116.499 38.2783 116.649 37.9102 116.919 37.637C117.188 37.3638 117.553 37.2074 117.937 37.2015V37.2015ZM113.822 40.5867C114.106 40.5867 114.384 40.671 114.621 40.8291C114.857 40.9871 115.041 41.2117 115.15 41.4745C115.259 41.7373 115.288 42.0264 115.232 42.3054C115.177 42.5844 115.04 42.8406 114.838 43.0418C114.637 43.2429 114.381 43.3799 114.102 43.4353C113.823 43.4908 113.534 43.4624 113.271 43.3535C113.008 43.2447 112.784 43.0603 112.626 42.8238C112.468 42.5873 112.383 42.3093 112.383 42.0248C112.383 41.6434 112.535 41.2776 112.805 41.0079C113.074 40.7382 113.44 40.5867 113.822 40.5867V40.5867ZM123.645 40.2106C123.93 40.2106 124.208 40.2949 124.444 40.4529C124.681 40.611 124.865 40.8356 124.974 41.0984C125.083 41.3611 125.111 41.6503 125.056 41.9293C125 42.2083 124.863 42.4645 124.662 42.6656C124.461 42.8668 124.205 43.0037 123.926 43.0592C123.647 43.1147 123.358 43.0862 123.095 42.9774C122.832 42.8685 122.607 42.6842 122.449 42.4477C122.291 42.2112 122.207 41.9331 122.207 41.6487C122.207 41.2673 122.359 40.9015 122.628 40.6318C122.898 40.3621 123.264 40.2106 123.645 40.2106ZM127.252 37.9981C127.536 37.9981 127.814 38.0824 128.051 38.2404C128.287 38.3984 128.471 38.6231 128.58 38.8858C128.689 39.1486 128.718 39.4378 128.662 39.7168C128.607 39.9957 128.47 40.252 128.268 40.4531C128.067 40.6542 127.811 40.7912 127.532 40.8467C127.253 40.9022 126.964 40.8737 126.701 40.7649C126.438 40.656 126.214 40.4717 126.056 40.2352C125.898 39.9987 125.813 39.7206 125.813 39.4362C125.813 39.0548 125.965 38.689 126.235 38.4193C126.504 38.1496 126.87 37.9981 127.252 37.9981ZM131.677 36.5599C132.058 36.5599 132.424 36.7114 132.694 36.9811C132.963 37.2508 133.115 37.6166 133.115 37.9981C133.115 38.3795 132.963 38.7453 132.694 39.015C132.424 39.2847 132.058 39.4362 131.677 39.4362C131.295 39.4362 130.929 39.2847 130.66 39.015C130.39 38.7453 130.238 38.3795 130.238 37.9981C130.238 37.6166 130.39 37.2508 130.66 36.9811C130.929 36.7114 131.295 36.5599 131.677 36.5599V36.5599ZM132.407 30.7852C132.696 30.7808 132.981 30.8627 133.224 31.0205C133.467 31.1783 133.658 31.4048 133.772 31.6712C133.885 31.9376 133.918 32.2319 133.864 32.5166C133.81 32.8013 133.673 33.0635 133.469 33.27C133.266 33.4764 133.006 33.6177 132.722 33.6759C132.438 33.734 132.143 33.7064 131.875 33.5966C131.607 33.4867 131.378 33.2996 131.216 33.059C131.055 32.8184 130.969 32.5352 130.969 32.2455C130.969 31.862 131.119 31.4939 131.388 31.2207C131.658 30.9474 132.023 30.791 132.407 30.7852V30.7852ZM134.619 25.0327C134.904 25.0327 135.182 25.117 135.418 25.275C135.655 25.4331 135.839 25.6577 135.948 25.9205C136.057 26.1832 136.085 26.4724 136.03 26.7514C135.974 27.0303 135.837 27.2866 135.636 27.4877C135.435 27.6889 135.179 27.8258 134.9 27.8813C134.621 27.9368 134.332 27.9083 134.069 27.7995C133.806 27.6906 133.582 27.5063 133.423 27.2698C133.265 27.0333 133.181 26.7552 133.181 26.4708C133.181 26.0894 133.333 25.7236 133.602 25.4539C133.872 25.1842 134.238 25.0327 134.619 25.0327V25.0327ZM129.11 23.9707C129.395 23.9707 129.673 24.055 129.909 24.213C130.146 24.3711 130.33 24.5957 130.439 24.8584C130.548 25.1212 130.576 25.4104 130.521 25.6894C130.465 25.9683 130.328 26.2246 130.127 26.4257C129.926 26.6268 129.67 26.7638 129.391 26.8193C129.112 26.8748 128.823 26.8463 128.56 26.7375C128.297 26.6286 128.072 26.4443 127.914 26.2078C127.756 25.9713 127.672 25.6932 127.672 25.4088C127.672 25.0274 127.823 24.6616 128.093 24.3919C128.363 24.1222 128.729 23.9707 129.11 23.9707V23.9707ZM126.101 34.1704C126.482 34.1704 126.848 34.3219 127.118 34.5916C127.388 34.8613 127.539 35.2271 127.539 35.6085C127.539 35.9899 127.388 36.3557 127.118 36.6254C126.848 36.8951 126.482 37.0467 126.101 37.0467C125.72 37.0467 125.354 36.8951 125.084 36.6254C124.814 36.3557 124.663 35.9899 124.663 35.6085C124.663 35.2271 124.814 34.8613 125.084 34.5916C125.354 34.3219 125.72 34.1704 126.101 34.1704V34.1704ZM126.101 29.1258C126.482 29.1258 126.848 29.2774 127.118 29.5471C127.388 29.8168 127.539 30.1826 127.539 30.564C127.539 30.9454 127.388 31.3112 127.118 31.5809C126.848 31.8506 126.482 32.0021 126.101 32.0021C125.72 32.0021 125.354 31.8506 125.084 31.5809C124.814 31.3112 124.663 30.9454 124.663 30.564C124.663 30.1826 124.814 29.8168 125.084 29.5471C125.354 29.2774 125.72 29.1258 126.101 29.1258ZM120.791 30.1878C121.075 30.1878 121.353 30.2722 121.59 30.4302C121.826 30.5882 122.011 30.8128 122.12 31.0756C122.229 31.3384 122.257 31.6276 122.201 31.9066C122.146 32.1855 122.009 32.4418 121.808 32.6429C121.607 32.844 121.351 32.981 121.072 33.0365C120.793 33.092 120.503 33.0635 120.241 32.9547C119.978 32.8458 119.753 32.6615 119.595 32.425C119.437 32.1885 119.353 31.9104 119.353 31.626C119.353 31.2446 119.504 30.8788 119.774 30.6091C120.044 30.3394 120.41 30.1878 120.791 30.1878V30.1878ZM118.247 26.1832C118.628 26.1832 118.994 26.3347 119.263 26.6044C119.533 26.8741 119.685 27.2399 119.685 27.6213C119.685 28.0027 119.533 28.3685 119.263 28.6382C118.994 28.9079 118.628 29.0595 118.247 29.0595C117.865 29.0595 117.499 28.9079 117.23 28.6382C116.96 28.3685 116.808 28.0027 116.808 27.6213C116.808 27.2399 116.96 26.8741 117.23 26.6044C117.499 26.3347 117.865 26.1832 118.247 26.1832ZM116.034 21.7581C116.324 21.7537 116.608 21.8356 116.851 21.9934C117.094 22.1512 117.285 22.3777 117.399 22.6441C117.513 22.9105 117.545 23.2048 117.491 23.4895C117.437 23.7742 117.3 24.0364 117.097 24.2429C116.893 24.4493 116.633 24.5906 116.349 24.6488C116.065 24.7069 115.771 24.6793 115.503 24.5695C115.234 24.4597 115.005 24.2725 114.844 24.0319C114.682 23.7913 114.596 23.5081 114.596 23.2184C114.618 22.8504 114.779 22.5045 115.046 22.2501C115.312 21.9957 115.665 21.8515 116.034 21.8466V21.7581ZM111.432 18.6827C111.716 18.6827 111.994 18.7671 112.231 18.9251C112.468 19.0831 112.652 19.3077 112.761 19.5705C112.87 19.8333 112.898 20.1225 112.843 20.4014C112.787 20.6804 112.65 20.9367 112.449 21.1378C112.248 21.3389 111.992 21.4759 111.713 21.5314C111.434 21.5869 111.144 21.5584 110.882 21.4495C110.619 21.3407 110.394 21.1564 110.236 20.9199C110.078 20.6834 109.994 20.4053 109.994 20.1209C109.994 19.7394 110.145 19.3737 110.415 19.104C110.685 18.8342 111.051 18.6827 111.432 18.6827ZM111.609 13.2178C111.99 13.2178 112.356 13.3693 112.626 13.639C112.896 13.9087 113.047 14.2745 113.047 14.6559C113.047 15.0374 112.896 15.4032 112.626 15.6729C112.356 15.9426 111.99 16.0941 111.609 16.0941C111.228 16.0941 110.862 15.9426 110.592 15.6729C110.322 15.4032 110.171 15.0374 110.171 14.6559C110.171 14.2745 110.322 13.9087 110.592 13.639C110.862 13.3693 111.228 13.2178 111.609 13.2178V13.2178ZM108.733 8.79275C109.022 8.78836 109.307 8.87026 109.55 9.02802C109.793 9.18579 109.984 9.41228 110.098 9.6787C110.211 9.94511 110.244 10.2394 110.19 10.5241C110.136 10.8088 109.999 11.0711 109.795 11.2775C109.592 11.4839 109.332 11.6252 109.048 11.6834C108.764 11.7416 108.469 11.714 108.201 11.6041C107.933 11.4943 107.704 11.3071 107.542 11.0665C107.381 10.826 107.295 10.5428 107.295 10.253C107.295 9.86953 107.445 9.50142 107.714 9.2282C107.984 8.95497 108.349 8.79856 108.733 8.79275V8.79275ZM115.68 3.37207C116.061 3.37207 116.427 3.52359 116.697 3.79329C116.967 4.063 117.118 4.42879 117.118 4.81021C117.118 5.19163 116.967 5.55742 116.697 5.82713C116.427 6.09683 116.061 6.24835 115.68 6.24835C115.299 6.24835 114.933 6.09683 114.663 5.82713C114.393 5.55742 114.242 5.19163 114.242 4.81021C114.242 4.42879 114.393 4.063 114.663 3.79329C114.933 3.52359 115.299 3.37207 115.68 3.37207V3.37207ZM127.207 6.97848C127.492 6.97848 127.77 7.06283 128.006 7.22085C128.243 7.37888 128.427 7.60348 128.536 7.86627C128.645 8.12906 128.673 8.41822 128.618 8.69719C128.562 8.97616 128.425 9.23241 128.224 9.43354C128.023 9.63467 127.767 9.77164 127.488 9.82713C127.209 9.88262 126.92 9.85414 126.657 9.74529C126.394 9.63644 126.17 9.45211 126.012 9.21561C125.854 8.97911 125.769 8.70106 125.769 8.41662C125.769 8.0352 125.921 7.66941 126.19 7.3997C126.46 7.13 126.826 6.97848 127.207 6.97848V6.97848ZM125.305 10.253C125.589 10.253 125.867 10.3374 126.104 10.4954C126.34 10.6534 126.524 10.878 126.633 11.1408C126.742 11.4036 126.771 11.6928 126.715 11.9717C126.66 12.2507 126.523 12.5069 126.321 12.7081C126.12 12.9092 125.864 13.0462 125.585 13.1017C125.306 13.1572 125.017 13.1287 124.754 13.0198C124.491 12.911 124.267 12.7266 124.109 12.4901C123.951 12.2536 123.866 11.9756 123.866 11.6912C123.866 11.5023 123.904 11.3153 123.976 11.1408C124.048 10.9663 124.154 10.8078 124.288 10.6742C124.421 10.5407 124.58 10.4348 124.754 10.3625C124.929 10.2902 125.116 10.253 125.305 10.253V10.253ZM133.225 8.04049C133.51 8.04049 133.788 8.12484 134.024 8.28286C134.261 8.44089 134.445 8.6655 134.554 8.92828C134.663 9.19107 134.691 9.48023 134.636 9.7592C134.58 10.0382 134.443 10.2944 134.242 10.4956C134.041 10.6967 133.785 10.8336 133.506 10.8891C133.227 10.9446 132.938 10.9162 132.675 10.8073C132.412 10.6985 132.188 10.5141 132.03 10.2776C131.872 10.0411 131.787 9.76307 131.787 9.47863C131.787 9.09721 131.939 8.73142 132.208 8.46171C132.478 8.19201 132.844 8.04049 133.225 8.04049V8.04049ZM129.619 12.4655C129.903 12.4655 130.181 12.5499 130.418 12.7079C130.654 12.8659 130.839 13.0905 130.948 13.3533C131.056 13.6161 131.085 13.9053 131.029 14.1842C130.974 14.4632 130.837 14.7195 130.636 14.9206C130.435 15.1217 130.178 15.2587 129.9 15.3142C129.621 15.3697 129.331 15.3412 129.069 15.2323C128.806 15.1235 128.581 14.9392 128.423 14.7027C128.265 14.4662 128.181 14.1881 128.181 13.9037C128.181 13.5223 128.332 13.1565 128.602 12.8868C128.872 12.6171 129.238 12.4655 129.619 12.4655V12.4655ZM131.057 16.8906C131.342 16.8906 131.62 16.9749 131.856 17.133C132.093 17.291 132.277 17.5156 132.386 17.7784C132.495 18.0412 132.523 18.3303 132.468 18.6093C132.412 18.8883 132.275 19.1445 132.074 19.3456C131.873 19.5468 131.617 19.6837 131.338 19.7392C131.059 19.7947 130.77 19.7662 130.507 19.6574C130.244 19.5485 130.019 19.3642 129.861 19.1277C129.703 18.8912 129.619 18.6132 129.619 18.3287C129.625 17.9491 129.778 17.5866 130.046 17.3181C130.315 17.0496 130.677 16.8963 131.057 16.8906V16.8906ZM126.566 19.3244C126.947 19.3244 127.313 19.4759 127.583 19.7456C127.852 20.0153 128.004 20.3811 128.004 20.7625C128.004 21.1439 127.852 21.5097 127.583 21.7794C127.313 22.0491 126.947 22.2006 126.566 22.2006C126.184 22.2006 125.818 22.0491 125.549 21.7794C125.279 21.5097 125.128 21.1439 125.128 20.7625C125.128 20.3811 125.279 20.0153 125.549 19.7456C125.818 19.4759 126.184 19.3244 126.566 19.3244ZM122.141 17.8641C122.43 17.8597 122.715 17.9416 122.958 18.0994C123.201 18.2571 123.391 18.4836 123.505 18.75C123.619 19.0165 123.651 19.3107 123.598 19.5954C123.544 19.8801 123.406 20.1424 123.203 20.3488C123 20.5553 122.74 20.6966 122.456 20.7547C122.172 20.8129 121.877 20.7853 121.609 20.6755C121.341 20.5656 121.112 20.3785 120.95 20.1379C120.789 19.8973 120.703 19.6141 120.702 19.3244C120.702 18.9409 120.853 18.5728 121.122 18.2995C121.391 18.0263 121.757 17.8699 122.141 17.8641V17.8641ZM122.406 21.8466C122.696 21.8422 122.98 21.9241 123.223 22.0819C123.466 22.2397 123.657 22.4662 123.771 22.7326C123.885 22.999 123.917 23.2933 123.863 23.578C123.809 23.8627 123.672 24.1249 123.469 24.3314C123.265 24.5378 123.005 24.6791 122.721 24.7373C122.438 24.7954 122.143 24.7678 121.875 24.658C121.607 24.5482 121.377 24.361 121.216 24.1204C121.054 23.8798 120.968 23.5966 120.968 23.3069C120.968 22.9234 121.119 22.5553 121.388 22.2821C121.657 22.0089 122.023 21.8524 122.406 21.8466V21.8466Z" stroke="#2C2D2F" stroke-width="1.52664" stroke-miterlimit="2.61"/>
<path d="M80.4336 46.3608C80.4336 46.3608 133.711 46.3608 133.866 46.3608" stroke="#2C2D2F" stroke-width="2.5444" stroke-miterlimit="2.61"/>
</svg>
